<svg width="37" height="37" viewBox="0 0 37 37" fill="none" xmlns="http://www.w3.org/2000/svg">
<rect x="2.5" y="2.73633" width="32" height="32" rx="6" fill="#D9D2E7"/>
<path d="M8.50007 15.7364H11.5001V29.2363C11.5001 29.5123 11.7241 29.7363 12.0001 29.7363H25C25.276 29.7363 25.5 29.5123 25.5 29.2363V15.7364H28.5C28.755 15.7364 28.9685 15.5449 28.997 15.2914L29.497 10.7914C29.523 10.5569 29.382 10.3364 29.1585 10.2619L21.6585 7.7619C21.466 7.6979 21.253 7.7564 21.1205 7.9109C19.8205 9.50339 17.18 9.50239 15.88 7.9109C15.7476 7.7569 15.5351 7.6979 15.3421 7.7619L7.84208 10.2619C7.61808 10.3364 7.47708 10.5574 7.50308 10.7914L8.00308 15.2914C8.03158 15.5449 8.24507 15.7364 8.50007 15.7364Z" fill="white"/>
</svg>
