<svg width="37" height="37" viewBox="0 0 37 37" fill="none" xmlns="http://www.w3.org/2000/svg">
<rect x="2.5" y="2.73633" width="32" height="32" rx="6" fill="#D9D2E7"/>
<g clip-path="url(#clip0_2638_826)">
<path d="M24.1627 24.0936C22.7497 24.0923 21.6032 25.2366 21.6018 26.6495C21.6004 28.0625 22.7448 29.209 24.1577 29.2104C25.5707 29.2117 26.7172 28.0674 26.7186 26.6545C26.7186 26.6537 26.7186 26.6529 26.7186 26.652C26.7172 25.2406 25.5741 24.0964 24.1627 24.0936Z" fill="white"/>
<path d="M28.7005 11.8427C28.6393 11.8309 28.5771 11.8249 28.5147 11.8248H12.9375L12.6908 10.1743C12.5371 9.07814 11.5995 8.26261 10.4926 8.26227H8.48684C7.94181 8.26227 7.5 8.70408 7.5 9.24911C7.5 9.79413 7.94181 10.2359 8.48684 10.2359H10.4951C10.6205 10.235 10.7267 10.3285 10.7418 10.4531L12.2615 20.8691C12.4699 22.1927 13.6083 23.1691 14.9482 23.1734H25.2138C26.5037 23.1751 27.6166 22.2685 27.8758 21.0048L29.4818 12.9991C29.5854 12.464 29.2356 11.9463 28.7005 11.8427Z" fill="white"/>
<path d="M17.8954 26.5425C17.8353 25.171 16.7034 24.0913 15.3306 24.0961C13.9188 24.1531 12.8206 25.3439 12.8776 26.7557C12.9324 28.1103 14.0343 29.187 15.3898 29.2104H15.4515C16.8631 29.1485 17.9572 27.9541 17.8954 26.5425Z" fill="white"/>
</g>
<defs>
<clipPath id="clip0_2638_826">
<rect width="22" height="22" fill="white" transform="translate(7.5 7.73633)"/>
</clipPath>
</defs>
</svg>
