<svg width="37" height="37" viewBox="0 0 37 37" fill="none" xmlns="http://www.w3.org/2000/svg">
<path d="M32.5551 7.44134L31.7301 10.4413C31.5693 10.9909 31.236 11.4742 30.7796 11.8199C30.3231 12.1656 29.7676 12.3554 29.1951 12.3613H7.80508C7.23251 12.3554 6.67701 12.1656 6.22056 11.8199C5.76411 11.4742 5.43089 10.9909 5.27008 10.4413L4.44508 7.44134C4.33619 7.0508 4.31924 6.64036 4.39556 6.24218C4.47189 5.844 4.6394 5.46891 4.88498 5.14632C5.13055 4.82372 5.44751 4.5624 5.81101 4.38284C6.1745 4.20327 6.57465 4.11034 6.98008 4.11134H30.0201C30.4255 4.11034 30.8257 4.20327 31.1891 4.38284C31.5526 4.5624 31.8696 4.82372 32.1152 5.14632C32.3608 5.46891 32.5283 5.844 32.6046 6.24218C32.6809 6.64036 32.664 7.0508 32.5551 7.44134ZM27.1101 14.6113H9.89008C9.48575 14.6084 9.08639 14.7005 8.72422 14.8803C8.36205 15.0601 8.0472 15.3225 7.80508 15.6463C7.55779 15.9681 7.38845 16.3427 7.31037 16.741C7.23229 17.1392 7.2476 17.55 7.35508 17.9413L8.19508 20.9413C8.35157 21.4934 8.68365 21.9794 9.14106 22.3258C9.59846 22.6723 10.1563 22.8603 10.7301 22.8613H26.2701C26.8439 22.8603 27.4017 22.6723 27.8591 22.3258C28.3165 21.9794 28.6486 21.4934 28.8051 20.9413L29.6451 17.9413C29.7526 17.55 29.7679 17.1392 29.6898 16.741C29.6117 16.3427 29.4424 15.9681 29.1951 15.6463C28.953 15.3225 28.6381 15.0601 28.2759 14.8803C27.9138 14.7005 27.5144 14.6084 27.1101 14.6113ZM24.2001 25.1113H12.8001C12.3959 25.1127 11.9975 25.2073 11.6359 25.3878C11.2743 25.5684 10.9593 25.83 10.7154 26.1523C10.4716 26.4746 10.3054 26.8488 10.2299 27.2459C10.1543 27.6429 10.1715 28.052 10.2801 28.4413L11.1051 31.4413C11.2637 31.9921 11.5964 32.4768 12.0533 32.8228C12.5103 33.1689 13.0669 33.3578 13.6401 33.3613H23.3601C23.9333 33.3578 24.4899 33.1689 24.9468 32.8228C25.4038 32.4768 25.7364 31.9921 25.8951 31.4413L26.7201 28.4413C26.8286 28.052 26.8458 27.6429 26.7703 27.2459C26.6948 26.8488 26.5286 26.4746 26.2847 26.1523C26.0408 25.83 25.7258 25.5684 25.3642 25.3878C25.0026 25.2073 24.6042 25.1127 24.2001 25.1113Z" fill="#D9D2E7"/>
</svg>
