<svg width="37" height="37" viewBox="0 0 37 37" fill="none" xmlns="http://www.w3.org/2000/svg">
<path d="M34.4971 19.3649C34.3606 19.0108 34.1198 18.7065 33.8065 18.4922C33.4933 18.2779 33.1223 18.1638 32.7428 18.1649H30.6343V5.59347C30.6343 4.83571 30.3332 4.10898 29.7974 3.57317C29.2616 3.03735 28.5349 2.73633 27.7771 2.73633H8.34854C7.59078 2.73633 6.86406 3.03735 6.32824 3.57317C5.79242 4.10898 5.4914 4.83571 5.4914 5.59347V18.1649H3.37712C2.99816 18.1636 2.62766 18.2769 2.3142 18.4898C2.00075 18.7028 1.75897 19.0055 1.62058 19.3583C1.48218 19.7111 1.45363 20.0975 1.53867 20.4668C1.62371 20.8361 1.81837 21.171 2.09712 21.4278L15.2514 33.5935C16.0054 34.3238 17.0131 34.7334 18.0628 34.7363C19.1058 34.7335 20.1064 34.3234 20.8514 33.5935L33.9943 21.3992C34.2712 21.1488 34.4669 20.8213 34.5565 20.4589C34.6461 20.0964 34.6254 19.7155 34.4971 19.3649ZM21.4914 19.3078C21.4914 20.2171 21.1302 21.0891 20.4872 21.7321C19.8442 22.3751 18.9721 22.7363 18.0628 22.7363V23.3078C18.0628 23.6109 17.9424 23.9016 17.7281 24.1159C17.5138 24.3302 17.2231 24.4506 16.92 24.4506C16.6169 24.4506 16.3262 24.3302 16.1119 24.1159C15.8975 23.9016 15.7771 23.6109 15.7771 23.3078V22.7363H15.2057C14.9026 22.7363 14.6119 22.6159 14.3976 22.4016C14.1832 22.1873 14.0628 21.8966 14.0628 21.5935C14.0628 21.2904 14.1832 20.9997 14.3976 20.7853C14.6119 20.571 14.9026 20.4506 15.2057 20.4506H18.0628C18.3659 20.4506 18.6566 20.3302 18.871 20.1159C19.0853 19.9016 19.2057 19.6109 19.2057 19.3078V18.7363C19.2057 18.4332 19.0853 18.1425 18.871 17.9282C18.6566 17.7139 18.3659 17.5935 18.0628 17.5935H16.92C16.0107 17.5935 15.1386 17.2322 14.4956 16.5893C13.8526 15.9463 13.4914 15.0742 13.4914 14.1649C13.4914 13.2556 13.8526 12.3835 14.4956 11.7405C15.1386 11.0976 16.0107 10.7363 16.92 10.7363V10.1649C16.92 9.8618 17.0404 9.57111 17.2547 9.35678C17.469 9.14245 17.7597 9.02204 18.0628 9.02204C18.3659 9.02204 18.6566 9.14245 18.871 9.35678C19.0853 9.57111 19.2057 9.8618 19.2057 10.1649V10.7363H19.7771C20.0802 10.7363 20.3709 10.8567 20.5852 11.0711C20.7996 11.2854 20.92 11.5761 20.92 11.8792C20.92 12.1823 20.7996 12.473 20.5852 12.6873C20.3709 12.9016 20.0802 13.022 19.7771 13.022H16.92C16.6169 13.022 16.3262 13.1425 16.1119 13.3568C15.8975 13.5711 15.7771 13.8618 15.7771 14.1649C15.7771 14.468 15.8975 14.7587 16.1119 14.973C16.3262 15.1873 16.6169 15.3078 16.92 15.3078H18.0628C18.9721 15.3078 19.8442 15.669 20.4872 16.312C21.1302 16.9549 21.4914 17.827 21.4914 18.7363V19.3078Z" fill="#D9D2E7"/>
</svg>
