<svg width="37" height="37" viewBox="0 0 37 37" fill="none" xmlns="http://www.w3.org/2000/svg">
<rect x="2.5" y="2.73633" width="32" height="32" rx="6" fill="#D9D2E7"/>
<path fill-rule="evenodd" clip-rule="evenodd" d="M13.4126 13.1022H11.9869C11.0017 13.1022 10.184 13.8636 10.1137 14.8466L9.19397 27.7247C9.15694 28.2446 9.33723 28.7565 9.69245 29.138C10.0482 29.5196 10.5456 29.7363 11.0672 29.7363H25.9327C26.4543 29.7363 26.9517 29.5196 27.3075 29.138C27.6627 28.7565 27.843 28.2446 27.806 27.7247L26.8863 14.8466C26.816 13.8636 25.9982 13.1022 25.013 13.1022H23.5975V12.8339C23.5975 10.0184 21.3154 7.73633 18.5 7.73633C15.7875 7.73633 13.2806 9.89662 13.4024 12.8339C13.4062 12.923 13.4094 13.0126 13.4126 13.1022ZM21.9878 13.1022V12.8339C21.9878 10.9075 20.4263 9.34608 18.5 9.34608C16.5736 9.34608 15.0122 10.9075 15.0122 12.8339V13.1022H21.9878Z" fill="white"/>
<rect x="14.4998" y="24.0146" width="8.87899" height="2.39499" rx="1.1975" transform="rotate(-45 14.4998 24.0146)" fill="#D9D2E7"/>
<rect x="16.1931" y="17.7643" width="8.87899" height="2.39499" rx="1.1975" transform="rotate(45 16.1931 17.7643)" fill="#D9D2E7"/>
</svg>
