<svg width="37" height="37" viewBox="0 0 37 37" fill="none" xmlns="http://www.w3.org/2000/svg">
<rect x="2.5" y="2.73633" width="32" height="32" rx="6" fill="#D9D2E7"/>
<path d="M13.9166 19.653V27.903C13.9166 28.1461 13.82 28.3793 13.6481 28.5512C13.4762 28.7231 13.2431 28.8197 13 28.8197H9.33329C9.09018 28.8197 8.85702 28.7231 8.68511 28.5512C8.5132 28.3793 8.41663 28.1461 8.41663 27.903V19.653C8.41663 19.4099 8.5132 19.1767 8.68511 19.0048C8.85702 18.8329 9.09018 18.7363 9.33329 18.7363H13C13.2431 18.7363 13.4762 18.8329 13.6481 19.0048C13.82 19.1767 13.9166 19.4099 13.9166 19.653ZM20.3333 8.65302H16.6666C16.4235 8.65302 16.1904 8.74959 16.0184 8.9215C15.8465 9.09341 15.75 9.32657 15.75 9.56968V27.903C15.75 28.1461 15.8465 28.3793 16.0184 28.5512C16.1904 28.7231 16.4235 28.8197 16.6666 28.8197H20.3333C20.5764 28.8197 20.8096 28.7231 20.9815 28.5512C21.1534 28.3793 21.25 28.1461 21.25 27.903V9.56968C21.25 9.32657 21.1534 9.09341 20.9815 8.9215C20.8096 8.74959 20.5764 8.65302 20.3333 8.65302ZM27.6666 13.2363H24C23.7568 13.2363 23.5237 13.3329 23.3518 13.5048C23.1799 13.6767 23.0833 13.9099 23.0833 14.153V27.903C23.0833 28.1461 23.1799 28.3793 23.3518 28.5512C23.5237 28.7231 23.7568 28.8197 24 28.8197H27.6666C27.9097 28.8197 28.1429 28.7231 28.3148 28.5512C28.4867 28.3793 28.5833 28.1461 28.5833 27.903V14.153C28.5833 13.9099 28.4867 13.6767 28.3148 13.5048C28.1429 13.3329 27.9097 13.2363 27.6666 13.2363Z" fill="white"/>
</svg>
