<svg width="37" height="37" viewBox="0 0 37 37" fill="none" xmlns="http://www.w3.org/2000/svg">
<rect x="2.5" y="2.73633" width="32" height="32" rx="6" fill="#D9D2E7"/>
<g clip-path="url(#clip0_2765_671)">
<path d="M28.979 26.5533L23.9211 21.495C24.7804 20.1268 25.2792 18.5097 25.2792 16.7743C25.2792 11.8645 21.299 7.88489 16.3894 7.88489C11.4798 7.88489 7.5 11.8645 7.5 16.7743C7.5 21.6843 11.4796 25.6635 16.3894 25.6635C18.278 25.6635 20.0273 25.0731 21.4668 24.0698L26.4646 29.0679C26.8118 29.4148 27.2671 29.5876 27.7218 29.5876C28.177 29.5876 28.6317 29.4148 28.9796 29.0679C29.6735 28.3732 29.6735 27.2478 28.979 26.5533ZM16.3894 22.7835C13.071 22.7835 10.3806 20.0933 10.3806 16.7747C10.3806 13.4561 13.071 10.7657 16.3894 10.7657C19.708 10.7657 22.3982 13.4561 22.3982 16.7747C22.3982 20.0933 19.708 22.7835 16.3894 22.7835Z" fill="white"/>
</g>
<defs>
<clipPath id="clip0_2765_671">
<rect width="22" height="22" fill="white" transform="translate(7.5 7.73633)"/>
</clipPath>
</defs>
</svg>
