<svg width="37" height="37" viewBox="0 0 37 37" fill="none" xmlns="http://www.w3.org/2000/svg">
<rect x="2.5" y="2.73633" width="32" height="32" rx="6" fill="#D9D2E7"/>
<g clip-path="url(#clip0_2638_795)">
<path d="M6.99995 13.8848V20.7459C6.99995 21.2225 7.18926 21.6795 7.52624 22.0165C7.86322 22.3535 8.32026 22.5428 8.79682 22.5428C9.27339 22.5428 9.73043 22.3535 10.0674 22.0165C10.4044 21.6795 10.5937 21.2225 10.5937 20.7459V18.2228L17.2294 24.8585C17.5664 25.1954 18.0234 25.3847 18.4999 25.3847C18.9765 25.3847 19.4335 25.1954 19.7705 24.8585L29.4736 15.1553C29.8082 14.8179 29.9954 14.3616 29.9944 13.8864C29.9933 13.4112 29.8041 12.9558 29.4681 12.6197C29.1321 12.2837 28.6766 12.0945 28.2014 12.0935C27.7262 12.0924 27.27 12.2797 26.9325 12.6142L18.4999 21.0468L13.1348 15.6816H15.658C16.1345 15.6816 16.5916 15.4923 16.9285 15.1553C17.2655 14.8184 17.4548 14.3613 17.4548 13.8848C17.4548 13.4082 17.2655 12.9512 16.9285 12.6142C16.5916 12.2772 16.1345 12.0879 15.658 12.0879H8.79682C8.32026 12.0879 7.86322 12.2772 7.52624 12.6142C7.18926 12.9512 6.99995 13.4082 6.99995 13.8848Z" fill="white"/>
</g>
<defs>
<clipPath id="clip0_2638_795">
<rect width="23" height="23" fill="white" transform="matrix(-1 0 0 1 30 7.23633)"/>
</clipPath>
</defs>
</svg>
