<svg width="37" height="37" viewBox="0 0 37 37" fill="none" xmlns="http://www.w3.org/2000/svg">
<path d="M2.05391 18.1078C2.19045 18.4619 2.43127 18.7662 2.74451 18.9805C3.05776 19.1947 3.42868 19.3089 3.8082 19.3078H5.91677V31.8792C5.91677 32.6369 6.21779 33.3637 6.75361 33.8995C7.28942 34.4353 8.01615 34.7363 8.77391 34.7363H28.2025C28.9602 34.7363 29.687 34.4353 30.2228 33.8995C30.7586 33.3637 31.0596 32.6369 31.0596 31.8792V19.3078H33.1739C33.5529 19.309 33.9234 19.1958 34.2368 18.9828C34.5503 18.7698 34.7921 18.4671 34.9305 18.1143C35.0688 17.7616 35.0974 17.3752 35.0124 17.0059C34.9273 16.6366 34.7327 16.3016 34.4539 16.0449L21.2996 3.87918C20.5456 3.14888 19.5379 2.73923 18.4882 2.73633C17.4452 2.73916 16.4446 3.14925 15.6996 3.87918L2.55677 16.0735C2.27987 16.3239 2.08408 16.6513 1.99449 17.0138C1.9049 17.3762 1.92559 17.7572 2.05391 18.1078ZM15.0596 18.1649C15.0596 17.2556 15.4208 16.3835 16.0638 15.7405C16.7068 15.0975 17.5789 14.7363 18.4882 14.7363V14.1649C18.4882 13.8618 18.6086 13.5711 18.8229 13.3568C19.0373 13.1424 19.3279 13.022 19.6311 13.022C19.9342 13.022 20.2248 13.1424 20.4392 13.3568C20.6535 13.5711 20.7739 13.8618 20.7739 14.1649V14.7363H21.3453C21.6484 14.7363 21.9391 14.8567 22.1535 15.0711C22.3678 15.2854 22.4882 15.5761 22.4882 15.8792C22.4882 16.1823 22.3678 16.473 22.1535 16.6873C21.9391 16.9016 21.6484 17.022 21.3453 17.022H18.4882C18.1851 17.022 17.8944 17.1424 17.6801 17.3568C17.4657 17.5711 17.3453 17.8618 17.3453 18.1649V18.7363C17.3453 19.0394 17.4657 19.3301 17.6801 19.5444C17.8944 19.7588 18.1851 19.8792 18.4882 19.8792H19.6311C20.5404 19.8792 21.4124 20.2404 22.0554 20.8834C22.6984 21.5264 23.0596 22.3984 23.0596 23.3078C23.0596 24.2171 22.6984 25.0891 22.0554 25.7321C21.4124 26.3751 20.5404 26.7363 19.6311 26.7363V27.3078C19.6311 27.6109 19.5106 27.9016 19.2963 28.1159C19.082 28.3302 18.7913 28.4506 18.4882 28.4506C18.1851 28.4506 17.8944 28.3302 17.6801 28.1159C17.4657 27.9016 17.3453 27.6109 17.3453 27.3078V26.7363H16.7739C16.4708 26.7363 16.1801 26.6159 15.9658 26.4016C15.7515 26.1873 15.6311 25.8966 15.6311 25.5935C15.6311 25.2904 15.7515 24.9997 15.9658 24.7853C16.1801 24.571 16.4708 24.4506 16.7739 24.4506H19.6311C19.9342 24.4506 20.2248 24.3302 20.4392 24.1159C20.6535 23.9016 20.7739 23.6109 20.7739 23.3078C20.7739 23.0047 20.6535 22.714 20.4392 22.4996C20.2248 22.2853 19.9342 22.1649 19.6311 22.1649H18.4882C17.5789 22.1649 16.7068 21.8037 16.0638 21.1607C15.4208 20.5177 15.0596 19.6456 15.0596 18.7363V18.1649Z" fill="#D9D2E7"/>
</svg>
