<svg width="14" height="14" viewBox="0 0 14 14" fill="none" xmlns="http://www.w3.org/2000/svg">
<path d="M9.47693 4.12536L13.2652 4.69908C13.5831 4.75372 13.848 4.97228 13.9539 5.30013C14.0599 5.60065 13.9804 5.95581 13.742 6.17438L10.9869 8.98836L11.6492 12.9771C11.7022 13.305 11.5697 13.6328 11.3048 13.824C11.0399 14.0426 10.6955 14.0426 10.4041 13.906L7.01325 12.0209L3.59588 13.906C3.33096 14.0426 2.96009 14.0426 2.72167 13.824C2.45675 13.6328 2.3243 13.305 2.37728 12.9771L3.01307 8.98836L0.257981 6.17438C0.0195599 5.95581 -0.0599138 5.60065 0.0460511 5.30013C0.152016 4.97228 0.416928 4.75372 0.734823 4.69908L4.54956 4.12536L6.245 0.491764C6.37746 0.191242 6.66886 0 7.01325 0C7.33114 0 7.62254 0.191242 7.755 0.491764L9.47693 4.12536Z" fill="#EF4335"/>
</svg>
