<svg width="54" height="16" viewBox="0 0 54 16" fill="none" xmlns="http://www.w3.org/2000/svg">
<g clip-path="url(#clip0_2580_7198)">
<path d="M14.04 0.422852H16.524V15.5948H14.04V0.422852Z" fill="white"/>
<path d="M25.164 10.787C25.164 13.1376 23.22 13.3513 22.572 13.3513C21.06 13.3513 20.844 11.9623 20.844 11.2144V5.33789H18.36V11.1075C18.36 12.4965 18.792 13.7786 19.656 14.5266C20.412 15.2745 21.384 15.595 22.572 15.595C23.436 15.595 24.516 15.3813 25.164 14.7402V15.595H27.648V5.33789H25.164V10.787Z" fill="white"/>
<path d="M32.5079 1.59863H30.0239V5.33821H28.1879V7.68879H30.0239V15.5953H32.5079V7.68879H34.3439V5.33821H32.5079V1.59863Z" fill="white"/>
<path d="M42.12 12.4963C41.58 12.9237 40.824 13.2442 40.068 13.2442C38.34 13.2442 37.152 11.9621 37.152 10.2526C37.152 8.54306 38.34 7.36776 40.068 7.36776C40.824 7.36776 41.58 7.58145 42.12 8.11568L42.444 8.43621L44.172 6.83354L43.74 6.51301C42.768 5.65825 41.472 5.12402 40.068 5.12402C37.044 5.12402 34.776 7.36777 34.776 10.3594C34.776 13.3511 37.044 15.5948 40.068 15.5948C41.472 15.5948 42.768 15.0606 43.74 14.2058L44.172 13.8853L42.444 12.1758L42.12 12.4963Z" fill="white"/>
<path d="M52.92 6.19248C52.164 5.44456 51.408 5.12403 50.22 5.12403C49.356 5.12403 48.492 5.33772 47.844 5.97879V0.422852H45.36V15.5948H47.844V9.93205C47.844 7.58146 49.464 7.36777 50.112 7.36777C51.624 7.36777 51.516 8.75675 51.516 9.50467V15.488H54V9.61152C54 8.22253 53.676 6.94039 52.92 6.19248Z" fill="white"/>
<path d="M39.9601 12.0685C40.9144 12.0685 41.6881 11.3031 41.6881 10.3589C41.6881 9.41479 40.9144 8.64941 39.9601 8.64941C39.0057 8.64941 38.2321 9.41479 38.2321 10.3589C38.2321 11.3031 39.0057 12.0685 39.9601 12.0685Z" fill="#EF4335"/>
<path d="M10.584 11.8549C9.72 12.7096 8.424 13.2439 7.02 13.2439C4.32 13.2439 2.376 11.107 2.376 8.22215C2.376 5.33734 4.32 3.20044 7.128 3.20044C8.424 3.20044 9.72 3.73466 10.692 4.69627L11.016 5.0168L12.636 3.41413L12.312 3.0936C10.908 1.70461 9.072 0.956696 7.128 0.956696C3.024 0.849852 0 4.0552 0 8.22215C0 12.3891 3.024 15.5945 7.02 15.5945C8.964 15.5945 10.908 14.8465 12.204 13.4576L12.528 13.137L10.908 11.5343L10.584 11.8549Z" fill="white"/>
</g>
<defs>
<clipPath id="clip0_2580_7198">
<rect width="54" height="15.1364" fill="white" transform="translate(0 0.431641)"/>
</clipPath>
</defs>
</svg>
