<svg width="274" height="38" viewBox="0 0 274 38" fill="none" xmlns="http://www.w3.org/2000/svg">
<path d="M206.76 1.43435L190.886 1.43127L190.917 2.50818C190.97 4.85102 191.77 7.80037 195.76 7.80037H200.432L206.382 7.79729C212.575 7.79729 215.872 9.81205 214.932 16.664L214.181 22.1448C213.26 29.2381 208.129 30.2749 203.597 30.2749H197.585L199.266 16.6392C199.516 14.6802 198.513 11.4645 194.754 11.4645H189.554L188.163 22.705L186.851 32.5713C186.485 35.2112 188.438 36.6873 192.632 36.6873L204.832 36.6843C217.256 36.6843 220.616 32.2339 222.322 29.4425C223.256 27.8456 223.916 25.8958 224.294 23.6427C224.375 23.2005 225.216 16.1687 225.216 16.1687C225.728 11.9134 224.928 8.67315 222.769 6.26847C219.9 3.08082 214.669 1.43435 206.76 1.43435Z" fill="#C61B31"/>
<path d="M69.1884 16.0349L68.4165 21.8531C68.0728 24.4497 67.3603 26.4304 66.2385 27.9035C64.6854 29.8564 62.3198 31.0756 59.0293 31.0756H57.1919H57.1041C53.8324 31.0756 51.4699 29.9522 50.4637 28.1015C49.7856 26.7181 49.6106 24.7498 49.9575 22.1346L50.7231 16.3196C51.1418 13.1938 52.148 10.9005 53.798 9.31598C55.398 7.76549 57.6948 7.02267 60.4478 7.02267H60.4974H62.2411C64.138 7.02267 66.6504 7.33246 68.0535 9.1706C69.2253 10.6994 69.5915 12.9462 69.1884 16.0349ZM62.6755 0.625732H62.6595L60.9189 0.628811C48.4287 0.758647 41.907 5.9025 40.5289 15.747L39.7039 22.1286C39.1789 26.5325 39.9696 29.8222 42.1195 32.2176C44.7788 35.1669 49.4255 37.2994 56.4878 37.3736H58.244C70.4531 37.2464 76.9685 32.2579 78.4997 23.1066L78.6059 22.4477L79.4309 16.0754C79.9778 11.5012 79.1652 8.09708 76.959 5.63976C74.2935 2.68108 69.6628 0.700037 62.6755 0.625732Z" fill="#C61B31"/>
<path d="M263.093 16.0349L262.318 21.8531C261.978 24.4497 261.268 26.4304 260.147 27.9035C258.597 29.8564 256.228 31.0756 252.937 31.0756H251.1H251.009C247.737 31.0756 245.375 29.9522 244.369 28.1015C243.691 26.7181 243.519 24.7498 243.863 22.1346L244.631 16.3196C245.047 13.1938 246.053 10.9005 247.7 9.31598C249.3 7.76549 251.594 7.02267 254.359 7.02267H254.403H256.146C258.046 7.02267 260.559 7.33246 261.959 9.1706C263.13 10.6994 263.503 12.9462 263.093 16.0349ZM270.868 5.63935C268.202 2.68067 263.568 0.700037 256.581 0.625732H256.568L254.824 0.628811C242.334 0.758647 235.812 5.9025 234.437 15.747L233.606 22.1286C233.088 26.5325 233.881 29.8222 236.025 32.2176C238.684 35.1669 243.331 37.2994 250.396 37.3736H252.143C264.362 37.2464 270.874 32.2579 272.411 23.1066L272.518 22.4477L273.333 16.0754C273.883 11.5012 273.071 8.09668 270.868 5.63935Z" fill="#C61B31"/>
<path d="M169.764 16.0349L168.995 21.8531C168.655 24.4497 167.939 26.4304 166.817 27.9035C165.267 29.8564 162.899 31.0756 159.608 31.0756H157.771H157.68C154.415 31.0756 152.046 29.9522 151.046 28.1015C150.361 26.7181 150.19 24.7498 150.54 22.1346L151.302 16.3196C151.724 13.1938 152.724 10.9005 154.377 9.31598C155.977 7.76549 158.271 7.02267 161.03 7.02267H161.08H162.817C164.717 7.02267 167.229 7.33246 168.636 9.1706C169.807 10.6994 170.173 12.9462 169.764 16.0349ZM163.258 0.625732H163.245L161.495 0.628811C149.005 0.758647 142.486 5.9025 141.108 15.747L140.283 22.1286C139.762 26.5325 140.552 29.8222 142.702 32.2176C145.355 35.1669 150.008 37.2994 157.064 37.3736H158.82C171.033 37.2464 177.545 32.2579 179.082 23.1066L179.189 22.4477L180.01 16.0754C180.554 11.5012 179.742 8.09708 177.539 5.63976C174.879 2.68108 170.239 0.700037 163.258 0.625732Z" fill="#C61B31"/>
<path d="M123.753 3.38409L110.038 18.7932L100.401 3.53883C99.4789 2.1245 97.6039 1.41272 94.8415 1.41272H90.4885L86.1449 36.6936H91.4541C93.2228 36.6936 94.4697 35.9418 95.1946 35.3103C96.3133 34.3478 97.0602 32.9737 97.254 31.516L99.182 16.0388L106.294 29.4145C106.61 29.9163 107.476 31.0456 108.613 31.0549H108.701C109.904 31.0461 110.91 29.9438 111.226 29.5756L122.016 16.1006L119.438 36.6781L124.56 36.6844C126.325 36.6844 127.572 35.9351 128.297 35.304C129.416 34.3415 130.163 32.9674 130.353 31.5097L134.125 1.41272H129.591C126.913 1.41272 124.947 2.07503 123.753 3.38409Z" fill="#C61B31"/>
<path d="M21.1302 1.42847C19.3521 1.42847 17.7428 1.57667 16.2179 1.80301C7.35249 3.109 2.5776 7.90285 1.44952 16.0174L0.652665 22.1824C0.143329 26.4315 0.905749 29.6098 2.98074 31.9217C5.39004 34.5925 9.50866 36.7558 15.6272 36.7558H26.3801C32.6112 36.7558 33.3549 30.3 33.3549 30.3H19.1021C17.1678 30.2824 15.3023 30.1359 13.9804 29.6534C12.1867 29.0007 11.0992 27.8553 10.7274 25.7694C10.5836 24.9492 10.6243 23.1264 10.7805 21.969L11.4868 16.5747C11.6993 15.1913 12.1274 13.6532 12.3305 13.1549C12.8586 11.8706 13.7024 10.5399 15.0929 9.5743C15.9054 9.01109 17.8147 7.85981 22.6365 7.85981H30.5394C36.0392 7.85981 37.0486 1.42873 37.0486 1.42873L21.1302 1.42847Z" fill="#C61B31"/>
</svg>
