<svg width="270" height="70" viewBox="0 0 270 70" fill="none" xmlns="http://www.w3.org/2000/svg">
<g clip-path="url(#clip0_898_3827)">
<path d="M28.1171 30.8562C24.6688 30.8562 21.875 33.6543 21.875 37.0974C21.875 40.5405 24.6688 43.3386 28.1171 43.3386C31.5548 43.3386 34.3488 40.5396 34.3488 37.0974C34.3488 33.6552 31.5548 30.8562 28.1171 30.8562ZM31.7721 40.3919C31.3041 40.9583 30.7164 41.4144 30.0511 41.7273C29.3858 42.0403 28.6593 42.2024 27.9238 42.202C25.1627 42.202 22.934 39.9702 22.934 37.2041C22.9331 36.4685 23.0946 35.7418 23.4071 35.0757C23.7196 34.4095 24.1753 33.8204 24.7419 33.3501L24.8312 33.2848L24.6084 33.5843C24.0574 34.4096 23.7643 35.3797 23.7661 36.3715C23.7661 39.1361 25.9948 41.3694 28.756 41.3694C29.747 41.3708 30.716 41.077 31.5389 40.5256L31.8389 40.3024L31.7721 40.3919Z" fill="#242424"/>
<path d="M89.6624 28.9084C87.8022 27.467 85.6451 26.6544 83.3902 26.6544C81.5865 26.6544 79.7782 27.2012 78.2287 28.1091C76.6349 29.045 75.5956 30.3576 74.6519 32.0436C74.638 32.0684 74.6266 32.0943 74.6125 32.1184V16.9529H69.0624V28.3878C67.8558 27.1374 65.8507 26.6844 63.8733 26.6844C62.0417 26.6844 60.3555 27.1332 58.8149 28.0308C57.2301 28.958 55.951 30.3332 54.9776 32.0692C54.0617 33.7164 53.7559 34.8139 53.7559 36.5726C53.7559 39.1542 54.6354 41.9823 56.4371 44.0121C58.4725 46.3083 61.009 47.4564 64.0464 47.4564C66.4886 47.4564 68.7795 46.6702 70.6697 45.095C72.081 43.8994 73.2164 42.352 73.9032 40.7502C74.0914 41.26 74.3201 41.7539 74.5872 42.2273C75.5028 43.8414 76.7783 45.1238 78.4137 46.0747C79.9919 46.9832 81.6763 47.48 83.4669 47.48C85.1156 47.48 86.6443 47.0693 88.054 46.3338C88.6463 46.0175 89.1629 45.6064 89.9522 45.1019L89.929 39.6756C88.2227 40.9005 87.1165 41.6798 86.0882 42.01C85.1866 42.2989 84.2352 42.4431 83.2342 42.4428C82.7692 42.4428 82.2055 42.2914 81.543 41.9888L92.0504 31.2877C91.1343 30.2202 90.3382 29.4271 89.6624 28.9084ZM68.0158 40.7656C66.8971 42.001 65.5381 42.6187 63.9387 42.6187C62.2966 42.6187 60.9231 41.9199 59.8184 40.5222C59.0042 39.4929 58.5972 38.3674 58.5974 37.1455C58.5974 35.8074 59.0115 34.6524 59.8399 33.6805C60.8869 32.4155 62.2317 31.783 63.874 31.783C65.3414 31.783 66.5768 32.2462 67.5802 33.1727C68.7864 34.3062 69.3894 35.6453 69.3892 37.1901C69.3894 38.5582 68.9315 39.75 68.0158 40.7656ZM78.6899 39.0273C78.3237 38.2632 78.1406 37.6214 78.1407 37.1019C78.1407 35.8201 78.5986 34.6387 79.5144 33.5577C80.5151 32.3608 81.7906 31.7623 83.3409 31.7622C83.8909 31.7622 84.5465 31.8995 85.3076 32.174L78.6899 39.0273Z" fill="#242424"/>
<path d="M28.086 26.6521C22.3137 26.6521 17.6211 31.3286 17.6211 37.0945C17.6211 42.8605 22.3137 47.5501 28.086 47.5501C33.8582 47.5501 38.5083 42.8622 38.5083 37.0945C38.5083 31.3269 33.8582 26.6521 28.086 26.6521ZM28.086 45.4972C23.4252 45.4972 19.6315 41.7078 19.6315 37.0517C19.6315 32.3956 23.4252 28.6166 28.086 28.6166C32.7467 28.6166 36.5296 32.3959 36.5296 37.0517C36.5296 41.7074 32.7454 45.4974 28.086 45.4974V45.4972Z" fill="#242424"/>
<path d="M42.5603 27.1135H40.8092C40.2124 27.1135 39.7266 27.5968 39.7266 28.2078V29.3772C39.7266 29.9876 40.2124 30.4846 40.8092 30.4846H42.5603C43.1562 30.4846 43.6429 29.9878 43.6429 29.3772V28.2078C43.6429 27.5968 43.1562 27.1135 42.5603 27.1135Z" fill="#242424"/>
<path d="M46.139 22.3053C41.8103 14.9498 33.4754 10 24.3836 10C10.6712 10 -0.5 21.2024 -0.5 35.0065C-0.5 48.8107 10.6712 60 24.3836 60C30.9901 60 37.3775 57.4237 41.8307 53.1798C45.9593 53.0535 49.4465 51.1683 49.6139 45.9666V27.7117C49.6139 25.3061 48.1833 23.2414 46.139 22.3053ZM46.8856 45.983C46.8856 48.8257 44.8161 50.2808 41.9929 50.2808H14.1301C10.9097 50.2808 9.22087 49.6257 9.22087 46.2528V28.732C9.22087 25.3737 10.9956 23.8801 14.2159 23.8801H20.291C20.291 23.8801 22.166 20.7052 22.1848 20.6979C22.3743 20.4042 22.8622 19.7025 24.0709 19.7025H30.9558C32.2004 19.7025 32.6547 20.2624 32.897 20.6979C32.9409 20.7764 34.871 23.8801 34.871 23.8801H42.0255C45.2331 23.8801 46.8856 25.3735 46.8856 28.732V45.983Z" fill="#242424"/>
<path d="M160.86 21.2004L155.296 23.1859V26.6489H153.854V32.2194H155.296V41.1838C155.296 42.5523 155.55 43.6926 156.059 44.6047C157.163 46.5771 159.302 47.5177 162.064 47.5177C162.921 47.5177 163.785 47.4078 165.021 47.0989V41.9988C163.607 42.6126 162.96 42.6182 162.539 42.6182C162.015 42.6182 161.586 42.5529 161.252 42.2439C160.976 41.9943 160.823 41.7151 160.794 41.4062L160.816 40.0811V32.2192H165.046V26.6482H160.86V21.2004Z" fill="#242424"/>
<path d="M221.335 28.0689C219.868 27.159 218.148 26.6609 216.517 26.6609C214.86 26.6609 213.405 27.094 211.978 27.8741C210.606 28.6254 209.479 29.6862 208.515 31.0592C207.292 32.8355 206.723 34.8 206.723 37.1241C206.723 38.9445 207.138 40.7142 207.967 42.259C208.822 43.8625 210.032 45.1337 211.594 46.0726C213.116 47.0108 214.732 47.524 216.444 47.524C218.157 47.524 219.766 47.0186 221.274 46.0939C222.795 45.1558 224.004 43.8704 224.901 42.2379C225.799 40.606 226.247 38.9086 226.247 37.0595C226.247 35.2543 225.826 33.5282 224.983 31.968C224.1 30.3359 222.884 29.0362 221.335 28.0689ZM220.234 40.5917C219.188 41.8191 218.022 42.4333 216.472 42.4333C215.209 42.4333 213.979 41.9859 213.041 41.0902C211.927 40.0209 211.371 38.6919 211.37 37.1031C211.37 35.5729 211.846 34.2948 212.797 33.2688C213.748 32.2138 214.993 31.7299 216.447 31.7299C217.793 31.7299 218.883 32.1417 219.807 33.0518C220.948 34.1641 221.519 35.4931 221.519 37.0389C221.518 38.411 221.09 39.5953 220.234 40.5917Z" fill="#242424"/>
<path d="M128.007 28.15C126.481 27.2436 124.871 26.7903 123.175 26.7901C121.451 26.7901 119.848 27.1784 118.365 27.9549C116.937 28.7027 115.722 29.7601 114.72 31.127C113.977 32.1555 113.439 33.3166 113.134 34.5475C112.743 32.9245 111.962 31.4512 110.793 30.1276C108.773 27.8177 106.236 26.6627 103.184 26.6626C101.323 26.6626 99.5939 27.1407 97.9951 28.0968C96.4388 29.0388 94.9377 30.3262 93.9931 31.9594C93.0917 33.5191 92.6903 35.373 92.7055 37.5206L92.728 54.4236H98.2781V45.9294C98.8597 46.3119 99.3103 46.5767 99.63 46.7238C100.676 47.2533 101.912 47.5183 103.337 47.5188C105.982 47.5188 108.069 46.628 110.031 44.8477C111.609 43.4041 112.638 41.7141 113.116 39.7777C113.332 40.6529 113.665 41.4951 114.107 42.2813C114.996 43.8787 116.254 45.1445 117.878 46.079C119.46 47.0134 121.141 47.4808 122.922 47.481C124.703 47.4813 126.377 47.021 127.944 46.1003C129.525 45.1659 130.783 43.8856 131.716 42.2594C132.649 40.6333 133.115 38.9001 133.115 37.0599C133.115 35.2629 132.676 33.5875 131.8 32.0336C130.882 30.4072 129.618 29.1126 128.007 28.15ZM106.913 41.0743C105.881 42.0893 104.581 42.5964 103.098 42.5964C101.848 42.5964 100.772 42.2001 99.7837 41.4057C98.4171 40.3011 97.7341 38.8811 97.7347 37.1455C97.7347 35.7632 98.1926 34.5494 99.1083 33.5043C100.169 32.3119 101.455 31.716 102.968 31.7167C104.435 31.7167 105.685 32.1946 106.718 33.1505C107.924 34.2696 108.528 35.6087 108.528 37.1676C108.527 38.6986 107.988 40.0009 106.913 41.0743H106.913ZM126.82 40.62C125.732 41.8429 124.427 42.4545 122.816 42.4545C121.504 42.4545 120.314 42.0082 119.34 41.1166C118.182 40.0518 117.603 38.7284 117.603 37.1466C117.603 35.622 118.097 34.3491 119.086 33.328C120.075 32.2775 121.325 31.7523 122.836 31.7524C124.235 31.7524 125.415 32.2054 126.375 33.1114C127.562 34.2195 128.156 35.5429 128.155 37.0814C128.154 38.448 127.709 39.6275 126.819 40.6199L126.82 40.62Z" fill="#242424"/>
<path d="M255.582 31.9575C254.701 30.3284 253.488 29.031 251.943 28.0655C250.479 27.158 248.763 26.6616 247.136 26.6616C245.482 26.6616 244.03 27.0935 242.607 27.872C241.238 28.6218 240.113 29.6813 239.151 31.0502C237.931 32.8233 237.363 34.7837 237.363 37.1033C237.363 38.9203 237.776 40.6861 238.604 42.2285C239.458 43.8278 240.664 45.096 242.223 46.0331C243.741 46.969 245.354 47.4821 247.062 47.4821C248.77 47.4821 250.377 46.9767 251.881 46.0552C253.398 45.1192 254.605 43.8364 255.5 42.2068C256.395 40.5783 256.842 38.8844 256.842 37.0404C256.843 35.2371 256.423 33.514 255.582 31.9575ZM250.845 40.6056C249.8 41.8305 248.636 42.4439 247.091 42.4439C245.83 42.4439 244.602 41.9973 243.666 41.1037C242.555 40.0368 241.999 38.7106 241.999 37.125C241.999 35.5972 242.474 34.3218 243.423 33.2987C244.372 32.2462 245.614 31.7198 247.065 31.7198C248.407 31.7198 249.496 32.1737 250.417 33.0825C251.556 34.1919 252.126 35.5177 252.125 37.0599C252.125 38.4296 251.699 39.6114 250.845 40.6054V40.6056Z" fill="#242424"/>
<path d="M264.786 34.9551C263.336 34.3671 262.49 33.9088 262.246 33.5802C262.072 33.3216 261.987 33.0645 261.987 32.8072C261.987 32.5057 262.095 32.2332 262.31 31.9899C262.539 31.7316 262.848 31.6034 263.235 31.6034C263.766 31.6034 264.29 31.7823 264.808 32.1402C265.224 32.441 265.654 32.9416 266.185 33.8155L269.501 30.6779C268.898 29.6899 268.411 29.0533 267.952 28.5949C266.732 27.3772 265.21 26.7683 263.387 26.7683C260.831 26.7683 258.922 27.8785 257.659 30.0989C257.142 31.0154 256.884 32.0039 256.884 33.0645C256.884 34.339 257.192 35.4347 257.809 36.3514C258.585 37.5119 260.074 38.3642 261.58 38.9089C262.873 39.367 263.627 39.7539 263.842 40.0695C264.057 40.3851 264.164 40.7004 264.164 41.0153C264.164 41.3736 264.036 41.6965 263.777 41.9829C263.475 42.3119 263.102 42.4766 262.658 42.4773C261.81 42.4773 260.559 41.8554 259.339 40.1797L256.26 43.8535C256.963 44.8714 257.465 45.3854 258.025 45.8287C259.36 46.8891 261.179 47.4198 262.786 47.4198C264.48 47.4198 265.938 46.8468 267.159 45.7008C268.636 44.2968 269.375 42.6422 269.376 40.737C269.376 39.6342 269.075 38.5883 268.472 37.5993C267.754 36.4377 266.293 35.5569 264.786 34.9551Z" fill="#242424"/>
<path d="M233.583 42.2002C233.306 41.9507 233.154 41.6712 233.125 41.3618L233.147 40.0367V32.219H237.339V26.6513H233.158V21.0881L227.644 23.2408V26.6513H226.203V32.219H227.644V41.1411C227.644 42.5087 227.898 43.6488 228.406 44.5612C229.511 46.5336 231.782 47.5188 234.544 47.5188C235.401 47.5188 236.122 47.3209 237.358 47.0117V41.9183C235.905 42.6351 235.291 42.6641 234.87 42.6641C234.347 42.6641 233.918 42.5095 233.583 42.2002Z" fill="#242424"/>
<path d="M152.519 26.6741H146.951V47.4728H152.519V26.6741Z" fill="#242424"/>
<path d="M140.346 31.6038C140.877 31.6038 141.401 31.7827 141.918 32.1406C142.334 32.4414 142.808 33.0285 143.34 33.902L146.655 30.7655C146.053 29.7771 145.521 29.0533 145.062 28.5942C143.842 27.3764 142.32 26.7676 140.497 26.7676C137.941 26.7676 136.032 27.8778 134.769 30.0982C134.252 31.0154 133.994 32.0043 133.994 33.0649C133.994 34.3394 134.302 35.435 134.92 36.3518C135.695 37.5131 136.836 38.3656 138.343 38.9093C139.635 39.3674 140.389 39.7543 140.604 40.0699C140.82 40.3855 140.927 40.7007 140.927 41.0157C140.927 41.3741 140.798 41.6966 140.54 41.9833C140.238 42.3122 139.865 42.477 139.42 42.4777C138.573 42.4777 137.539 41.6394 136.319 39.963L133.24 43.636C133.943 44.6534 134.575 45.384 135.135 45.8277C136.47 46.8885 137.942 47.4188 139.55 47.4188C141.243 47.4188 142.7 46.8459 143.921 45.6999C145.399 44.2959 146.139 42.6413 146.139 40.7361C146.139 39.6333 145.837 38.5874 145.235 37.5984C144.516 36.4379 143.404 35.557 141.897 34.9559C140.447 34.3679 139.6 33.9096 139.356 33.581C139.183 33.3223 139.098 33.0653 139.098 32.8079C139.098 32.5064 139.205 32.234 139.421 31.9907C139.65 31.7321 139.959 31.6031 140.346 31.6038Z" fill="#242424"/>
<path d="M151.551 18.975C151.042 18.5459 150.455 18.3315 149.788 18.3318C149.098 18.3318 148.493 18.5462 147.972 18.975C147.331 19.5025 147.01 20.1951 147.01 21.0527C147.01 21.7879 147.258 22.4313 147.754 22.983C148.299 23.6077 148.989 23.9205 149.825 23.9212C150.515 23.9212 151.114 23.6941 151.622 23.24C152.228 22.6888 152.53 21.9842 152.53 21.1263C152.531 20.2438 152.204 19.5267 151.551 18.975Z" fill="#242424"/>
<path d="M200.5 27.7215C199.497 26.9565 198.393 26.5739 197.186 26.5737C196.386 26.5737 195.616 26.7503 194.875 27.1036C194.336 27.3544 193.61 27.5903 192.854 28.34V16.906H187.281V35.3324C186.959 33.3959 186.101 31.6601 184.744 30.1274C182.723 27.8175 180.187 26.633 177.135 26.633C175.275 26.633 173.4 26.9187 171.802 27.8748C170.246 28.8167 168.684 30.0801 167.74 31.7122C166.839 33.2718 166.39 35.372 166.405 37.5196L166.425 54.4272H171.983V45.9288C172.564 46.3113 173.014 46.5761 173.334 46.7233C174.381 47.2528 175.644 47.5184 177.069 47.5184C179.714 47.5184 182.018 46.6281 183.98 44.8473C185.79 43.1916 186.904 41.2115 187.28 38.9093V47.4673H192.854V35.5787C192.854 34.2548 193.159 33.2689 193.77 32.6211C194.511 31.8125 195.397 31.6715 196.27 31.6715C196.604 31.6715 196.945 31.7818 197.294 32.0025C197.672 32.2378 198.021 32.8267 198.341 33.769L202.764 47.4243H208.192L203.159 32.3334C202.374 30.0102 201.488 28.4729 200.5 27.7215ZM180.733 41.0749C179.7 42.0898 178.443 42.5972 176.961 42.5969C175.71 42.5969 174.591 42.2 173.602 41.4062C172.236 40.3017 171.553 38.8816 171.553 37.146C171.553 35.7637 172.011 34.55 172.927 33.5048C173.988 32.3125 175.274 31.7166 176.786 31.7172C178.255 31.7172 179.505 32.1952 180.537 33.1511C181.743 34.2702 182.346 35.6092 182.346 37.1681C182.346 38.6992 181.808 40.0014 180.733 41.0749Z" fill="#242424"/>
</g>
<defs>
<clipPath id="clip0_898_3827">
<rect width="270" height="70" fill="white"/>
</clipPath>
</defs>
</svg>
