<svg id="Layer_1" data-name="Layer 1" xmlns="http://www.w3.org/2000/svg" viewBox="0 0 1148.28 366.17"><title>hunter_logo_black_</title><path d="M656.82,659.72l-.28-132a22.38,22.38,0,0,0-7.16-16.38L490.19,363.4a22.42,22.42,0,0,0-30.55,0L317.11,496.16A22.43,22.43,0,0,0,310,512.54l-.25,147.19a22.44,22.44,0,0,0,22.43,22.47H441V560.27l84.53-50.72V682.2H634.38a22.44,22.44,0,0,0,22.44-22.48" transform="translate(-309.72 -357.4)"/><polygon points="505.86 63.67 505.86 111.6 450.65 111.6 450.65 63.67 422.52 63.67 422.52 185.21 450.65 185.21 450.65 135.38 505.86 135.38 505.86 185.21 533.99 185.21 533.99 63.67 505.86 63.67"/><path d="M960.39,449.2v93.42h-25.7V531.5a36,36,0,0,1-12.85,9.3A40.63,40.63,0,0,1,905.69,544q-18.41,0-29.17-10.6T865.76,502V449.2h27.08V498q0,22.57,18.93,22.58,9.72,0,15.63-6.34t5.9-18.84V449.2Z" transform="translate(-309.72 -357.4)"/><path d="M1066,458.23q10.68,10.42,10.68,30.91v53.48h-27.09V493.31q0-11.12-4.86-16.59t-14.06-5.46q-10.26,0-16.32,6.33t-6.08,18.84v46.19H981.22V449.2h25.87v10.94a36,36,0,0,1,13.37-9.11,46.6,46.6,0,0,1,17.54-3.21q17.36,0,28,10.41" transform="translate(-309.72 -357.4)"/><path d="M1157.11,538.1a27.86,27.86,0,0,1-9.81,4.43,49.81,49.81,0,0,1-12.24,1.48q-16.66,0-25.79-8.51t-9.11-25V472.12h-14.41V451.29h14.41V428.54h27.08v22.75h23.27v20.83h-23.27v38q0,5.9,3,9.11t8.6,3.22a17.41,17.41,0,0,0,10.94-3.48Z" transform="translate(-309.72 -357.4)"/><path d="M1192.7,473.51a22.25,22.25,0,0,0-7.64,14.24h46a22.42,22.42,0,0,0-7.65-14.15,22.82,22.82,0,0,0-15.27-5.3,23.36,23.36,0,0,0-15.46,5.21m63.38,30h-70.67a22,22,0,0,0,9,13.72q7.11,5,17.71,5a35.86,35.86,0,0,0,12.94-2.17,31.15,31.15,0,0,0,10.5-6.86L1250,528.9Q1236.8,544,1211.45,544q-15.79,0-28-6.17a45.09,45.09,0,0,1-18.75-17.1,47.11,47.11,0,0,1-6.6-24.83,47.74,47.74,0,0,1,6.51-24.74A45.58,45.58,0,0,1,1182.55,454a55.3,55.3,0,0,1,50.26-.26,43.08,43.08,0,0,1,17.45,16.93q6.35,11,6.34,25.61,0,.53-.52,7.29" transform="translate(-309.72 -357.4)"/><path d="M1309.29,451.29a48.6,48.6,0,0,1,19-3.48v25q-4.51-.35-6.08-.35-11.64,0-18.23,6.51t-6.6,19.54v44.1h-27.09V449.2h25.87v12.33a30.09,30.09,0,0,1,13.11-10.24" transform="translate(-309.72 -357.4)"/><path d="M826.34,627.38H843v47.4a64.6,64.6,0,0,1-21,11.46,78.61,78.61,0,0,1-25,4,67.83,67.83,0,0,1-33.16-8.08,59.84,59.84,0,0,1-23.18-22.22,64.66,64.66,0,0,1,0-63.81,59,59,0,0,1,23.26-22.23q14.85-8,33.43-8a70.49,70.49,0,0,1,26.47,4.77,54,54,0,0,1,20.23,14l-10.76,10.76Q818.71,581.38,798,581.37a51.32,51.32,0,0,0-24.91,6A43.92,43.92,0,0,0,755.85,604a49.05,49.05,0,0,0,0,47.92,44.49,44.49,0,0,0,17.28,16.76,50.35,50.35,0,0,0,24.74,6.07q16.32,0,28.47-7.81Z" transform="translate(-309.72 -357.4)"/><path d="M911.25,672.79a24.39,24.39,0,0,0,10.07-12.07V647.87h-25.7q-21.18,0-21.18,14.24a12.88,12.88,0,0,0,5.38,10.94q5.38,4,14.93,4a31,31,0,0,0,16.5-4.25m16.58-67.46Q938,614.71,938,633.28v55.57H922.19V676.69a26.29,26.29,0,0,1-11.9,9.81A45.35,45.35,0,0,1,892,689.89q-15.45,0-24.74-7.47a23.94,23.94,0,0,1-9.29-19.62q0-12.15,8.85-19.53t28.14-7.38h26.39v-3.3q0-10.77-6.25-16.49t-18.41-5.73a48.56,48.56,0,0,0-16,2.69,41.08,41.08,0,0,0-13.2,7.2l-7-12.5a50.52,50.52,0,0,1,17-8.77,71.39,71.39,0,0,1,21-3q19.09,0,29.26,9.38" transform="translate(-309.72 -357.4)"/><rect x="650.49" y="202.61" width="16.67" height="128.83"/><rect x="690.25" y="202.61" width="16.67" height="128.83"/><path d="M1095,671.22a28.76,28.76,0,0,0,11-11.46,37.81,37.81,0,0,0,0-33.85,28.23,28.23,0,0,0-11-11.38,33.64,33.64,0,0,0-31.78,0,28.9,28.9,0,0,0-11.11,11.38,37.14,37.14,0,0,0,0,33.85,29.45,29.45,0,0,0,11.11,11.46,33,33,0,0,0,31.78,0m-40.54,12.59a44.08,44.08,0,0,1-17.11-16.75,50.71,50.71,0,0,1,0-48.45A43.45,43.45,0,0,1,1054.49,602a53.47,53.47,0,0,1,49.22,0,43.68,43.68,0,0,1,17,16.66,50.71,50.71,0,0,1,0,48.45,44.32,44.32,0,0,1-17,16.75,52.85,52.85,0,0,1-49.22,0" transform="translate(-309.72 -357.4)"/><polygon points="968.23 239.42 933.85 331.45 917.88 331.45 891.31 261.65 864.4 331.45 848.43 331.45 814.22 239.42 830.02 239.42 856.76 312.69 884.54 239.42 898.6 239.42 925.86 313.04 953.3 239.42 968.23 239.42"/><path d="M1329.34,672.79a24.34,24.34,0,0,0,10.07-12.07V647.87h-25.7q-21.18,0-21.18,14.24a12.88,12.88,0,0,0,5.38,10.94q5.38,4,14.94,4a31,31,0,0,0,16.49-4.25m16.58-67.46q10.15,9.38,10.16,27.95v55.57h-15.8V676.69a26.29,26.29,0,0,1-11.9,9.81,45.3,45.3,0,0,1-18.31,3.39q-15.46,0-24.75-7.47A23.94,23.94,0,0,1,1276,662.8q0-12.15,8.86-19.53t28.13-7.38h26.39v-3.3q0-10.77-6.25-16.49t-18.4-5.73a48.57,48.57,0,0,0-16,2.69,40.92,40.92,0,0,0-13.19,7.2l-6.95-12.5a50.42,50.42,0,0,1,17-8.77,71.3,71.3,0,0,1,21-3q19.1,0,29.25,9.38" transform="translate(-309.72 -357.4)"/><path d="M1458,596.82l-44.62,101.23q-5.91,14.07-13.81,19.79t-19,5.73a40.15,40.15,0,0,1-13.11-2.17,27,27,0,0,1-10.5-6.33l7.12-12.51a23.17,23.17,0,0,0,16.49,6.78,15.94,15.94,0,0,0,10.16-3.22q4.08-3.21,7.38-11l3-6.43-40.63-91.85h17.36l32.13,73.62,31.77-73.62Z" transform="translate(-309.72 -357.4)"/><path d="M733.13,359.53h7.23l11.77,18.28,11.76-18.28h7.24v38.66h-6.79V370.46l-12.21,18.23h-.22l-12.1-18.12v27.62h-6.68Z" transform="translate(-309.72 -357.4)"/><path d="M778.69,383.77v-.11a15.24,15.24,0,0,1,15.58-15.24c9,0,15.52,6.79,15.52,15.13v.11a15.28,15.28,0,0,1-15.63,15.19A15.09,15.09,0,0,1,778.69,383.77Zm24.42,0v-.11c0-5.13-3.7-9.39-9-9.39s-8.78,4.2-8.78,9.28v.11c0,5.09,3.75,9.34,8.89,9.34C799.74,393,803.11,388.8,803.11,383.77Z" transform="translate(-309.72 -357.4)"/><path d="M816.53,369h6.74v6.57c1.82-4.42,5.19-7.35,10.33-7.13v7.07h-.39c-5.91,0-9.94,3.82-9.94,11.55v11.1h-6.74Z" transform="translate(-309.72 -357.4)"/><path d="M840.78,390.13V374.77h-3.7V369h3.7v-8h6.68v8h7.84v5.74h-7.84v14.31c0,2.59,1.33,3.64,3.59,3.64a9.14,9.14,0,0,0,4.14-1v5.47a11.53,11.53,0,0,1-6,1.49C844.26,398.69,840.78,396.53,840.78,390.13Z" transform="translate(-309.72 -357.4)"/><path d="M861.21,403.66l2.49-5a19,19,0,0,0,10.38,3c6,0,9.23-3,9.23-8.89v-2.21c-2.43,3.09-5.47,5.3-10.28,5.3-6.9,0-13.25-5.08-13.25-13.64v-.11c0-8.62,6.4-13.7,13.25-13.7a12.56,12.56,0,0,1,10.22,5V369h6.69v23.2c0,4.86-1.22,8.5-3.71,11-2.65,2.65-6.68,3.92-12,3.92A24.63,24.63,0,0,1,861.21,403.66Zm22.15-21.49v-.11c0-4.69-3.92-7.95-8.56-7.95s-8.29,3.15-8.29,7.95v.11a8,8,0,0,0,8.29,8C879.44,390.18,883.36,386.92,883.36,382.17Z" transform="translate(-309.72 -357.4)"/><path d="M896.34,389.8v-.11c0-6.36,5-9.4,12.1-9.4a24,24,0,0,1,7.84,1.22v-.72c0-4.2-2.54-6.35-7.24-6.35a20.19,20.19,0,0,0-8.34,1.82L898.88,371a26,26,0,0,1,11-2.38c4.36,0,7.57,1.11,9.66,3.26s3.15,5.19,3.15,9v17.29h-6.51v-3.64a11.88,11.88,0,0,1-9.51,4.25C901.26,398.8,896.34,395.71,896.34,389.8Zm20-2.1v-2a18.6,18.6,0,0,0-6.63-1.16c-4.36,0-6.85,1.77-6.85,4.86v.11c0,2.82,2.43,4.42,5.69,4.42C913,393.94,916.39,391.45,916.39,387.7Z" transform="translate(-309.72 -357.4)"/><path d="M930.69,403.66l2.49-5a19,19,0,0,0,10.38,3c6,0,9.23-3,9.23-8.89v-2.21c-2.43,3.09-5.47,5.3-10.27,5.3-6.91,0-13.26-5.08-13.26-13.64v-.11c0-8.62,6.41-13.7,13.26-13.7a12.56,12.56,0,0,1,10.21,5V369h6.69v23.2c0,4.86-1.22,8.5-3.7,11-2.65,2.65-6.69,3.92-12,3.92A24.65,24.65,0,0,1,930.69,403.66Zm22.15-21.49v-.11c0-4.69-3.92-7.95-8.56-7.95s-8.28,3.15-8.28,7.95v.11a7.94,7.94,0,0,0,8.28,8C948.92,390.18,952.84,386.92,952.84,382.17Z" transform="translate(-309.72 -357.4)"/><path d="M966.21,383.72v-.11c0-8.4,5.91-15.19,14.25-15.19,9.28,0,14,7.29,14,15.69,0,.6-.06,1.21-.11,1.87H972.89c.72,4.81,4,7.41,8.4,7.41,3.31,0,5.52-1.22,7.9-3.48l3.92,3.48a14.84,14.84,0,0,1-11.93,5.46C972.78,398.85,966.21,392.72,966.21,383.72Zm21.6-2.15c-.44-4.26-3-7.68-7.4-7.68-4.15,0-7,3.09-7.57,7.68Z" transform="translate(-309.72 -357.4)"/><path d="M1018.51,359.53h17.35c4.47,0,7.84,1.16,10.11,3.42a8.76,8.76,0,0,1,2.59,6.41v.11c0,4.69-2.65,7.12-5.52,8.62,4.58,1.6,7.68,4.08,7.68,9.39v.11c0,6.9-5.69,10.6-14.31,10.6h-17.9Zm23.26,10.93c0-3.09-2.38-4.91-6.8-4.91h-9.77v10.27h9.28c4.42,0,7.29-1.71,7.29-5.25Zm2.15,16.3c0-3.32-2.59-5.19-8-5.19H1025.2v10.6h11.26c4.65,0,7.46-1.77,7.46-5.3Z" transform="translate(-309.72 -357.4)"/><path d="M1057.56,369h6.74v6.57c1.82-4.42,5.19-7.35,10.33-7.13v7.07h-.39c-5.91,0-9.94,3.82-9.94,11.55v11.1h-6.74Z" transform="translate(-309.72 -357.4)"/><path d="M1077.83,383.77v-.11a15.24,15.24,0,0,1,15.58-15.24c9,0,15.52,6.79,15.52,15.13v.11a15.28,15.28,0,0,1-15.63,15.19A15.09,15.09,0,0,1,1077.83,383.77Zm24.42,0v-.11c0-5.13-3.7-9.39-9-9.39s-8.78,4.2-8.78,9.28v.11c0,5.09,3.75,9.34,8.89,9.34C1098.88,393,1102.25,388.8,1102.25,383.77Z" transform="translate(-309.72 -357.4)"/><path d="M1115.67,357.87h6.74V382L1134.5,369h8.12L1131,380.9l12,17.29h-7.84l-8.62-12.65-4.14,4.31v8.34h-6.74Z" transform="translate(-309.72 -357.4)"/><path d="M1144.89,383.72v-.11c0-8.4,5.91-15.19,14.25-15.19,9.28,0,14,7.29,14,15.69,0,.6,0,1.21-.11,1.87h-21.43c.72,4.81,4,7.41,8.4,7.41,3.31,0,5.52-1.22,7.89-3.48l3.93,3.48a14.85,14.85,0,0,1-11.93,5.46C1151.46,398.85,1144.89,392.72,1144.89,383.72Zm21.59-2.15c-.44-4.26-3-7.68-7.4-7.68-4.14,0-7,3.09-7.57,7.68Z" transform="translate(-309.72 -357.4)"/><path d="M1179.79,369h6.74v6.57c1.82-4.42,5.19-7.35,10.33-7.13v7.07h-.39c-5.91,0-9.94,3.82-9.94,11.55v11.1h-6.74Z" transform="translate(-309.72 -357.4)"/><path d="M1220,359.53h17.35c4.47,0,7.84,1.16,10.1,3.42a8.72,8.72,0,0,1,2.6,6.41v.11c0,4.69-2.65,7.12-5.52,8.62,4.58,1.6,7.68,4.08,7.68,9.39v.11c0,6.9-5.69,10.6-14.31,10.6H1220Zm23.26,10.93c0-3.09-2.38-4.91-6.8-4.91h-9.77v10.27H1236c4.42,0,7.3-1.71,7.3-5.25Zm2.15,16.3c0-3.32-2.6-5.19-8-5.19h-10.77v10.6H1238c4.64,0,7.46-1.77,7.46-5.3Z" transform="translate(-309.72 -357.4)"/><path d="M1259.05,369h6.74v6.57c1.82-4.42,5.19-7.35,10.33-7.13v7.07h-.39c-5.91,0-9.94,3.82-9.94,11.55v11.1h-6.74Z" transform="translate(-309.72 -357.4)"/><path d="M1282,358.2h7.18v6.35H1282Zm.22,10.83H1289v29.16h-6.74Z" transform="translate(-309.72 -357.4)"/><path d="M1295.34,394.38l3-4.53a16.48,16.48,0,0,0,9.56,3.59c2.87,0,4.53-1.21,4.53-3.15v-.11c0-2.21-3.1-3-6.52-4.08-4.25-1.16-9.12-3-9.12-8.51v-.11c0-5.58,4.59-9,10.39-9a20.13,20.13,0,0,1,10.72,3.31l-2.66,4.75a16.92,16.92,0,0,0-8.23-2.76c-2.59,0-4.08,1.27-4.08,2.87v.12c0,2.09,3.14,3.09,6.57,4.14,4.2,1.32,9.06,3.26,9.06,8.5v.12c0,6.13-4.75,9.16-10.83,9.16A20.11,20.11,0,0,1,1295.34,394.38Z" transform="translate(-309.72 -357.4)"/><path d="M1332.07,393.66v4.53h-6.74V357.87h6.74v16c2.15-3,5.14-5.47,9.94-5.47,6.85,0,13.53,5.41,13.53,15.13v.11c0,9.73-6.62,15.14-13.53,15.14A11.9,11.9,0,0,1,1332.07,393.66Zm16.68-10v-.11c0-5.63-3.87-9.33-8.34-9.33s-8.51,3.76-8.51,9.33v.11c0,5.58,3.93,9.34,8.51,9.34S1348.75,389.41,1348.75,383.66Z" transform="translate(-309.72 -357.4)"/><path d="M1360.46,389.8v-.11c0-6.36,5-9.4,12.09-9.4a24.09,24.09,0,0,1,7.85,1.22v-.72c0-4.2-2.54-6.35-7.24-6.35a20.19,20.19,0,0,0-8.34,1.82L1363,371a26,26,0,0,1,11-2.38c4.36,0,7.56,1.11,9.66,3.26s3.15,5.19,3.15,9v17.29h-6.52v-3.64a11.86,11.86,0,0,1-9.5,4.25C1365.37,398.8,1360.46,395.71,1360.46,389.8Zm20-2.1v-2a18.6,18.6,0,0,0-6.63-1.16c-4.36,0-6.85,1.77-6.85,4.86v.11c0,2.82,2.43,4.42,5.69,4.42C1377.14,393.94,1380.51,391.45,1380.51,387.7Z" transform="translate(-309.72 -357.4)"/><path d="M1394.81,369h6.74v4.47c1.93-2.71,4.53-5.08,9.12-5.08,6.62,0,10.38,4.36,10.38,11.16v18.61h-6.68V381.62c0-4.58-2.27-7.12-6.24-7.12s-6.58,2.65-6.58,7.23v16.46h-6.74Z" transform="translate(-309.72 -357.4)"/><path d="M1427.51,383.72v-.11c0-8.4,5.91-15.19,14.25-15.19,9.28,0,14,7.29,14,15.69,0,.6-.06,1.21-.11,1.87h-21.44c.72,4.81,4,7.41,8.4,7.41,3.31,0,5.52-1.22,7.9-3.48l3.92,3.48a14.84,14.84,0,0,1-11.93,5.46C1434.08,398.85,1427.51,392.72,1427.51,383.72Zm21.6-2.15c-.44-4.26-3-7.68-7.4-7.68-4.15,0-7,3.09-7.57,7.68Z" transform="translate(-309.72 -357.4)"/></svg>