<svg width="121" height="39" viewBox="0 0 121 39" fill="none" xmlns="http://www.w3.org/2000/svg">
<g clip-path="url(#clip0_2580_2880)">
<path d="M36.7734 32.2566L36.7442 18.558C36.7438 18.2388 36.6771 17.9232 36.5484 17.6307C36.4196 17.3382 36.2316 17.0752 35.9959 16.8582L19.3599 1.5054C18.9263 1.10464 18.3559 0.881836 17.7636 0.881836C17.1713 0.881836 16.6009 1.10464 16.1673 1.5054L1.27232 15.2828C1.03787 15.5005 0.850942 15.7638 0.72313 16.0562C0.595317 16.3486 0.529345 16.6639 0.529302 16.9827L0.503176 32.2576C0.502764 32.5636 0.563083 32.8667 0.680684 33.1495C0.798285 33.4323 0.970863 33.6894 1.18855 33.9059C1.40624 34.1225 1.66478 34.2943 1.94938 34.4116C2.23398 34.5289 2.53907 34.5893 2.8472 34.5895H14.2193V21.936L23.0531 16.6724V34.5895H34.4284C34.7367 34.5895 35.042 34.5291 35.3267 34.4118C35.6115 34.2945 35.8702 34.1226 36.0881 33.9059C36.3059 33.6893 36.4785 33.432 36.5961 33.149C36.7137 32.866 36.774 32.5627 36.7734 32.2566Z" fill="white"/>
<path d="M53.3646 7.49023V12.4643H47.595V7.49023H44.6553V20.1033H47.595V14.9321H53.3646V20.1033H56.3043V7.49023H53.3646Z" fill="white"/>
<path d="M68.4976 10.4092V20.104H65.8119V18.95C65.4421 19.3669 64.9833 19.6966 64.469 19.9151C63.9351 20.1391 63.3608 20.2521 62.7812 20.2472C61.4986 20.2472 60.4825 19.8806 59.7329 19.1472C58.9832 18.4138 58.6084 17.3276 58.6084 15.8886V10.4092H61.4384V15.4735C61.4384 17.035 62.0978 17.8161 63.4166 17.8168C64.0938 17.8168 64.6383 17.5975 65.05 17.1588C65.4618 16.7202 65.6673 16.0685 65.6666 15.2037V10.4092H68.4976Z" fill="white"/>
<path d="M79.5344 11.3463C80.2785 12.0672 80.6505 13.1364 80.6505 14.554V20.104H77.8195V14.9868C77.8195 14.2174 77.6502 13.6435 77.3116 13.2651C76.973 12.8867 76.4833 12.6978 75.8423 12.6985C75.1275 12.6985 74.559 12.9174 74.1368 13.3554C73.7146 13.7933 73.5028 14.445 73.5014 15.3105V20.104H70.6746V10.4092H73.3781V11.5445C73.7656 11.1282 74.2434 10.8049 74.7753 10.5991C75.359 10.3719 75.9814 10.2588 76.6083 10.2659C77.8178 10.2659 78.7931 10.6261 79.5344 11.3463Z" fill="white"/>
<path d="M89.0558 19.6354C88.7474 19.8534 88.3992 20.0096 88.0306 20.0952C87.6123 20.1988 87.1826 20.2504 86.7515 20.2487C85.5908 20.2487 84.6924 19.9544 84.0563 19.3656C83.4202 18.7768 83.1029 17.912 83.1043 16.7712V12.7882H81.5984V10.6265H83.1043V8.26562H85.9343V10.6265H88.3661V12.7882H85.9343V16.7317C85.9343 17.1399 86.0388 17.4551 86.2478 17.6772C86.4568 17.8992 86.7564 18.0106 87.1465 18.0113C87.5578 18.0228 87.9608 17.8954 88.2898 17.6502L89.0558 19.6354Z" fill="white"/>
<path d="M92.7754 12.9326C92.3322 13.3084 92.0473 13.8359 91.977 14.4104H96.7842C96.7098 13.8396 96.425 13.3164 95.9848 12.942C95.5382 12.5714 94.9707 12.3758 94.389 12.3919C93.8025 12.3735 93.229 12.5654 92.7734 12.9326M99.3968 16.0459H92.0115C92.1284 16.6232 92.4654 17.1334 92.9521 17.4698C93.4474 17.8157 94.0643 17.9886 94.8028 17.9886C95.2637 17.9968 95.7221 17.9205 96.1551 17.7634C96.5657 17.6025 96.939 17.3603 97.2524 17.0515L98.7635 18.6808C97.8439 19.7255 96.501 20.2479 94.7349 20.2479C93.6348 20.2479 92.6594 20.0344 91.8088 19.6076C90.998 19.2145 90.3179 18.5986 89.8493 17.833C89.3834 17.0541 89.1447 16.162 89.1596 15.2562C89.1469 14.3549 89.3822 13.4672 89.8399 12.6888C90.2869 11.9343 90.9359 11.3179 91.7147 10.9079C92.5258 10.4918 93.4247 10.2723 94.3377 10.2677C95.2506 10.263 96.1517 10.4731 96.9671 10.881C97.7322 11.2806 98.3653 11.8905 98.7907 12.6379C99.2331 13.3989 99.4539 14.2848 99.4533 15.2956C99.4533 15.3323 99.4351 15.5845 99.3989 16.0522" fill="white"/>
<path d="M104.959 10.6267C105.59 10.3756 106.265 10.2528 106.945 10.2655V12.86C106.63 12.8358 106.419 12.8237 106.309 12.8237C105.498 12.8237 104.863 13.0488 104.404 13.4992C103.945 13.9496 103.715 14.6256 103.714 15.527V20.1036H100.883V10.4098H103.587V11.6894C103.934 11.2143 104.409 10.846 104.957 10.6267" fill="white"/>
<path d="M54.4888 28.9004H56.2299V33.8194C55.5793 34.3481 54.835 34.7514 54.0353 35.0087C53.1927 35.2864 52.3104 35.4266 51.4227 35.4238C50.2145 35.4422 49.0216 35.1536 47.9573 34.5853C46.9534 34.0502 46.1157 33.2528 45.5349 32.2794C44.9582 31.2699 44.655 30.129 44.655 28.9684C44.655 27.8077 44.9582 26.6669 45.5349 25.6574C46.1143 24.6796 46.9558 23.8809 47.9657 23.3504C49.0003 22.797 50.1648 22.5202 51.4592 22.5202C52.4048 22.5074 53.3439 22.6754 54.2255 23.0152C55.0334 23.3315 55.7568 23.8287 56.3396 24.4681L55.2151 25.5847C54.1993 24.6127 52.97 24.1263 51.5272 24.1256C50.6204 24.1113 49.7247 24.3255 48.924 24.7483C48.174 25.1467 47.5503 25.7442 47.1223 26.4741C46.694 27.2338 46.4692 28.0899 46.4692 28.9606C46.4692 29.8313 46.694 30.6874 47.1223 31.4471C47.5519 32.1806 48.1767 32.7824 48.9282 33.1864C49.7214 33.613 50.6117 33.8299 51.5136 33.8163C52.6506 33.8163 53.6423 33.5462 54.4888 33.0058V28.9004Z" fill="white"/>
<path d="M63.3624 33.6128C63.8428 33.3221 64.2128 32.8817 64.4148 32.3602V31.0267H61.729C60.2534 31.0267 59.5156 31.5193 59.5156 32.5045C59.5077 32.7251 59.5548 32.9443 59.6529 33.1424C59.751 33.3405 59.897 33.5114 60.0779 33.6398C60.4527 33.9166 60.9728 34.0549 61.6381 34.0549C62.2431 34.0707 62.8404 33.9179 63.3624 33.6139M65.0951 26.6131C65.8037 27.2613 66.1579 28.2279 66.1579 29.5126V35.2795H64.5057V34.0176C64.203 34.4727 63.7698 34.8274 63.2621 35.0356C62.6563 35.2828 62.0055 35.4026 61.3507 35.3874C60.2743 35.3874 59.4125 35.129 58.7653 34.6122C58.4534 34.3728 58.2028 34.0636 58.0341 33.7097C57.8654 33.3559 57.7833 32.9675 57.7945 32.5761C57.7945 31.7355 58.1028 31.0599 58.7193 30.5493C59.3359 30.0388 60.3162 29.7835 61.6601 29.7835H64.4179V29.441C64.4179 28.6959 64.2002 28.1255 63.7648 27.7297C63.3293 27.334 62.688 27.1358 61.8409 27.1351C61.2717 27.1344 60.7064 27.2287 60.1688 27.4142C59.6666 27.5769 59.199 27.8302 58.7893 28.1614L58.0578 26.8642C58.5862 26.4513 59.1892 26.1424 59.8344 25.9541C60.5462 25.7424 61.2859 25.6374 62.029 25.6428C63.359 25.6428 64.3782 25.9672 65.0868 26.6162" fill="white"/>
<path d="M70.2211 21.9092H68.479V35.2788H70.2211V21.9092Z" fill="white"/>
<path d="M74.3766 21.9092H72.6345V35.2788H74.3766V21.9092Z" fill="white"/>
<path d="M82.5654 33.4506C83.0535 33.1692 83.4518 32.7571 83.715 32.2614C83.9899 31.7161 84.133 31.1147 84.133 30.5049C84.133 29.8952 83.9899 29.2938 83.715 28.7485C83.453 28.2541 83.0542 27.8443 82.5654 27.5675C82.0547 27.2957 81.4843 27.1535 80.9049 27.1535C80.3254 27.1535 79.755 27.2957 79.2443 27.5675C78.7537 27.8456 78.3514 28.2548 78.0833 28.7485C77.803 29.2922 77.6568 29.8942 77.6568 30.5049C77.6568 31.1157 77.803 31.7177 78.0833 32.2614C78.3526 32.7564 78.7544 33.1679 79.2443 33.4506C79.7531 33.7282 80.3243 33.8738 80.9049 33.8738C81.4854 33.8738 82.0566 33.7282 82.5654 33.4506ZM78.3288 34.7572C77.5827 34.3527 76.9639 33.7511 76.5408 33.0189C76.1183 32.2474 75.897 31.3832 75.897 30.5049C75.897 29.6267 76.1183 28.7625 76.5408 27.9909C76.9641 27.2616 77.5846 26.6645 78.332 26.2672C79.1267 25.8581 80.0087 25.6445 80.9038 25.6445C81.799 25.6445 82.681 25.8581 83.4757 26.2672C84.2176 26.6691 84.8326 27.2676 85.2522 27.9961C85.6747 28.7677 85.896 29.6319 85.896 30.5101C85.896 31.3883 85.6747 32.2526 85.2522 33.0241C84.8312 33.754 84.2168 34.3552 83.4757 34.7624C82.6826 35.1768 81.8 35.3933 80.9038 35.3933C80.0077 35.3933 79.125 35.1768 78.332 34.7624" fill="white"/>
<path d="M101.684 25.7295L98.0912 35.2801H96.4223L93.6456 28.0365L90.8334 35.2801H89.1644L85.5894 25.7295H87.2405L90.035 33.3332L92.9381 25.7295H94.4074L97.2562 33.3696L100.124 25.7295H101.684Z" fill="white"/>
<path d="M107.054 33.6128C107.535 33.3224 107.905 32.8819 108.107 32.3603V31.0267H105.421C103.945 31.0267 103.208 31.5193 103.208 32.5045C103.2 32.7251 103.247 32.9443 103.345 33.1424C103.443 33.3405 103.589 33.5114 103.77 33.6398C104.145 33.9166 104.665 34.0549 105.331 34.0549C105.936 34.0705 106.533 33.9178 107.054 33.6139M108.787 26.6131C109.494 27.2621 109.848 28.2289 109.849 29.5137V35.2805H108.198V34.0176C107.895 34.4728 107.462 34.8274 106.954 35.0356C106.348 35.2832 105.696 35.403 105.041 35.3874C103.964 35.3874 103.101 35.129 102.454 34.6122C102.142 34.3731 101.891 34.064 101.721 33.7102C101.552 33.3563 101.469 32.9677 101.48 32.5761C101.48 31.7355 101.789 31.0599 102.406 30.5494C103.023 30.0388 104.003 29.7835 105.346 29.7835H108.104V29.441C108.104 28.6959 107.886 28.1255 107.451 27.7297C107.015 27.334 106.374 27.1358 105.528 27.1351C104.958 27.1344 104.393 27.2288 103.856 27.4143C103.354 27.5767 102.886 27.83 102.477 28.1614L101.751 26.8642C102.279 26.4511 102.882 26.1421 103.527 25.9541C104.239 25.7422 104.979 25.6373 105.722 25.6428C107.053 25.6428 108.072 25.9673 108.779 26.6162" fill="white"/>
<path d="M120.5 25.7295L115.837 36.2348C115.425 37.2083 114.944 37.8928 114.394 38.2886C113.843 38.6843 113.182 38.8825 112.408 38.8832C111.942 38.8842 111.479 38.8081 111.038 38.658C110.627 38.5255 110.251 38.3007 109.941 38.0011L110.685 36.7029C110.911 36.9273 111.18 37.1051 111.476 37.2259C111.772 37.3466 112.088 37.408 112.408 37.4065C112.79 37.4194 113.165 37.3014 113.47 37.0723C113.754 36.8502 114.011 36.4697 114.241 35.9308L114.555 35.2635L110.309 25.7316H112.123L115.481 33.3716L118.801 25.7316L120.5 25.7295Z" fill="white"/>
</g>
<defs>
<clipPath id="clip0_2580_2880">
<rect width="120" height="38" fill="white" transform="translate(0.5 0.882812)"/>
</clipPath>
</defs>
</svg>
