<svg width="106" height="20" viewBox="0 0 106 20" fill="none" xmlns="http://www.w3.org/2000/svg">
<g clip-path="url(#clip0_2580_2855)">
<mask id="mask0_2580_2855" style="mask-type:luminance" maskUnits="userSpaceOnUse" x="0" y="0" width="106" height="20">
<path d="M105.249 0.485352H0.625977V19.1285H105.249V0.485352Z" fill="white"/>
</mask>
<g mask="url(#mask0_2580_2855)">
<path d="M14.9694 13.7988C15.2406 13.8525 15.5047 13.9366 15.7567 14.0495C15.8133 14.0894 15.8565 14.1453 15.8805 14.2099C15.9045 14.2745 15.9083 14.3448 15.8913 14.4115C15.5148 15.6477 15.2051 16.9028 14.9634 18.1716C14.9071 18.5337 14.7625 18.6172 14.4572 18.673C14.2041 18.7008 13.8666 18.7008 12.6856 18.7008C11.5608 18.7008 10.211 18.6173 5.17752 18.6173C3.46219 18.6173 1.99995 18.7565 1.38131 18.8162C1.18045 18.8162 1.04387 18.8162 0.979592 18.7625C0.895232 18.5397 0.778731 18.0383 0.83899 17.8712C2.04414 17.6484 2.91988 17.3122 3.06048 16.5621C3.14484 16.033 3.22921 15.2232 3.22921 12.6071V7.11425C3.22921 4.77268 3.11673 3.29848 2.97612 2.4072C2.89176 1.90586 2.6668 1.73874 0.726509 1.79445C0.670268 1.79445 0.557791 1.62734 0.642152 1.3508L0.843011 0.765902C0.871129 0.652505 0.89925 0.652503 0.955489 0.652503C2.02406 0.682345 3.12074 0.708207 4.24555 0.682344C6.01712 0.652502 7.76056 0.568945 9.08221 0.483398C9.22282 0.511251 9.33529 1.34881 9.30719 1.47813C8.30289 1.67707 7.00133 1.78451 6.83262 2.73149C6.69201 3.4835 6.63174 4.62545 6.66388 7.54995L6.69201 11.0315C6.72011 15.0422 6.74825 15.9355 6.80448 16.4627C6.86072 16.9899 6.94509 17.159 7.39501 17.2963C7.84493 17.4335 8.23861 17.4952 9.50403 17.4952C11.4443 17.4952 13.1877 17.2445 14.0313 15.7942C14.2563 15.4341 14.4532 14.8771 14.65 13.9838C14.7062 13.8187 14.7625 13.7849 14.9312 13.7849L14.9694 13.7988Z" fill="white"/>
<path d="M24.022 7.44824C24.9218 7.44824 26.0747 7.81034 26.7215 8.39524C27.3662 9.02584 27.8318 9.81358 28.0713 10.6791C28.5493 10.5956 28.7462 10.5677 28.8305 10.6791C28.876 10.7139 28.9088 10.7625 28.924 10.8174C28.9392 10.8723 28.936 10.9306 28.9149 10.9835C28.8305 11.262 28.5493 11.8211 28.1838 11.9603C27.1795 12.3224 22.9835 13.1023 21.915 13.3808C21.8005 13.4086 21.7141 13.4644 21.7141 13.8543C21.7164 14.2448 21.7972 14.6309 21.9516 14.9901C22.1061 15.3494 22.3313 15.6746 22.614 15.9468C22.8966 16.219 23.2312 16.4327 23.5981 16.5756C23.965 16.7184 24.357 16.7875 24.7511 16.7788C25.9939 16.7792 27.1903 16.3112 28.0974 15.4697C28.3505 15.2708 28.716 15.2708 28.716 15.4419C28.6598 16.3331 28.5473 16.5281 28.3143 16.6972C26.852 17.8352 25.6429 18.4201 24.6587 18.7265C24.2457 18.8324 23.8197 18.88 23.3933 18.8677C21.0874 18.8677 19.822 17.674 19.4002 17.1687C18.6264 16.2013 18.2021 15.005 18.1951 13.7707C18.1951 11.3197 19.5448 9.47948 21.4851 8.31168C22.3589 7.78051 23.3411 7.44824 23.9878 7.44824H24.022ZM24.9499 11.1805C24.9499 9.87141 24.1907 8.64591 23.319 8.64591C23.075 8.66654 22.8416 8.75324 22.6441 8.89658C22.1098 9.29448 21.5474 10.9576 21.6398 12.3503C23.1302 12.0737 24.03 11.8788 24.6225 11.7654C24.8475 11.6818 24.958 11.5167 24.958 11.2083V11.1805H24.9499Z" fill="white"/>
<path d="M36.7039 18.7887C34.7618 18.6773 33.0766 18.6773 31.305 18.7051C31.1363 18.7051 31.0801 18.6773 31.0238 18.538C30.9676 18.3988 30.8832 17.8139 30.9676 17.6726C32.0361 17.5632 32.5985 17.2747 32.7753 16.1149C33.0304 14.1911 33.0565 11.937 33.177 9.31891L33.4301 2.94073C33.4562 1.91019 32.8396 1.71522 31.1524 1.49241C31.2102 1.24763 31.305 1.0129 31.4336 0.796098C31.4898 0.712541 31.5179 0.597153 31.6846 0.597153C32.0221 0.597153 33.7936 0.652857 34.6372 0.652857C35.3423 0.652857 36.0712 0.626994 36.4451 0.626994C36.5259 1.14895 36.6871 1.65553 36.923 2.12903C38.1605 4.74714 41.0025 9.53974 42.9127 12.8721C43.0251 13.071 43.1678 13.1247 43.3142 12.8462C45.0837 9.42038 47.3897 5.02171 48.6834 2.10317C48.8446 1.6344 48.9485 1.14815 48.9926 0.654849C51.1859 0.654849 53.6345 0.571289 54.3093 0.571289C54.3355 0.914312 54.3355 1.2588 54.3093 1.60182C52.8171 1.76894 52.5017 1.9082 52.4795 2.71592C52.4233 3.88571 52.4233 5.44544 52.5095 9.03641C52.564 11.5729 52.5095 14.581 52.564 15.2773C52.7326 17.1713 52.7043 17.2827 54.4197 17.6169C54.5061 17.6169 54.5603 18.0904 54.5603 18.3411C54.5603 18.5082 54.5061 18.5659 54.3937 18.5659H51.443C50.712 18.5659 48.6029 18.6196 47.426 18.7648V18.0964C47.426 17.8736 47.4802 17.7343 47.6266 17.6985C48.7497 17.42 48.8059 17.3642 48.9203 16.3616C49.0027 15.6394 48.9745 14.0777 49.1996 4.41291C49.1996 4.10654 48.9745 4.24581 48.89 4.44078C48.5807 4.88641 45.8531 10.7652 44.616 13.4092C43.2681 16.278 42.7902 17.4498 42.6496 17.6985C42.3383 18.3948 42.2275 18.6176 41.8621 18.6176C41.7497 18.6176 41.609 18.534 41.4946 18.3112C41.3259 18.0884 40.6529 16.7197 39.8876 15.1082C37.3568 9.81628 35.5833 6.41828 34.5447 4.19011C34.5168 6.83608 34.4865 10.5961 34.5447 13.5405C34.5709 15.2097 34.6012 16.3536 34.6834 16.855C34.8543 17.3563 35.1636 17.5791 36.1759 17.7462C36.4569 17.8019 36.6238 17.8576 36.6538 17.969L36.71 18.7768L36.7039 18.7887Z" fill="white"/>
<path d="M58.3278 9.81571C58.3278 9.67644 58.1571 9.59288 57.0604 9.34221C56.9479 9.31438 56.8938 9.26064 57.0041 8.98014C57.1428 8.56234 57.1728 8.50864 57.3154 8.47881C58.3197 8.17241 60.2379 7.64324 61.3929 7.25331C61.4727 7.22044 61.5575 7.20161 61.644 7.19758C61.7285 7.19758 61.7564 7.28114 61.7285 7.53181C61.6137 9.37008 61.4471 13.3012 61.4471 14.7436C61.4471 15.9372 61.4192 16.5003 61.4754 16.9161C61.5316 17.3319 61.6137 17.4492 61.9795 17.4194C62.2777 17.3717 62.5792 17.3438 62.8815 17.3358C62.9656 17.3358 63.1063 17.5029 63.1063 17.6143L62.9939 18.4499C62.9939 18.6727 62.9114 18.6727 62.7125 18.6727C61.644 18.6727 60.5452 18.617 59.4807 18.617C58.6808 18.6236 57.8818 18.6794 57.0886 18.7841C57.0405 18.7897 56.9917 18.779 56.9506 18.7537C56.9092 18.7284 56.8779 18.6901 56.8615 18.6449C56.8379 18.4229 56.8298 18.1995 56.8376 17.9764C56.8376 17.865 56.9197 17.8352 57.0385 17.8093C57.8256 17.6422 58.2436 17.5587 58.3018 16.7788C58.3338 16.3332 58.4725 14.4412 58.4163 12.6845L58.3338 9.81571H58.3278ZM60.6337 1.35059C61.6137 1.35059 62.1522 2.12846 62.1522 2.96205C62.1596 3.19729 62.1195 3.43163 62.0337 3.65112C61.9479 3.87061 61.8183 4.07078 61.6528 4.23968C61.4875 4.40861 61.2893 4.54281 61.0705 4.63434C60.8515 4.72584 60.6162 4.77284 60.3786 4.77244C59.5931 4.77244 58.8602 4.13384 58.8602 3.13114C58.8534 2.90003 58.8935 2.66994 58.9779 2.45443C59.0628 2.23893 59.19 2.04239 59.3525 1.87641C59.5151 1.71044 59.7092 1.5784 59.9243 1.48809C60.139 1.39778 60.3702 1.35102 60.6034 1.35059H60.6337Z" fill="white"/>
<path d="M71.034 7.44824C71.9376 7.44824 73.0885 7.81034 73.7353 8.39524C74.3801 9.02618 74.8463 9.81374 75.0872 10.6791C75.5631 10.5956 75.76 10.5677 75.8444 10.6791C75.8892 10.7145 75.9212 10.7631 75.9366 10.8177C75.9518 10.8724 75.9491 10.9304 75.9289 10.9835C75.8444 11.262 75.5631 11.8211 75.1956 11.9603C74.1914 12.3224 69.9954 13.1023 68.9249 13.3808C68.8165 13.4086 68.724 13.4644 68.724 13.8543C68.7266 14.245 68.8081 14.6312 68.9629 14.9904C69.118 15.3497 69.3435 15.6749 69.6265 15.947C69.9092 16.2192 70.2441 16.4329 70.6113 16.5756C70.9784 16.7184 71.3705 16.7875 71.7649 16.7788C73.0064 16.7788 74.2014 16.3107 75.1071 15.4697C75.3622 15.2708 75.728 15.2708 75.728 15.4419C75.6698 16.3331 75.559 16.5281 75.3262 16.6972C73.8639 17.8352 72.6547 18.4201 71.6687 18.7265C71.2571 18.8324 70.8324 18.88 70.4073 18.8677C68.0993 18.8677 66.8339 17.674 66.4119 17.1687C65.6382 16.2013 65.2139 15.005 65.2068 13.7707C65.2068 11.3197 66.5566 9.47948 68.4991 8.31168C69.3708 7.78051 70.3528 7.44824 71.0037 7.44824H71.034ZM71.9618 11.1805C71.9618 9.87141 71.2026 8.64591 70.335 8.64591C70.0906 8.66561 69.8571 8.75241 69.6599 8.89658C69.1217 9.29448 68.5614 10.9576 68.6435 12.3503C70.1361 12.0737 71.0339 11.8788 71.6263 11.7654C71.8534 11.6818 71.9618 11.5167 71.9618 11.2083V11.1805Z" fill="white"/>
<path d="M81.9729 7.36523C82.1435 7.36523 82.1977 7.47663 82.2542 7.83873C82.2858 8.48853 82.2771 9.13963 82.2279 9.78837C82.1677 11.2089 82.1135 13.2998 82.0853 14.9968C82.0573 16.7873 83.5196 17.028 83.9975 17.028C84.5992 17.0188 85.1848 16.8355 85.6829 16.5008C85.7922 16.4544 85.8854 16.3769 85.9504 16.2781C86.0154 16.1793 86.0497 16.0637 86.0483 15.9457C86.1732 14.8168 86.2307 13.6815 86.221 12.5458C86.221 10.3753 86.1628 9.84607 86.0783 9.62127C85.9639 9.34273 85.7128 9.26117 84.8731 9.06423C84.6722 9.0085 84.5639 8.9548 84.5097 8.81353C84.4454 8.65437 84.4168 8.4834 84.4252 8.3122C84.4252 8.22667 84.4252 8.17293 84.5339 8.1451C85.9093 7.89443 87.3016 7.7448 88.6996 7.69747C89.1758 7.69747 89.3444 7.81087 89.3743 8.03567C89.4272 8.4693 89.445 8.90633 89.4289 9.34273C89.4289 10.0669 89.3161 11.2089 89.3161 12.9357V15.323C89.3111 15.9013 89.3488 16.4791 89.4289 17.0519C89.4588 17.1891 89.5672 17.2727 89.6557 17.2508C89.7943 17.221 90.459 17.0519 90.917 16.9444C91.0315 16.9146 91.2283 17.1673 91.1984 17.3045C91.0315 18.1699 90.917 18.2256 90.7202 18.2535C89.405 18.4175 88.1069 18.6972 86.8416 19.0891C86.5605 19.1448 86.4219 19.1706 86.1951 18.922C86.1281 18.8628 86.0753 18.7896 86.0403 18.7077C86.0056 18.6258 85.9898 18.5372 85.9942 18.4485L86.0483 17.3045C85.6283 17.5293 84.787 18.0585 83.9975 18.4783C83.3227 18.8086 82.8728 18.9518 82.3104 18.9518C81.2116 18.9518 80.0586 18.6434 79.4138 17.585C79.1204 17.0175 78.982 16.3838 79.0123 15.7468C79.0123 13.9364 79.0985 12.0404 79.0403 10.23C79.0123 9.84407 79.0123 9.64713 78.0841 9.2353C77.9455 9.15177 77.8331 9.03637 77.7187 8.62257C77.6884 8.42363 77.7187 8.34403 78.03 8.2605C78.6465 8.09337 81.6292 7.3692 81.9389 7.3692L81.9729 7.36523Z" fill="white"/>
<path d="M92.9991 8.06181C92.9991 7.92254 93.0813 7.81114 93.1657 7.81114C93.8126 7.83897 94.4331 7.83897 95.8372 7.83897C96.6247 7.83897 97.7793 7.78127 98.9044 7.78127C98.9798 8.06651 98.969 8.36731 98.8741 8.64671C98.1431 8.81381 98.0587 8.95507 98.3397 9.39871C98.6772 9.95377 99.071 10.5685 99.7178 11.4876C100.027 11.2091 101.377 9.51011 101.347 9.17591C101.347 8.97694 101.122 8.84167 100.168 8.59297C100.231 8.30914 100.335 8.03577 100.477 7.78127C100.983 7.78127 102.136 7.75741 103.01 7.72757C103.883 7.69774 104.617 7.67188 105.089 7.67188C105.257 7.67188 105.258 7.69774 105.227 7.87081C105.089 8.48357 105.026 8.56714 104.825 8.62284C103.982 8.78994 103.506 9.15204 102.777 9.81651C101.572 10.9306 101.06 11.5712 100.384 12.2396C100.3 12.3232 100.355 12.4883 100.497 12.7131C100.975 13.5766 102.07 15.2994 102.662 16.139C103.365 17.1138 103.562 17.3645 104.94 17.6987C105.219 17.7544 105.279 17.8658 105.219 18.0329C105.138 18.2161 105.045 18.3936 104.94 18.5641C104.884 18.7014 104.8 18.7273 104.603 18.7273C104.096 18.7014 103.14 18.6178 101.931 18.6178C100.525 18.6457 99.0912 18.7273 98.8118 18.7273C98.6378 18.4403 98.5029 18.132 98.41 17.8101C98.7758 17.643 99.4146 17.45 99.3924 17.1695C99.3924 16.7219 98.3538 14.9115 97.9863 14.4121C97.5845 14.81 96.0741 16.698 96.0741 17.1974C96.1024 17.3645 96.2992 17.4739 97.1709 17.6689C97.2553 17.7266 97.2271 18.4209 97.1709 18.5343C97.1086 18.5898 97.0275 18.6197 96.9437 18.6178C94.8107 18.6178 94.1057 18.6735 93.4047 18.7273C93.2923 18.7273 93.2341 18.7273 93.1799 18.6457C93.1257 18.5641 93.0372 18.3672 92.9268 18.1424C92.9063 18.1079 92.8928 18.0698 92.8871 18.0302C92.8817 17.9906 92.884 17.9503 92.8945 17.9116C92.9046 17.8729 92.9224 17.8367 92.947 17.8049C92.9715 17.7732 93.0022 17.7465 93.0372 17.7266C93.4589 17.3903 93.5736 17.2809 94.0215 16.891C94.7263 16.2504 96.1024 14.8856 97.2352 13.688C97.3476 13.5487 97.3778 13.4094 97.2352 13.1588C95.2385 9.95377 94.9013 9.20177 93.2421 8.64671C93.0732 8.59297 92.9911 8.53331 92.9911 8.34031V8.06181H92.9991Z" fill="white"/>
</g>
</g>
<defs>
<clipPath id="clip0_2580_2855">
<rect width="105" height="19" fill="white" transform="translate(0.5 0.382812)"/>
</clipPath>
</defs>
</svg>
