<svg width="124" height="21" viewBox="0 0 124 21" fill="none" xmlns="http://www.w3.org/2000/svg">
<g clip-path="url(#clip0_1160_1279)">
<path d="M14.5495 3.12262C14.074 3.38677 13.9029 3.82073 14.1311 4.21696C14.3593 4.61319 14.8157 4.66979 15.2912 4.40564C15.7667 4.14149 16.0519 3.55658 15.8618 3.21696C15.6716 2.8962 15.044 2.8396 14.5495 3.12262ZM14.4734 5.19809C14.055 5.4245 13.9219 5.78299 14.1121 6.14148C14.3023 6.48111 14.7016 6.53771 15.101 6.31129C15.5004 6.08488 15.7477 5.59431 15.5955 5.29243C15.4434 4.99054 14.8918 4.97167 14.4734 5.19809ZM14.3213 2.68866C13.8458 2.95281 13.3894 2.8962 13.1611 2.49998C12.9329 2.08488 13.1041 1.68865 13.5796 1.40563C14.055 1.12261 14.6826 1.16035 14.8918 1.51884C15.082 1.85847 14.7967 2.42451 14.3213 2.68866ZM12.4575 1.72639C12.0391 1.95281 11.6587 1.8962 11.4685 1.55658C11.2783 1.21696 11.4115 0.858467 11.8299 0.613184C12.2483 0.386769 12.7998 0.405637 12.9519 0.707524C13.1231 1.00941 12.8759 1.48111 12.4575 1.72639ZM13.6746 20.5566C11.4875 20.5566 9.35747 19.8019 7.64581 18.4245C5.95317 17.0471 4.79305 15.1226 4.35563 12.9905C3.9182 10.8585 4.26053 8.63205 5.28753 6.70752C6.31452 4.78299 8.00716 3.27356 10.0231 2.44337C10.5746 2.21695 11.2023 2.17922 11.7918 2.34903C12.3624 2.51884 12.8759 2.8962 13.2182 3.38677C13.5605 3.87733 13.7127 4.48111 13.6556 5.08488C13.5986 5.68865 13.3323 6.23583 12.9139 6.66979C12.6667 6.91507 12.3624 7.10375 12.0391 7.25469C11.8489 7.34903 11.6207 7.44337 11.4305 7.57545C10.8219 7.93394 10.3274 8.44337 9.98507 9.04714C9.62372 9.65092 9.43354 10.3302 9.41452 11.0283C9.3955 11.7264 9.54765 12.4245 9.87096 13.0471C10.1943 13.6698 10.6507 14.1981 11.2213 14.6132C11.7918 15.0094 12.4575 15.2736 13.1611 15.349C13.8648 15.4245 14.5685 15.3302 15.2151 15.0849C15.8618 14.8207 16.4513 14.4056 16.9078 13.8773C17.3642 13.349 17.6685 12.7075 17.8207 12.0283C17.8587 11.7453 17.8967 11.4622 17.9157 11.1792C17.9157 10.8962 17.9728 10.6132 18.0489 10.3302C18.2581 9.74526 18.6575 9.25469 19.19 8.93394C19.7225 8.61319 20.3501 8.49997 20.9587 8.59431C21.5673 8.68865 22.1378 9.00941 22.5372 9.48111C22.9366 9.95281 23.1648 10.5566 23.1648 11.1604C23.1648 13.6509 22.1569 16.0471 20.3881 17.8207C18.6004 19.5566 16.1851 20.5377 13.6746 20.5566ZM44.1802 4.04714C44.1041 4.04714 44.009 4.06602 43.9519 4.12262C43.8759 4.17922 43.8378 4.23583 43.7998 4.3113L40.5857 13.9151H40.5476L37.3335 4.3113C37.3145 4.23583 37.2575 4.16036 37.1814 4.12262C37.1053 4.06602 37.0292 4.04714 36.9532 4.04714H31.9513C31.8372 4.04714 31.7421 4.08488 31.6661 4.16035C31.59 4.23582 31.5519 4.33016 31.5519 4.44337V18.3113C31.5519 18.4245 31.59 18.5188 31.6661 18.5943C31.7421 18.6698 31.8372 18.7075 31.9513 18.7075H34.9753C35.0894 18.7075 35.1845 18.6698 35.2605 18.5943C35.3366 18.5188 35.3746 18.4245 35.3746 18.3113V9.49998C35.3746 9.48111 35.3746 9.44337 35.3937 9.4245C35.4127 9.40563 35.4127 9.38677 35.4317 9.3679C35.4507 9.34903 35.4697 9.33016 35.5078 9.33016C35.5268 9.33016 35.5648 9.3113 35.5838 9.3113C35.6219 9.3113 35.6789 9.33016 35.698 9.34903C35.736 9.3679 35.755 9.40563 35.774 9.44337L38.798 18.4434C38.817 18.5188 38.874 18.5943 38.9501 18.6321C39.0262 18.6887 39.1023 18.7075 39.1783 18.7075H41.898C41.974 18.7075 42.0691 18.6887 42.1262 18.6321C42.2023 18.5754 42.2403 18.5188 42.2783 18.4434L45.3023 9.44337C45.3213 9.40563 45.3403 9.3679 45.3783 9.34903C45.4164 9.33016 45.4544 9.3113 45.4924 9.3113C45.5495 9.3113 45.5875 9.33016 45.6256 9.3679C45.6636 9.40564 45.6826 9.46224 45.6826 9.49998V18.3113C45.6826 18.4245 45.7207 18.5188 45.7967 18.5943C45.8728 18.6698 45.9679 18.7075 46.082 18.7075H49.1059C49.22 18.7075 49.3151 18.6698 49.3912 18.5943C49.4673 18.5188 49.5053 18.4245 49.5053 18.3113V4.44337C49.5053 4.33016 49.4673 4.23582 49.3912 4.16035C49.3151 4.08488 49.22 4.04714 49.1059 4.04714H44.1802ZM67.8581 13.3868C67.8581 15.0283 68.9231 16.0283 70.1213 16.0283C70.5207 16.0283 70.901 15.9528 71.2624 15.8019C71.6237 15.6509 71.947 15.4056 72.1943 15.1226C72.2513 15.0471 72.3464 15.0094 72.4415 14.9905C72.5366 14.9717 72.6317 15.0094 72.7268 15.066L74.6096 16.4434C74.6477 16.4811 74.6857 16.5188 74.7237 16.5566C74.7427 16.5943 74.7618 16.6509 74.7808 16.7075C74.7808 16.7641 74.7808 16.8207 74.7618 16.8773C74.7427 16.9339 74.7237 16.9717 74.6857 17.0094C73.5826 18.2924 72.0421 18.9905 70.0452 18.9905H69.855C66.6789 18.9905 64.1115 16.6509 64.1115 13.5377V13.066C64.1115 9.95281 66.6789 7.61319 69.855 7.61319H70.0452C72.0421 7.61319 73.5826 8.3113 74.6857 9.59432C74.7237 9.63205 74.7427 9.68865 74.7618 9.72639C74.7808 9.78299 74.7808 9.8396 74.7808 9.87734C74.7808 9.93394 74.7618 9.99054 74.7237 10.0283C74.7047 10.066 74.6667 10.1226 74.6096 10.1415L72.7268 11.5188C72.6507 11.5754 72.5556 11.6132 72.4605 11.5943C72.3654 11.5754 72.2704 11.5377 72.2133 11.4622C71.947 11.1792 71.6427 10.9339 71.2814 10.783C70.92 10.6321 70.5397 10.5377 70.1403 10.5566C68.9421 10.5566 67.8771 11.5566 67.8771 13.1981V13.3868H67.8581ZM76.6826 4.38677C76.6826 4.27356 76.7207 4.17922 76.7967 4.10375C76.8728 4.02828 76.9679 3.99054 77.082 3.99054H83.5483C86.8384 3.99054 89.0826 5.8962 89.0826 8.9528V9.16035C89.0826 12.2358 86.8955 14.1792 83.5483 14.1792H80.5053V18.2924C80.5053 18.4056 80.4673 18.5 80.3912 18.5754C80.3151 18.6509 80.22 18.6887 80.1059 18.6887H77.082C76.9679 18.6887 76.8728 18.6509 76.7967 18.5754C76.7207 18.5 76.6826 18.4056 76.6826 18.2924V4.38677ZM82.9207 11.0471C84.2329 11.0471 85.2409 10.2547 85.2409 9.08488V9.00941C85.2409 7.8962 84.29 7.10375 83.0158 7.10375H80.5053V11.0283H82.9207V11.0471ZM51.5213 15.7453C51.5213 17.5754 53.0427 19.0094 55.2108 19.0094C56.8845 19.0094 57.7783 18.2924 58.5581 17.7075C58.5961 17.9528 58.6532 18.1792 58.7102 18.4245C58.7292 18.5 58.7863 18.5754 58.8624 18.6321C58.9384 18.6887 59.0145 18.7075 59.1096 18.7075H61.7342C61.8483 18.7075 61.9434 18.6698 62.0194 18.5943C62.0955 18.5188 62.1335 18.4245 62.1335 18.3113V12.1604C62.1335 9.3679 60.2697 7.57545 57.3409 7.57545H57.0366C55.401 7.57545 53.7845 7.95281 52.3391 8.70752C52.282 8.72639 52.244 8.76413 52.2059 8.80186C52.1679 8.8396 52.1489 8.8962 52.1299 8.9528C52.1108 9.00941 52.1108 9.06602 52.1299 9.12262C52.1299 9.17922 52.1489 9.23582 52.1869 9.27356L53.3661 11.1415C53.4231 11.217 53.4992 11.2736 53.5943 11.3113C53.6894 11.3302 53.7845 11.3302 53.8796 11.2924C55.0207 10.783 55.9335 10.5943 56.7513 10.5943C57.8354 10.5943 58.463 11.2358 58.463 12.3302H57.7023C53.4421 12.3113 51.5213 13.3302 51.5213 15.7453ZM54.7544 15.5943C54.7544 14.6698 56.2569 14.3679 58.1016 14.3679H58.463V15.5566C58.1587 15.8773 57.7973 16.1226 57.398 16.2924C56.9986 16.4622 56.5611 16.5566 56.1237 16.5566C55.42 16.5377 54.7544 16.2358 54.7544 15.5943ZM89.9385 15.7453C89.9385 17.5754 91.4599 19.0094 93.628 19.0094C95.3016 19.0094 96.1955 18.2924 96.9753 17.7075C97.0133 17.9528 97.0704 18.1792 97.1274 18.4245C97.1464 18.5 97.2035 18.5754 97.2796 18.6321C97.3556 18.6887 97.4317 18.7075 97.5268 18.7075H100.151C100.265 18.7075 100.361 18.6698 100.437 18.5943C100.513 18.5188 100.551 18.4245 100.551 18.3113V12.1604C100.551 9.3679 98.6869 7.57545 95.7581 7.57545H95.4728C93.8372 7.57545 92.2397 7.95281 90.7943 8.70752C90.7372 8.72639 90.6992 8.76413 90.6612 8.80186C90.6231 8.8396 90.6041 8.8962 90.5851 8.9528C90.5661 9.00941 90.5661 9.06602 90.5851 9.12262C90.5851 9.17922 90.6041 9.23582 90.6421 9.27356L91.8213 11.1415C91.8783 11.217 91.9544 11.2736 92.0495 11.3113C92.1446 11.3302 92.2397 11.3302 92.3348 11.2924C93.4759 10.783 94.3888 10.5943 95.2066 10.5943C96.2906 10.5943 96.9182 11.2358 96.9182 12.3302H96.1575C91.8593 12.3113 89.9385 13.3302 89.9385 15.7453ZM93.1716 15.5943C93.1716 14.6698 94.674 14.3679 96.5188 14.3679H96.8802V15.5566C96.5759 15.8773 96.2145 16.1226 95.8151 16.2924C95.4157 16.4622 94.9783 16.5566 94.5409 16.5566C93.8562 16.5377 93.1716 16.2358 93.1716 15.5943ZM106.637 14.5566L108.253 8.06601C108.272 7.97167 108.329 7.8962 108.386 7.85847C108.462 7.80186 108.538 7.783 108.634 7.783H111.353C111.448 7.783 111.524 7.82073 111.6 7.85847C111.676 7.91507 111.715 7.99054 111.734 8.06601L113.369 14.5566C113.388 14.5943 113.407 14.6321 113.445 14.6698C113.483 14.6887 113.521 14.7075 113.578 14.7075C113.635 14.7075 113.673 14.6887 113.711 14.6509C113.749 14.6132 113.769 14.5754 113.788 14.5377L114.643 8.12262C114.662 8.02828 114.7 7.93394 114.776 7.87734C114.853 7.82073 114.948 7.783 115.043 7.783H117.876C117.934 7.783 117.991 7.80186 118.048 7.82073C118.105 7.8396 118.143 7.87733 118.181 7.93394C118.219 7.97167 118.238 8.02828 118.257 8.08488C118.276 8.14149 118.276 8.19809 118.257 8.25469L116.07 18.3868C116.051 18.4811 115.994 18.5566 115.937 18.6132C115.861 18.6698 115.765 18.7075 115.67 18.7075H112.133C112.038 18.7075 111.962 18.6887 111.886 18.6321C111.81 18.5754 111.772 18.5 111.734 18.4245L110.022 12.5H109.946L108.234 18.4245C108.215 18.5 108.158 18.5754 108.082 18.6321C108.006 18.6887 107.93 18.7075 107.835 18.7075H104.278C104.183 18.7075 104.088 18.6698 104.031 18.6132C103.955 18.5566 103.917 18.4811 103.898 18.3868L101.749 8.25469C101.73 8.19809 101.73 8.14149 101.749 8.08488C101.768 8.02828 101.787 7.97167 101.825 7.93394C101.863 7.8962 101.92 7.85846 101.958 7.82073C102.015 7.80186 102.072 7.783 102.129 7.783H104.982C105.077 7.783 105.172 7.82073 105.248 7.87734C105.324 7.93394 105.362 8.02828 105.381 8.12262L106.237 14.5377C106.237 14.5943 106.275 14.6321 106.313 14.6509C106.351 14.6887 106.389 14.7075 106.446 14.7075C106.484 14.7075 106.542 14.6887 106.561 14.6698C106.599 14.6321 106.637 14.5943 106.637 14.5566Z" fill="white"/>
</g>
<defs>
<clipPath id="clip0_1160_1279">
<rect width="124" height="20" fill="white" transform="translate(0 0.5)"/>
</clipPath>
</defs>
</svg>
