<svg width="155" height="26" viewBox="0 0 155 26" fill="none" xmlns="http://www.w3.org/2000/svg">
<g clip-path="url(#clip0_2580_2549)">
<path d="M18.187 4.09847C17.5927 4.41719 17.3787 4.94081 17.664 5.41889C17.9493 5.89697 18.5198 5.96527 19.1141 5.64654C19.7085 5.32782 20.0651 4.62208 19.8273 4.2123C19.5896 3.82528 18.8051 3.75698 18.187 4.09847ZM18.0919 6.6027C17.5689 6.87589 17.4025 7.30844 17.6402 7.74099C17.8779 8.15078 18.3772 8.21907 18.8764 7.94588C19.3756 7.67269 19.6847 7.08079 19.4945 6.71653C19.3043 6.35228 18.6149 6.32951 18.0919 6.6027ZM17.9017 3.57486C17.3074 3.89358 16.7368 3.82528 16.4516 3.3472C16.1663 2.84635 16.3802 2.36827 16.9746 2.02678C17.5689 1.68529 18.3534 1.73082 18.6149 2.16337C18.8526 2.57316 18.496 3.25614 17.9017 3.57486ZM15.572 2.4138C15.0489 2.68699 14.5735 2.61869 14.3358 2.20891C14.098 1.79912 14.2644 1.36657 14.7874 1.07062C15.3105 0.79743 15.9999 0.820196 16.1901 1.18445C16.404 1.5487 16.095 2.11784 15.572 2.4138ZM17.0934 25.1341C14.3595 25.1341 11.697 24.2234 9.55738 22.5615C7.44159 20.8996 5.99143 18.5775 5.44465 16.005C4.89787 13.4324 5.32579 10.7461 6.60953 8.42397C7.89327 6.10186 10.0091 4.28059 12.529 3.2789C13.2184 3.00571 14.0029 2.96018 14.7399 3.16507C15.4531 3.36996 16.095 3.82528 16.5229 4.41719C16.9508 5.0091 17.141 5.7376 17.0697 6.46611C16.9983 7.19461 16.6655 7.85483 16.1425 8.37844C15.8335 8.67439 15.4531 8.90205 15.0489 9.08417C14.8112 9.198 14.5259 9.31183 14.2882 9.47119C13.5275 9.90374 12.9094 10.5184 12.4815 11.2469C12.0298 11.9754 11.792 12.795 11.7683 13.6373C11.7445 14.4797 11.9347 15.322 12.3388 16.0733C12.743 16.8245 13.3135 17.462 14.0267 17.9628C14.7399 18.4409 15.572 18.7596 16.4516 18.8507C17.3312 18.9418 18.2108 18.8279 19.019 18.532C19.8273 18.2133 20.5643 17.7124 21.1348 17.075C21.7054 16.4375 22.0858 15.6635 22.2759 14.8439C22.3235 14.5024 22.371 14.1609 22.3948 13.8195C22.3948 13.478 22.4661 13.1365 22.5612 12.795C22.8227 12.0893 23.322 11.4974 23.9876 11.1103C24.6532 10.7233 25.4378 10.5867 26.1985 10.7005C26.9592 10.8144 27.6724 11.2014 28.1716 11.7705C28.6709 12.3397 28.9562 13.0682 28.9562 13.7967C28.9562 16.8018 27.6962 19.693 25.4853 21.833C23.2506 23.9275 20.2315 25.1113 17.0934 25.1341ZM55.2253 5.21399C55.1302 5.21399 55.0114 5.23676 54.9401 5.30506C54.845 5.37336 54.7974 5.44165 54.7499 5.53272L50.7322 17.1205H50.6847L46.667 5.53272C46.6433 5.44165 46.572 5.35059 46.4769 5.30506C46.3818 5.23676 46.2867 5.21399 46.1916 5.21399H39.9393C39.7966 5.21399 39.6778 5.25952 39.5827 5.35059C39.4876 5.44165 39.4401 5.55548 39.4401 5.69207V22.4249C39.4401 22.5615 39.4876 22.6754 39.5827 22.7664C39.6778 22.8575 39.7966 22.903 39.9393 22.903H43.7192C43.8618 22.903 43.9807 22.8575 44.0758 22.7664C44.1709 22.6754 44.2184 22.5615 44.2184 22.4249V11.7933C44.2184 11.7705 44.2184 11.725 44.2422 11.7022C44.266 11.6795 44.266 11.6567 44.2897 11.6339C44.3135 11.6112 44.3373 11.5884 44.3848 11.5884C44.4086 11.5884 44.4562 11.5656 44.4799 11.5656C44.5275 11.5656 44.5988 11.5884 44.6226 11.6112C44.6701 11.6339 44.6939 11.6795 44.7177 11.725L48.4976 22.5843C48.5213 22.6754 48.5927 22.7664 48.6878 22.812C48.7828 22.8802 48.8779 22.903 48.973 22.903H52.3726C52.4677 22.903 52.5865 22.8802 52.6578 22.812C52.7529 22.7437 52.8005 22.6754 52.848 22.5843L56.6279 11.725C56.6517 11.6795 56.6755 11.6339 56.723 11.6112C56.7706 11.5884 56.8181 11.5656 56.8657 11.5656C56.937 11.5656 56.9845 11.5884 57.0321 11.6339C57.0796 11.6795 57.1034 11.7478 57.1034 11.7933V22.4249C57.1034 22.5615 57.1509 22.6754 57.246 22.7664C57.3411 22.8575 57.46 22.903 57.6026 22.903H61.3825C61.5252 22.903 61.644 22.8575 61.7391 22.7664C61.8342 22.6754 61.8818 22.5615 61.8818 22.4249V5.69207C61.8818 5.55548 61.8342 5.44165 61.7391 5.35059C61.644 5.25952 61.5252 5.21399 61.3825 5.21399H55.2253ZM84.8227 16.4831C84.8227 18.4637 86.154 19.6703 87.6517 19.6703C88.1509 19.6703 88.6264 19.5792 89.0781 19.3971C89.5298 19.215 89.9339 18.919 90.243 18.5775C90.3143 18.4864 90.4332 18.4409 90.552 18.4181C90.6709 18.3954 90.7897 18.4409 90.9086 18.5092L93.2621 20.1711C93.3097 20.2166 93.3572 20.2622 93.4048 20.3077C93.4286 20.3532 93.4523 20.4215 93.4761 20.4898C93.4761 20.5581 93.4761 20.6264 93.4523 20.6947C93.4286 20.763 93.4048 20.8086 93.3572 20.8541C91.9784 22.4022 90.0528 23.2445 87.5566 23.2445H87.3189C83.3488 23.2445 80.1394 20.4215 80.1394 16.6652V16.096C80.1394 12.3397 83.3488 9.51673 87.3189 9.51673H87.5566C90.0528 9.51673 91.9784 10.3591 93.3572 11.9071C93.4048 11.9527 93.4286 12.021 93.4523 12.0665C93.4761 12.1348 93.4761 12.2031 93.4761 12.2486C93.4761 12.3169 93.4523 12.3852 93.4048 12.4307C93.381 12.4763 93.3335 12.5446 93.2621 12.5673L90.9086 14.2292C90.8135 14.2975 90.6947 14.3431 90.5758 14.3203C90.4569 14.2975 90.3381 14.252 90.2667 14.1609C89.9339 13.8195 89.5536 13.5235 89.1019 13.3414C88.6502 13.1593 88.1747 13.0454 87.6755 13.0682C86.1778 13.0682 84.8465 14.2748 84.8465 16.2554V16.4831H84.8227ZM95.8534 5.62378C95.8534 5.48718 95.9009 5.37335 95.996 5.28229C96.0911 5.19123 96.21 5.14569 96.3526 5.14569H104.435C108.548 5.14569 111.353 7.44504 111.353 11.1331V11.3835C111.353 15.0943 108.619 17.4392 104.435 17.4392H100.632V22.4022C100.632 22.5388 100.584 22.6526 100.489 22.7436C100.394 22.8347 100.275 22.8802 100.133 22.8802H96.3526C96.21 22.8802 96.0911 22.8347 95.996 22.7436C95.9009 22.6526 95.8534 22.5388 95.8534 22.4022V5.62378ZM103.651 13.6601C105.291 13.6601 106.551 12.7039 106.551 11.2925V11.2014C106.551 9.85821 105.363 8.90205 103.77 8.90205H100.632V13.6373H103.651V13.6601ZM64.4017 19.3288C64.4017 21.5371 66.3036 23.2673 69.0137 23.2673C71.1057 23.2673 72.223 22.4022 73.1977 21.6964C73.2453 21.9924 73.3166 22.2656 73.3879 22.5615C73.4117 22.6526 73.483 22.7437 73.5781 22.812C73.6732 22.8802 73.7683 22.903 73.8871 22.903H77.1678C77.3105 22.903 77.4293 22.8575 77.5244 22.7664C77.6195 22.6754 77.6671 22.5615 77.6671 22.4249V15.0033C77.6671 11.6339 75.3373 9.47119 71.6763 9.47119H71.2959C69.2514 9.47119 67.2307 9.92651 65.424 10.8371C65.3526 10.8599 65.3051 10.9054 65.2575 10.951C65.21 10.9965 65.1862 11.0648 65.1624 11.1331C65.1387 11.2014 65.1387 11.2697 65.1624 11.338C65.1624 11.4063 65.1862 11.4746 65.2338 11.5201L66.7077 13.7739C66.779 13.865 66.8741 13.9333 66.993 13.9788C67.1118 14.0016 67.2307 14.0016 67.3496 13.9561C68.7759 13.3414 69.917 13.1137 70.9393 13.1137C72.2943 13.1137 73.0789 13.8878 73.0789 15.2082H72.1279C66.8028 15.1854 64.4017 16.4148 64.4017 19.3288ZM68.4431 19.1467C68.4431 18.0311 70.3212 17.6669 72.6272 17.6669H73.0789V19.1011C72.6985 19.4881 72.2468 19.7841 71.7476 19.989C71.2483 20.1939 70.7016 20.3077 70.1548 20.3077C69.2752 20.2849 68.4431 19.9207 68.4431 19.1467ZM112.423 19.3288C112.423 21.5371 114.325 23.2673 117.035 23.2673C119.127 23.2673 120.245 22.4022 121.219 21.6964C121.267 21.9924 121.338 22.2656 121.409 22.5615C121.433 22.6526 121.504 22.7437 121.6 22.812C121.695 22.8802 121.79 22.903 121.909 22.903H125.189C125.332 22.903 125.451 22.8575 125.546 22.7664C125.641 22.6754 125.689 22.5615 125.689 22.4249V15.0033C125.689 11.6339 123.359 9.47119 119.698 9.47119H119.341C117.297 9.47119 115.3 9.92651 113.493 10.8371C113.422 10.8599 113.374 10.9054 113.327 10.951C113.279 10.9965 113.255 11.0648 113.231 11.1331C113.208 11.2014 113.208 11.2697 113.231 11.338C113.231 11.4063 113.255 11.4746 113.303 11.5201L114.777 13.7739C114.848 13.865 114.943 13.9333 115.062 13.9788C115.181 14.0016 115.3 14.0016 115.419 13.9561C116.845 13.3414 117.986 13.1137 119.008 13.1137C120.363 13.1137 121.148 13.8878 121.148 15.2082H120.197C114.824 15.1854 112.423 16.4148 112.423 19.3288ZM116.465 19.1467C116.465 18.0311 118.343 17.6669 120.649 17.6669H121.1V19.1011C120.72 19.4881 120.268 19.7841 119.769 19.989C119.27 20.1939 118.723 20.3077 118.176 20.3077C117.32 20.2849 116.465 19.9207 116.465 19.1467ZM133.296 17.8945L135.317 10.0631C135.34 9.94928 135.412 9.85821 135.483 9.81268C135.578 9.74438 135.673 9.72162 135.792 9.72162H139.192C139.31 9.72162 139.406 9.76715 139.501 9.81268C139.596 9.88098 139.643 9.97204 139.667 10.0631L141.712 17.8945C141.735 17.9401 141.759 17.9856 141.807 18.0311C141.854 18.0539 141.902 18.0767 141.973 18.0767C142.044 18.0767 142.092 18.0539 142.139 18.0084C142.187 17.9628 142.211 17.9173 142.235 17.8718L143.304 10.1314C143.328 10.0176 143.376 9.90375 143.471 9.83545C143.566 9.76715 143.685 9.72162 143.804 9.72162H147.346C147.417 9.72162 147.488 9.74438 147.56 9.76715C147.631 9.78991 147.679 9.83545 147.726 9.90374C147.774 9.94928 147.797 10.0176 147.821 10.0859C147.845 10.1542 147.845 10.2225 147.821 10.2908L145.087 22.516C145.064 22.6298 144.992 22.7209 144.921 22.7892C144.826 22.8575 144.707 22.903 144.588 22.903H140.166C140.047 22.903 139.952 22.8802 139.857 22.812C139.762 22.7437 139.715 22.6526 139.667 22.5615L137.527 15.4131H137.432L135.293 22.5615C135.269 22.6526 135.198 22.7437 135.103 22.812C135.008 22.8802 134.912 22.903 134.794 22.903H130.348C130.229 22.903 130.11 22.8575 130.039 22.7892C129.944 22.7209 129.896 22.6298 129.873 22.516L127.186 10.2908C127.162 10.2225 127.162 10.1542 127.186 10.0859C127.21 10.0176 127.234 9.94928 127.281 9.90374C127.329 9.85821 127.4 9.81268 127.448 9.76715C127.519 9.74438 127.59 9.72162 127.662 9.72162H131.228C131.346 9.72162 131.465 9.76715 131.56 9.83545C131.656 9.90375 131.703 10.0176 131.727 10.1314L132.797 17.8718C132.797 17.9401 132.844 17.9856 132.892 18.0084C132.939 18.0539 132.987 18.0767 133.058 18.0767C133.106 18.0767 133.177 18.0539 133.201 18.0311C133.248 17.9856 133.296 17.9401 133.296 17.8945Z" fill="#393939"/>
</g>
<defs>
<clipPath id="clip0_2580_2549">
<rect width="155" height="24.1317" fill="white" transform="translate(0 0.93457)"/>
</clipPath>
</defs>
</svg>
