<svg width="141" height="30" viewBox="0 0 141 30" fill="none" xmlns="http://www.w3.org/2000/svg">
<g clip-path="url(#clip0_2580_2504)">
<path d="M58.6661 5.99935V23.9993H55.5411V9.87435H55.4994L49.9161 23.9993H47.8328L42.1244 9.87435H42.0828V23.9993H39.2078V5.99935H43.7078L48.8744 19.3327H48.9578L54.4161 5.99935H58.6661ZM61.2494 7.37435C61.2494 6.87435 61.4161 6.45768 61.7911 6.12435C62.1661 5.79102 62.5828 5.62435 63.0828 5.62435C63.6244 5.62435 64.0828 5.79102 64.4161 6.12435C64.7494 6.45768 64.9578 6.87435 64.9578 7.37435C64.9578 7.87435 64.7911 8.29102 64.4161 8.62435C64.0411 8.95768 63.6244 9.12435 63.0828 9.12435C62.5411 9.12435 62.1244 8.95768 61.7911 8.62435C61.4578 8.24935 61.2494 7.83268 61.2494 7.37435ZM64.6244 11.0827V23.9993H61.5828V11.0827H64.6244ZM73.8328 21.791C74.2911 21.791 74.7911 21.7077 75.3328 21.4577C75.8744 21.2493 76.3744 20.9577 76.8328 20.6243V23.4577C76.3328 23.7493 75.7911 23.9577 75.1661 24.0827C74.5411 24.2077 73.8744 24.291 73.1244 24.291C71.2078 24.291 69.6661 23.7077 68.4994 22.4993C67.2911 21.291 66.7078 19.7493 66.7078 17.916C66.7078 15.8327 67.3328 14.1243 68.5411 12.791C69.7494 11.4577 71.4578 10.791 73.7078 10.791C74.2911 10.791 74.8744 10.8743 75.4161 10.9993C75.9994 11.1243 76.4578 11.3327 76.7911 11.4994V14.416C76.3328 14.0827 75.8328 13.791 75.3744 13.6243C74.8744 13.4577 74.3744 13.3327 73.8744 13.3327C72.6661 13.3327 71.7078 13.7077 70.9578 14.4993C70.2078 15.291 69.8744 16.3327 69.8744 17.666C69.8744 18.9577 70.2494 19.9993 70.9578 20.7077C71.6661 21.416 72.6244 21.791 73.8328 21.791ZM85.4578 10.8743C85.7078 10.8743 85.9161 10.8743 86.1244 10.916C86.3328 10.9577 86.4994 10.9993 86.6244 11.041V14.1243C86.4578 13.9993 86.2494 13.8743 85.9161 13.791C85.5828 13.7077 85.2494 13.6243 84.7911 13.6243C84.0411 13.6243 83.4161 13.9577 82.9161 14.5827C82.4161 15.2077 82.1244 16.166 82.1244 17.4993V23.9993H79.0828V11.0827H82.1244V13.1243H82.1661C82.4578 12.416 82.8744 11.8743 83.4161 11.4577C83.9994 11.0827 84.6661 10.8743 85.4578 10.8743ZM86.7911 17.7493C86.7911 15.6243 87.4161 13.916 88.5828 12.666C89.7911 11.416 91.4578 10.791 93.5828 10.791C95.5828 10.791 97.1661 11.3743 98.2911 12.5827C99.4161 13.791 99.9994 15.416 99.9994 17.4577C99.9994 19.541 99.3744 21.2077 98.2078 22.4577C96.9994 23.7077 95.3744 24.3327 93.2911 24.3327C91.2911 24.3327 89.7078 23.7493 88.5411 22.5827C87.3744 21.3743 86.7911 19.7493 86.7911 17.7493ZM89.9578 17.6243C89.9578 18.9577 90.2494 19.9993 90.8744 20.7077C91.4994 21.416 92.3744 21.791 93.4994 21.791C94.5828 21.791 95.4578 21.4577 96.0411 20.7077C96.6244 19.9993 96.9161 18.9577 96.9161 17.541C96.9161 16.166 96.6244 15.1243 96.0411 14.3743C95.4578 13.666 94.5828 13.291 93.5411 13.291C92.4161 13.291 91.5828 13.666 90.9578 14.416C90.2494 15.2077 89.9578 16.2493 89.9578 17.6243ZM104.541 14.4993C104.541 14.916 104.666 15.291 104.958 15.541C105.249 15.791 105.833 16.0827 106.791 16.4577C107.999 16.9577 108.874 17.4993 109.333 18.0827C109.833 18.7077 110.083 19.416 110.083 20.291C110.083 21.4993 109.624 22.4577 108.666 23.2077C107.749 23.9577 106.458 24.291 104.874 24.291C104.333 24.291 103.749 24.2077 103.083 24.0827C102.416 23.9577 101.874 23.791 101.416 23.5827V20.5827C101.958 20.9577 102.583 21.291 103.208 21.4993C103.833 21.7077 104.416 21.8327 104.958 21.8327C105.624 21.8327 106.166 21.7493 106.458 21.541C106.791 21.3327 106.958 21.041 106.958 20.5827C106.958 20.166 106.791 19.8327 106.458 19.4993C106.124 19.2077 105.458 18.8743 104.541 18.4993C103.416 18.041 102.624 17.4993 102.166 16.916C101.708 16.3327 101.458 15.5827 101.458 14.666C101.458 13.4993 101.916 12.541 102.833 11.791C103.749 11.041 104.958 10.666 106.416 10.666C106.874 10.666 107.374 10.7077 107.916 10.8327C108.458 10.9577 108.958 11.0827 109.333 11.2077V14.166C108.916 13.916 108.458 13.666 107.916 13.4577C107.374 13.2493 106.833 13.166 106.333 13.166C105.749 13.166 105.291 13.291 104.999 13.4993C104.708 13.791 104.541 14.0827 104.541 14.4993ZM111.374 17.7493C111.374 15.6243 111.999 13.916 113.166 12.666C114.374 11.416 116.041 10.791 118.166 10.791C120.166 10.791 121.749 11.3743 122.874 12.5827C123.999 13.791 124.583 15.416 124.583 17.4577C124.583 19.541 123.958 21.2077 122.791 22.4577C121.583 23.7077 119.958 24.3327 117.874 24.3327C115.874 24.3327 114.291 23.7493 113.124 22.5827C111.999 21.3743 111.374 19.7493 111.374 17.7493ZM114.541 17.6243C114.541 18.9577 114.833 19.9993 115.458 20.7077C116.083 21.416 116.958 21.791 118.083 21.791C119.166 21.791 120.041 21.4577 120.624 20.7077C121.208 19.9993 121.499 18.9577 121.499 17.541C121.499 16.166 121.208 15.1243 120.624 14.3743C120.041 13.666 119.166 13.291 118.124 13.291C116.999 13.291 116.166 13.666 115.541 14.416C114.874 15.2077 114.541 16.2493 114.541 17.6243ZM134.708 13.5827H130.166V23.9993H127.083V13.5827H124.916V11.0827H127.083V9.29102C127.083 7.95768 127.541 6.83268 128.416 5.95768C129.291 5.08268 130.416 4.66602 131.791 4.66602C132.166 4.66602 132.499 4.70768 132.791 4.70768C133.083 4.70768 133.333 4.79102 133.541 4.87435V7.49935C133.458 7.45768 133.249 7.37435 132.999 7.29102C132.749 7.20768 132.458 7.16602 132.124 7.16602C131.499 7.16602 130.999 7.37435 130.666 7.74935C130.333 8.12435 130.166 8.74935 130.166 9.49935V11.041H134.708V8.12435L137.749 7.20768V11.041H140.833V13.541H137.749V19.5827C137.749 20.3743 137.916 20.916 138.166 21.2493C138.458 21.5827 138.916 21.7493 139.541 21.7493C139.708 21.7493 139.916 21.7077 140.166 21.6243C140.416 21.541 140.624 21.4577 140.791 21.3327V23.8327C140.583 23.9577 140.291 24.041 139.833 24.1243C139.374 24.2077 138.958 24.2493 138.499 24.2493C137.208 24.2493 136.249 23.916 135.624 23.2493C134.999 22.5827 134.666 21.541 134.666 20.166L134.708 13.5827Z" fill="#737373"/>
<path d="M14.4167 0H0.166748V14.25H14.4167V0Z" fill="#F25022"/>
<path d="M30.1667 0H15.9167V14.25H30.1667V0Z" fill="#7FBA00"/>
<path d="M14.4167 15.75H0.166748V30H14.4167V15.75Z" fill="#00A4EF"/>
<path d="M30.1667 15.75H15.9167V30H30.1667V15.75Z" fill="#FFB900"/>
</g>
<defs>
<clipPath id="clip0_2580_2504">
<rect width="140.667" height="30" fill="white" transform="translate(0.166748)"/>
</clipPath>
</defs>
</svg>
