<svg width="96" height="21" viewBox="0 0 96 21" fill="none" xmlns="http://www.w3.org/2000/svg">
<g clip-path="url(#clip0_1160_1250)">
<path d="M39.9237 4.49973V16.4997H37.791V7.08306H37.7625L33.9521 16.4997H32.5303L28.6346 7.08306H28.6061V16.4997H26.644V4.49973H29.7151L33.2412 13.3886H33.2981L37.0232 4.49973H39.9237ZM41.6867 5.4164C41.6867 5.08306 41.8004 4.80528 42.0564 4.58306C42.3123 4.36084 42.5967 4.24973 42.9379 4.24973C43.3076 4.24973 43.6203 4.36084 43.8478 4.58306C44.0753 4.80528 44.2175 5.08306 44.2175 5.4164C44.2175 5.74973 44.1038 6.02751 43.8478 6.24973C43.5919 6.47195 43.3076 6.58306 42.9379 6.58306C42.5682 6.58306 42.2839 6.47195 42.0564 6.24973C41.8289 5.99973 41.6867 5.72195 41.6867 5.4164ZM43.99 7.88862V16.4997H41.9142V7.88862H43.99ZM50.2744 15.0275C50.5872 15.0275 50.9284 14.972 51.2981 14.8053C51.6677 14.6664 52.009 14.472 52.3218 14.2497V16.1386C51.9805 16.3331 51.6109 16.472 51.1843 16.5553C50.7578 16.6386 50.3028 16.6942 49.791 16.6942C48.4829 16.6942 47.4308 16.3053 46.6346 15.4997C45.8099 14.6942 45.4118 13.6664 45.4118 12.4442C45.4118 11.0553 45.8384 9.9164 46.663 9.02751C47.4876 8.13862 48.6535 7.69417 50.1891 7.69417C50.5872 7.69417 50.9853 7.74973 51.3549 7.83306C51.7531 7.9164 52.0658 8.05528 52.2933 8.1664V10.1108C51.9805 9.88862 51.6393 9.69417 51.3265 9.58306C50.9853 9.47195 50.644 9.38862 50.3028 9.38862C49.4782 9.38862 48.8241 9.63862 48.3123 10.1664C47.8004 10.6942 47.573 11.3886 47.573 12.2775C47.573 13.1386 47.8289 13.8331 48.3123 14.3053C48.7957 14.7775 49.4497 15.0275 50.2744 15.0275ZM58.208 7.74973C58.3786 7.74973 58.5208 7.74973 58.663 7.77751C58.8052 7.80528 58.9189 7.83306 59.0042 7.86084V9.9164C58.8905 9.83306 58.7483 9.74973 58.5208 9.69417C58.2933 9.63862 58.0658 9.58306 57.7531 9.58306C57.2412 9.58306 56.8147 9.80528 56.4734 10.222C56.1322 10.6386 55.9331 11.2775 55.9331 12.1664V16.4997H53.8573V7.88862H55.9331V9.24973H55.9616C56.1606 8.77751 56.445 8.4164 56.8147 8.13862C57.2128 7.88862 57.6677 7.74973 58.208 7.74973ZM59.118 12.3331C59.118 10.9164 59.5445 9.77751 60.3407 8.94417C61.1654 8.11084 62.3028 7.69417 63.753 7.69417C65.118 7.69417 66.1985 8.08306 66.9663 8.88862C67.7341 9.69417 68.1322 10.7775 68.1322 12.1386C68.1322 13.5275 67.7057 14.6386 66.9095 15.472C66.0848 16.3053 64.9758 16.722 63.554 16.722C62.1891 16.722 61.1085 16.3331 60.3123 15.5553C59.5161 14.7497 59.118 13.6664 59.118 12.3331ZM61.2791 12.2497C61.2791 13.1386 61.4782 13.8331 61.9047 14.3053C62.3312 14.7775 62.9284 15.0275 63.6962 15.0275C64.4355 15.0275 65.0327 14.8053 65.4308 14.3053C65.8289 13.8331 66.0279 13.1386 66.0279 12.1942C66.0279 11.2775 65.8289 10.5831 65.4308 10.0831C65.0327 9.61084 64.4355 9.36084 63.7246 9.36084C62.9568 9.36084 62.3881 9.61084 61.9616 10.1108C61.4782 10.6386 61.2791 11.3331 61.2791 12.2497ZM71.2317 10.1664C71.2317 10.4442 71.317 10.6942 71.5161 10.8608C71.7151 11.0275 72.1132 11.222 72.7673 11.472C73.5919 11.8053 74.1891 12.1664 74.5019 12.5553C74.8431 12.972 75.0137 13.4442 75.0137 14.0275C75.0137 14.8331 74.7009 15.472 74.0469 15.972C73.4213 16.472 72.5398 16.6942 71.4592 16.6942C71.0895 16.6942 70.6914 16.6386 70.2365 16.5553C69.7815 16.472 69.4118 16.3608 69.099 16.222V14.222C69.4687 14.472 69.8952 14.6942 70.3218 14.8331C70.7483 14.972 71.1464 15.0553 71.5161 15.0553C71.9711 15.0553 72.3407 14.9997 72.5398 14.8608C72.7673 14.722 72.881 14.5275 72.881 14.222C72.881 13.9442 72.7673 13.722 72.5398 13.4997C72.3123 13.3053 71.8573 13.0831 71.2317 12.8331C70.464 12.5275 69.9237 12.1664 69.6109 11.7775C69.2981 11.3886 69.1275 10.8886 69.1275 10.2775C69.1275 9.49973 69.4403 8.86084 70.0658 8.36084C70.6914 7.86084 71.5161 7.61084 72.5113 7.61084C72.8241 7.61084 73.1654 7.63862 73.535 7.72195C73.9047 7.80528 74.2459 7.88862 74.5019 7.97195V9.94417C74.2175 9.77751 73.9047 9.61084 73.535 9.47195C73.1654 9.33306 72.7957 9.27751 72.4545 9.27751C72.0564 9.27751 71.7436 9.36084 71.5445 9.49973C71.3455 9.69417 71.2317 9.88862 71.2317 10.1664ZM75.8952 12.3331C75.8952 10.9164 76.3218 9.77751 77.118 8.94417C77.9426 8.11084 79.0801 7.69417 80.5303 7.69417C81.8952 7.69417 82.9758 8.08306 83.7436 8.88862C84.5113 9.69417 84.9095 10.7775 84.9095 12.1386C84.9095 13.5275 84.4829 14.6386 83.6867 15.472C82.8621 16.3053 81.7531 16.722 80.3312 16.722C78.9663 16.722 77.8858 16.3331 77.0895 15.5553C76.3218 14.7497 75.8952 13.6664 75.8952 12.3331ZM78.0564 12.2497C78.0564 13.1386 78.2554 13.8331 78.682 14.3053C79.1085 14.7775 79.7057 15.0275 80.4734 15.0275C81.2128 15.0275 81.8099 14.8053 82.208 14.3053C82.6061 13.8331 82.8052 13.1386 82.8052 12.1942C82.8052 11.2775 82.6061 10.5831 82.208 10.0831C81.8099 9.61084 81.2128 9.36084 80.5019 9.36084C79.7341 9.36084 79.1654 9.61084 78.7388 10.1108C78.2839 10.6386 78.0564 11.3331 78.0564 12.2497ZM91.8194 9.55528H88.7199V16.4997H86.6156V9.55528H85.1369V7.88862H86.6156V6.69417C86.6156 5.80528 86.9284 5.05528 87.5256 4.47195C88.1227 3.88862 88.8905 3.61084 89.8289 3.61084C90.0848 3.61084 90.3123 3.63862 90.5113 3.63862C90.7104 3.63862 90.881 3.69417 91.0232 3.74973V5.49973C90.9663 5.47195 90.8241 5.4164 90.6535 5.36084C90.4829 5.30528 90.2839 5.27751 90.0564 5.27751C89.6298 5.27751 89.2886 5.4164 89.0611 5.6664C88.8336 5.9164 88.7199 6.33306 88.7199 6.83306V7.86084H91.8194V5.9164L93.8952 5.30528V7.86084H95.9995V9.52751H93.8952V13.5553C93.8952 14.0831 94.009 14.4442 94.1796 14.6664C94.3786 14.8886 94.6914 14.9997 95.118 14.9997C95.2317 14.9997 95.3739 14.972 95.5445 14.9164C95.7151 14.8608 95.8573 14.8053 95.9711 14.722V16.3886C95.8289 16.472 95.6298 16.5275 95.317 16.5831C95.0042 16.6386 94.7199 16.6664 94.4071 16.6664C93.5256 16.6664 92.8715 16.4442 92.445 15.9997C92.0185 15.5553 91.791 14.8608 91.791 13.9442L91.8194 9.55528Z" fill="white"/>
<path d="M9.72512 0.5H0V10H9.72512V0.5Z" fill="#F25022"/>
<path d="M20.4739 0.5H10.7488V10H20.4739V0.5Z" fill="#7FBA00"/>
<path d="M9.72512 11H0V20.5H9.72512V11Z" fill="#00A4EF"/>
<path d="M20.4739 11H10.7488V20.5H20.4739V11Z" fill="#FFB900"/>
</g>
<defs>
<clipPath id="clip0_1160_1250">
<rect width="96" height="20" fill="white" transform="translate(0 0.5)"/>
</clipPath>
</defs>
</svg>
