<svg width="45" height="45" viewBox="0 0 45 45" fill="none" xmlns="http://www.w3.org/2000/svg">
<g clip-path="url(#clip0_2580_2909)">
<path d="M34.6858 44.235L33.2304 42.7792C32.8157 42.3645 32.2532 42.1314 31.6666 42.1314C31.08 42.1314 30.5175 42.3645 30.1027 42.7792L28.6472 44.235C28.2324 44.6498 27.6698 44.8827 27.0833 44.8827C26.4967 44.8827 25.9342 44.6498 25.5194 44.235L24.0639 42.7795C23.6492 42.3648 23.0867 42.1318 22.5001 42.1318C21.9135 42.1318 21.3509 42.3648 20.9361 42.7795L19.4807 44.235C19.066 44.6498 18.5034 44.8827 17.9168 44.8827C17.3303 44.8827 16.7677 44.6498 16.353 44.235L14.8975 42.7795C14.4827 42.3648 13.9202 42.1318 13.3336 42.1318C12.7471 42.1318 12.1845 42.3648 11.7697 42.7795L10.3143 44.235C9.89956 44.6498 9.33698 44.8827 8.75039 44.8827C8.16383 44.8827 7.60129 44.6498 7.18651 44.235L1.14786 38.1964C0.7331 37.7816 0.500089 37.219 0.500089 36.6324C0.500089 36.0459 0.7331 35.4833 1.14786 35.0686L2.60329 33.6131C2.80867 33.4078 2.97159 33.1639 3.08274 32.8956C3.19389 32.6273 3.2511 32.3397 3.2511 32.0492C3.2511 31.7589 3.19389 31.4712 3.08274 31.2029C2.97159 30.9346 2.80867 30.6908 2.60329 30.4854L1.14786 29.0299C0.942485 28.8245 0.779569 28.5807 0.668419 28.3124C0.557268 28.0441 0.50006 27.7565 0.50006 27.4661C0.50006 27.1756 0.557268 26.8881 0.668419 26.6197C0.779569 26.3514 0.942485 26.1076 1.14786 25.9022L2.60339 24.4467C3.01814 24.0319 3.25115 23.4694 3.25115 22.8828C3.25115 22.2963 3.01814 21.7337 2.60339 21.319L1.14786 19.8635C0.7331 19.4487 0.500089 18.8861 0.500089 18.2996C0.500089 17.713 0.7331 17.1505 1.14786 16.7357L2.60329 15.2803C3.01806 14.8656 3.25107 14.303 3.25107 13.7165C3.25107 13.1299 3.01806 12.5673 2.60329 12.1525L1.14777 10.6971C0.733012 10.2822 0.5 9.71971 0.5 9.13312C0.5 8.54656 0.733012 7.98401 1.14777 7.56924L7.18642 1.53059C7.6012 1.11582 8.16375 0.882812 8.75031 0.882812C9.3369 0.882812 9.8994 1.11582 10.3142 1.53059L11.7696 2.98602C12.1844 3.40079 12.747 3.63379 13.3336 3.63379C13.9201 3.63379 14.4827 3.40079 14.8974 2.98602L16.3529 1.53059C16.7676 1.11582 17.3302 0.882812 17.9167 0.882812C18.5033 0.882812 19.0658 1.11582 19.4807 1.53059L20.9361 2.98602C21.3508 3.40079 21.9134 3.63379 22.5 3.63379C23.0865 3.63379 23.6491 3.40079 24.0639 2.98602L25.5193 1.53059C25.9341 1.11582 26.4966 0.882812 27.0832 0.882812C27.6698 0.882812 28.2323 1.11582 28.6471 1.53059L30.1025 2.98602C30.5173 3.40079 31.0798 3.63379 31.6664 3.63379C32.2529 3.63379 32.8155 3.40079 33.2303 2.98602L34.6858 1.53059C35.1005 1.11582 35.663 0.882812 36.2496 0.882812C36.8362 0.882812 37.3987 1.11582 37.8135 1.53059L43.8521 7.56889C44.0575 7.77425 44.2204 8.01805 44.3316 8.28638C44.4426 8.55471 44.4999 8.84234 44.4999 9.13274C44.4999 9.42314 44.4426 9.71076 44.3316 9.97908C44.2204 10.2474 44.0575 10.4913 43.8521 10.6966L42.3966 12.1521C42.1912 12.3575 42.0284 12.6012 41.9172 12.8696C41.806 13.1379 41.7488 13.4255 41.7488 13.716C41.7488 14.0064 41.806 14.294 41.9172 14.5623C42.0284 14.8307 42.1912 15.0744 42.3966 15.2798L43.8521 16.735C44.2669 17.1498 44.4998 17.7123 44.4998 18.2989C44.4998 18.8855 44.2669 19.448 43.8521 19.8628L42.3966 21.3182C41.9819 21.7329 41.7488 22.2955 41.7488 22.8821C41.7488 23.4686 41.9819 24.0312 42.3966 24.446L43.8522 25.9015C44.267 26.3163 44.4999 26.8788 44.4999 27.4654C44.4999 28.052 44.267 28.6145 43.8522 29.0293L42.3967 30.4846C41.982 30.8994 41.749 31.462 41.749 32.0486C41.749 32.6351 41.982 33.1977 42.3967 33.6124L43.8523 35.068C44.267 35.4827 44.5 36.0453 44.5 36.6318C44.5 37.2184 44.267 37.7809 43.8523 38.1957L40.8329 41.215L37.8136 44.235C37.3989 44.6498 36.8363 44.8827 36.2497 44.8827C35.6632 44.8827 35.1006 44.6498 34.6858 44.235Z" fill="white"/>
<path d="M9.4112 9.20105C10.7327 9.20105 10.9442 9.0293 12.3448 9.0293C15.3578 9.0293 17.0757 11.0643 17.0757 13.6544V18.2795H14.0495V13.4958C14.0495 12.3726 13.217 11.7383 12.3448 11.7383C11.4726 11.7383 10.6403 12.3726 10.6403 13.4958V18.2795H7.61365V9.0293C8.20516 9.14941 8.80771 9.20699 9.4112 9.20105Z" fill="black"/>
<path d="M28.2897 9.0166H37.7382V11.8313H36.1656C35.2274 11.8313 34.5269 12.5449 34.5269 13.4831V18.2801H31.5008V13.4831C31.5008 12.5317 30.8137 11.8313 29.8622 11.8313H28.2897V9.0166Z" fill="black"/>
<path d="M28.2897 19.3691H37.7382V22.1838H36.1656C35.2274 22.1838 34.5269 22.8975 34.5269 23.8357V28.6324H31.5008V23.8355C31.5008 22.884 30.8137 22.1837 29.8622 22.1837H28.2897V19.3691Z" fill="black"/>
<path d="M17.7233 32.7178C17.7157 33.536 17.9318 34.3408 18.3481 35.0451C18.7746 35.7544 19.3772 36.3412 20.0976 36.7486C20.8179 37.1561 21.6314 37.3702 22.459 37.3702C23.2865 37.3702 24.1 37.1561 24.8203 36.7486C25.5407 36.3412 26.1433 35.7544 26.5697 35.0451C26.9861 34.3408 27.2022 33.536 27.1945 32.7178H17.7233Z" fill="black"/>
<path d="M24.0683 13.6545C24.0683 12.7823 23.3943 11.9894 22.4693 11.9894C21.5574 11.9894 20.8572 12.7427 20.8572 13.6545C20.8572 14.5003 21.5046 15.2931 22.4693 15.2931C22.6822 15.2913 22.8924 15.2473 23.0882 15.1638C23.2839 15.0803 23.4613 14.9589 23.6099 14.8066C23.7585 14.6543 23.8755 14.4741 23.9542 14.2763C24.0329 14.0786 24.0716 13.8673 24.0683 13.6545ZM22.4693 9.01617C23.87 9.01617 24.0682 9.18792 25.4029 9.18792C26.0063 9.19386 26.6087 9.13628 27.2001 9.01617V18.2792C26.6087 18.1591 26.0063 18.1015 25.4029 18.1073C24.0683 18.1073 23.87 18.2791 22.4693 18.2791C19.7603 18.2791 17.7384 16.1912 17.7384 13.6539C17.7384 10.9847 19.8923 9.01617 22.4693 9.01617Z" fill="black"/>
<path d="M24.0684 24.0077C24.0684 23.1355 23.3944 22.3426 22.4694 22.3426C21.5575 22.3426 20.8572 23.0958 20.8572 24.0077C20.8572 24.8534 21.5046 25.6462 22.4694 25.6462C22.6822 25.6444 22.8925 25.6004 23.0883 25.5169C23.284 25.4334 23.4613 25.3121 23.6099 25.1598C23.7585 25.0075 23.8756 24.8272 23.9543 24.6295C24.033 24.4318 24.0717 24.2204 24.0684 24.0077ZM22.4693 19.3694C23.8701 19.3694 24.0683 19.5411 25.403 19.5411C26.0064 19.547 26.6088 19.4895 27.2002 19.3694V28.6326C26.6088 28.5125 26.0064 28.4549 25.4029 28.4608C24.0683 28.4608 23.87 28.6326 22.4693 28.6326C19.7603 28.6326 17.7384 26.5447 17.7384 24.0075C17.7384 21.3382 19.8924 19.3694 22.4693 19.3694Z" fill="black"/>
<path d="M12.6457 19.3638C11.2648 19.3694 10.9101 19.5217 9.58296 19.5217C8.92342 19.5225 8.26489 19.4696 7.61401 19.3633V25.0623V29.2118H10.6402V27.6434C11.2905 27.7402 11.8561 27.8878 12.7223 27.8878C15.2152 27.8878 17.0757 25.9666 17.0757 23.6318C17.0757 21.1792 15.1186 19.3695 12.6457 19.3638ZM12.2433 25.3722C12.0305 25.3704 11.8202 25.3264 11.6245 25.2429C11.4287 25.1595 11.2514 25.038 11.1028 24.8857C10.9542 24.7334 10.8372 24.5532 10.7585 24.3555C10.6798 24.1577 10.641 23.9465 10.6444 23.7336C10.6444 22.8615 11.3184 22.0686 12.2433 22.0686C13.1552 22.0686 13.8556 22.8218 13.8556 23.7336C13.8556 24.5794 13.2081 25.3722 12.2433 25.3722Z" fill="black"/>
</g>
<defs>
<clipPath id="clip0_2580_2909">
<rect width="44" height="44" fill="white" transform="translate(0.5 0.882812)"/>
</clipPath>
</defs>
</svg>
