<svg width="285" height="58" viewBox="0 0 285 58" fill="none" xmlns="http://www.w3.org/2000/svg">
<mask id="mask0_1160_1372" style="mask-type:luminance" maskUnits="userSpaceOnUse" x="0" y="0" width="285" height="58">
<path d="M285 0H0V58H285V0Z" fill="white"/>
</mask>
<g mask="url(#mask0_1160_1372)">
<path d="M9.40242 58.0001C13.9696 58.0001 17.6721 54.2832 17.6721 49.6979C17.6721 45.1128 13.9696 41.3958 9.40242 41.3958C4.83525 41.3958 1.13281 45.1128 1.13281 49.6979C1.13281 54.2832 4.83525 58.0001 9.40242 58.0001Z" fill="#FF3924"/>
<path d="M27.7774 45.4399C30.5253 41.7775 26.7352 34.2578 19.312 28.6438C11.8887 23.03 3.64323 21.4481 0.895277 25.1104C-1.85269 28.7727 1.93742 36.2925 9.36072 41.9065C16.784 47.5203 25.0294 49.1022 27.7774 45.4399Z" fill="#FF3924"/>
<path d="M39.973 43.3151C44.0292 40.4573 40.6373 28.5841 32.3969 16.7955C24.1565 5.00705 14.1882 -2.23275 10.1319 0.625026C6.0756 3.48281 9.46748 15.356 17.7079 27.1445C25.9483 38.9331 35.9167 46.1728 39.973 43.3151Z" fill="#FF3924"/>
<path d="M71.4827 28.9995C71.4827 35.6636 67.0575 39.1182 62.6322 39.1182C59.8461 39.1182 57.7149 37.8848 56.4865 35.7452V46.811H51.3249V19.3341H55.9129L56.3643 22.5027C57.5521 20.2405 59.7648 18.9255 62.6322 18.9255C67.0575 18.9255 71.4827 22.3392 71.4827 29.0033V28.9995ZM66.3618 28.9995C66.3618 25.6266 64.19 23.487 61.3224 23.487C58.9877 23.487 56.4458 25.3778 56.4458 28.9995C56.4458 32.8256 58.9026 34.5528 61.3224 34.5528C64.19 34.5528 66.3618 32.4541 66.3618 28.9995Z" fill="#FF3924"/>
<path d="M88.9627 19.334H93.0809V38.6685H88.7999L88.3189 35.8603C87.2459 37.8439 84.8038 39.118 81.8142 39.118C77.3483 39.118 72.8823 35.6634 72.8823 28.9995C72.8823 22.3354 77.3483 18.9216 81.8142 18.9216C84.8446 18.9216 87.3309 20.244 88.3596 22.2239L88.9665 19.334H88.9627ZM88.0821 28.9995C88.0821 25.4631 85.5402 23.487 83.1647 23.487C80.2565 23.487 78.0032 25.6266 78.0032 28.9995C78.0032 32.3723 80.2972 34.5528 83.1647 34.5528C85.6215 34.5528 88.0821 32.7438 88.0821 28.9995Z" fill="#FF3924"/>
<path d="M133.934 19.334H138.052V38.6685H133.771L133.29 35.8603C132.217 37.8439 129.775 39.118 126.786 39.118C122.32 39.118 117.854 35.6634 117.854 28.9995C117.854 22.3354 122.32 18.9216 126.786 18.9216C129.816 18.9216 132.302 20.244 133.331 22.2239L133.938 19.334H133.934ZM133.053 28.9995C133.053 25.4631 130.512 23.487 128.136 23.487C125.228 23.487 122.975 25.6266 122.975 28.9995C122.975 32.3723 125.269 34.5528 128.136 34.5528C130.593 34.5528 133.053 32.7438 133.053 28.9995Z" fill="#FF3924"/>
<path d="M174.84 19.3345H178.959V38.669H174.678L174.196 35.8608C173.123 37.8444 170.682 39.1185 167.692 39.1185C163.226 39.1185 158.76 35.6639 158.76 29C158.76 22.3359 163.226 18.9221 167.692 18.9221C170.722 18.9221 173.208 20.2445 174.238 22.2244L174.843 19.3345H174.84ZM173.96 29C173.96 25.4636 171.418 23.4875 169.042 23.4875C166.134 23.4875 163.881 25.6271 163.881 29C163.881 32.3728 166.174 34.5533 169.042 34.5533C171.5 34.5533 173.96 32.7443 173.96 29Z" fill="#FF3924"/>
<path d="M116.31 28.9995C116.31 35.6636 111.885 39.1182 107.46 39.1182C104.673 39.1182 102.542 37.8848 101.314 35.7452V46.811H96.1522V19.3341H100.74L101.192 22.5027C102.379 20.2405 104.592 18.9255 107.46 18.9255C111.885 18.9255 116.31 22.3392 116.31 29.0033V28.9995ZM111.189 28.9995C111.189 25.6266 109.017 23.487 106.15 23.487C103.815 23.487 101.273 25.3778 101.273 28.9995C101.273 32.8256 103.73 34.5528 106.15 34.5528C109.017 34.5528 111.189 32.4541 111.189 28.9995Z" fill="#FF3924"/>
<path d="M153.912 19.3345H159.565L149.036 46.8117H143.26L146.782 38.7062L139.282 19.3308H145.058L148.706 30.3968C149.076 31.4665 149.28 32.4546 149.443 33.647H149.525C149.687 32.4546 149.935 31.4665 150.26 30.3968L153.909 19.3308L153.912 19.3345Z" fill="#FF3924"/>
<path d="M201.396 19.3747H205.167V37.6803C205.167 44.5078 200.291 47.1823 195.662 47.1823C190.253 47.1823 186.69 44.5487 185.949 39.9833H190.333C190.906 42.0822 192.834 43.3563 195.662 43.3563C198.488 43.3563 200.905 41.7107 200.905 37.6803V35.7487C199.51 37.8065 197.135 38.9582 194.47 38.9582C189.801 38.9582 185.375 35.4219 185.375 28.9621C185.375 22.5024 189.801 18.9661 194.47 18.9661C197.215 18.9661 199.673 20.1585 201.026 22.3799L201.396 19.3785V19.3747ZM200.986 28.9584C200.986 25.0506 198.2 22.8293 195.372 22.8293C192.299 22.8293 189.638 25.1324 189.638 28.9584C189.638 32.7845 192.302 35.0875 195.372 35.0875C198.2 35.0875 200.986 32.8661 200.986 28.9584Z" fill="#FF3924"/>
<path d="M208.005 38.665V10.6531H212.308V38.665H208.005Z" fill="#FF3924"/>
<path d="M214.237 29.0409C214.237 23.3649 218.498 18.9631 224.275 18.9631C230.051 18.9631 234.354 23.3649 234.354 29.0409C234.354 34.7168 230.091 39.0777 224.275 39.0777C218.458 39.0777 214.237 34.7168 214.237 29.0409ZM230.054 29.0409C230.054 25.4228 227.598 22.8299 224.279 22.8299C220.959 22.8299 218.543 25.4228 218.543 29.0409C218.543 32.6589 220.959 35.2109 224.279 35.2109C227.598 35.2109 230.054 32.618 230.054 29.0409Z" fill="#FF3924"/>
<path d="M256.137 29.0407C256.137 35.5004 251.711 39.0775 247.043 39.0775C244.215 39.0775 241.839 37.8851 240.567 35.7048L240.238 38.6653H236.386V10.6533H240.689V22.1723C241.999 20.1145 244.297 18.963 247.038 18.963C251.708 18.963 256.133 22.5401 256.133 29.0407H256.137ZM251.834 29.0407C251.834 25.1328 249.293 22.8707 246.22 22.8707C243.312 22.8707 240.608 25.0921 240.608 29.0407C240.608 32.9893 243.312 35.2107 246.22 35.2107C249.296 35.2107 251.834 32.9484 251.834 29.0407Z" fill="#FF3924"/>
<path d="M274.065 19.3747H277.483V38.6684H273.98L273.498 35.5518C272.189 37.7323 269.576 39.0808 266.786 39.0808C262.077 39.0808 257.651 35.5035 257.651 29.0438C257.651 22.5841 262.077 18.9661 266.786 18.9661C269.572 18.9661 272.185 20.3145 273.498 22.5359L274.06 19.3785L274.065 19.3747ZM273.347 29.0401C273.347 25.1733 270.519 22.8702 267.693 22.8702C264.618 22.8702 261.957 25.1733 261.957 29.0401C261.957 32.907 264.622 35.2101 267.693 35.2101C270.561 35.2101 273.347 32.9888 273.347 29.0401Z" fill="#FF3924"/>
<path d="M280.698 38.6653V10.6533H285.001V38.6653H280.698Z" fill="#FF3924"/>
</g>
</svg>
