<svg width="193" height="70" viewBox="0 0 193 70" fill="none" xmlns="http://www.w3.org/2000/svg">
<mask id="mask0_898_3923" style="mask-type:luminance" maskUnits="userSpaceOnUse" x="0" y="5" width="192" height="60">
<path d="M192 5H0V65H192V5Z" fill="white"/>
</mask>
<g mask="url(#mask0_898_3923)">
<path d="M27.4172 17.9521C28.7285 18.6381 29.6821 20.2521 29.2053 21.7854C28.9272 22.6731 28.0132 23.4397 27.1788 23.8432L20.0265 27.5554L2.58278 36.9165C1.5894 37.4814 0 37.2393 0 35.7464C0.0397351 35.2218 0.317881 34.778 0.754968 34.4955L6.91391 29.3308C5.48344 28.5641 4.01325 27.515 3.33775 27.1519C2.18543 26.587 1.4702 25.3765 1.4702 24.0853V8.18751C1.43046 7.66297 1.4702 7.13843 1.5894 6.65423C1.66887 6.37178 1.78808 6.08934 1.98676 5.84724C2.18543 5.60514 2.42384 5.44374 2.66225 5.28234C2.9404 5.12094 3.21854 5.04024 3.49669 5.04024C3.77484 4.99989 4.09272 5.04024 4.37086 5.12094C4.56954 5.20164 4.76821 5.28234 4.92715 5.40339L27.4172 17.9521Z" fill="#192435"/>
<path d="M27.6563 27.3133C29.4841 26.3449 30.994 27.2326 30.994 29.3307V45.4706C30.994 47.5688 29.4841 50.1108 27.6563 51.0792L3.29869 64.3946C1.47087 65.4034 -0.0390625 64.4753 -0.0390625 62.3771V46.2373C-0.0390625 44.1391 1.47087 41.597 3.29869 40.6286L27.6563 27.3133Z" fill="#192435"/>
<path fill-rule="evenodd" clip-rule="evenodd" d="M113.682 28.6049H103.231C103.311 26.7892 103.827 25.4173 104.781 24.4489C105.774 23.4805 107.086 22.956 108.476 22.9963C110.106 22.9963 111.377 23.4805 112.251 24.4489C113.086 25.377 113.563 26.7489 113.682 28.6049ZM120.635 36.7152H115.51C114.834 36.6749 114.159 36.8363 113.602 37.2398C112.927 37.7643 112.45 38.5713 111.695 39.0152C110.781 39.5397 109.748 39.7818 108.715 39.7415C106.927 39.7415 105.616 39.1766 104.741 38.0871C103.788 37.038 103.271 35.6258 103.192 33.4873H120.993C120.993 29.0084 120.397 24.3279 117.337 20.7367C115.112 18.2351 112.291 16.9842 108.198 16.9842C104.304 16.9842 101.284 18.2754 99.0989 20.8174C96.993 23.3191 95.9201 26.7892 95.9201 31.2277C95.9201 35.8679 96.993 39.2573 99.1784 41.7589C101.364 44.3413 104.384 45.5115 108.278 45.5115C111.496 45.5115 114.159 44.8659 116.265 43.2519C118.49 41.7186 119.92 39.6608 120.635 36.7152ZM142.688 31.5505C142.688 34.0521 142.172 36.0293 141.139 37.4819C140.185 38.8941 138.635 39.7011 136.927 39.6607C135.019 39.6607 133.549 38.9345 132.516 37.4819C131.483 36.1503 130.966 34.1732 130.966 31.5505C130.966 27.7576 132.159 23.1174 136.688 23.1174C141.218 23.1174 142.688 27.6769 142.688 31.5505ZM130.688 52.2499V41.6379C132.317 44.5027 135.655 45.7939 138.794 45.7939C142.013 45.7939 144.635 44.4624 146.662 41.8396C148.887 38.8941 149.682 35.1416 149.721 31.5101C149.761 27.5155 149.006 23.077 146.066 20.2122C143.642 17.7912 140.185 17.0246 136.887 17.0246C133.311 17.0246 129.298 18.114 126.794 20.8578C124.966 22.7542 124.053 25.6998 124.053 29.6137V56.0024H127.549C129.417 55.962 130.688 54.1866 130.688 52.2499ZM67.3903 31.5505C67.3903 34.0521 66.8738 36.0293 65.8407 37.4819C64.887 38.8941 63.3374 39.7011 61.6287 39.6607C59.7215 39.6607 58.2513 38.9345 57.2182 37.4819C56.185 36.1503 55.6685 34.1732 55.6685 31.5505C55.6685 27.7576 56.8605 23.1174 61.3903 23.1174C65.9201 23.1174 67.3903 27.6769 67.3903 31.5505ZM55.3903 52.2499V41.6379C57.0195 44.5027 60.3572 45.7939 63.4566 45.7939C66.6751 45.7939 69.2976 44.4624 71.3241 41.8396C73.5493 38.8941 74.344 35.1416 74.3837 31.5101C74.4235 27.5155 73.6685 23.077 70.7281 20.2122C68.3042 17.7912 64.8473 17.0246 61.5493 17.0246C57.9731 17.0246 53.9599 18.114 51.4566 20.8578C49.6287 22.7542 48.7148 25.6998 48.7148 29.6137V56.0024H52.2115C54.1188 55.962 55.3903 54.1866 55.3903 52.2499ZM167.841 49.4254V55.3568H170.384C172.529 55.3568 175.033 55.3568 176.861 54.1059C178.092 53.1376 179.125 51.5236 179.92 49.2236L190.529 16.9842H185.364C183.576 16.9842 182.582 18.5579 182.145 20.2122L177.337 37.2398L171.298 16.9842H163.907L173.443 45.2694C173.92 46.7219 173.761 47.771 172.966 48.4166C171.576 49.6675 169.589 49.4254 167.841 49.4254ZM78.2778 45.4711L78.238 31.954C78.238 27.7979 79.3109 23.4402 82.6486 20.7367C85.6287 18.3158 90.0791 17.7105 93.7744 17.7105V25.0945C91.6685 25.0945 88.4499 24.8928 86.8208 26.5471C85.8672 27.5155 85.6287 29.0488 85.6287 31.1066V45.4711H78.2778ZM160.966 45.4711H153.616V13.0703C153.695 11.1335 155.205 9.60023 157.112 9.51953H161.006L160.966 45.4711Z" fill="#192435"/>
</g>
</svg>
