<svg width="64" height="33" viewBox="0 0 64 33" fill="none" xmlns="http://www.w3.org/2000/svg">
<g clip-path="url(#clip0_1160_1281)">
<mask id="mask0_1160_1281" style="mask-type:luminance" maskUnits="userSpaceOnUse" x="0" y="18" width="51" height="16">
<path d="M34.6563 32.752H37.1613V22.8341H34.6839L34.6563 32.752ZM2.46366 24.2539V22.8272H0V32.752H2.47054V28.0378C2.47054 26.6593 2.60817 26.1837 3.00043 25.7082C3.17519 25.496 3.39655 25.3271 3.64724 25.2147C3.89792 25.1023 4.17115 25.0495 4.44559 25.0603C4.78908 25.0498 5.13043 25.1181 5.44344 25.2602L6.65462 23.0271C6.12106 22.7352 5.52149 22.5857 4.91355 22.5929C4.38157 22.5712 3.85664 22.7208 3.41575 23.0197C2.97485 23.3187 2.64118 23.7512 2.46366 24.2539ZM10.7217 24.6675C11.9673 24.6675 12.566 25.7426 12.566 26.9557H8.64344C8.85677 25.4325 9.63441 24.6675 10.708 24.6675M6.13161 27.8379C6.13161 31.1255 8.0172 32.9933 11.2998 32.9933C12.4832 33.0179 13.6577 32.7826 14.7406 32.304L13.8942 30.2364C13.1387 30.6142 12.3023 30.8012 11.4581 30.7809C9.84086 30.7809 8.93935 30.0916 8.70538 28.7614H14.9677C15.009 28.3066 15.0228 27.8723 15.0228 27.383C15.0228 24.8811 13.9974 22.6136 10.9282 22.6136C7.68 22.6136 6.17978 25.1844 6.17978 27.8586M15.9174 27.8586C15.9174 31.1393 17.92 33.0139 20.9342 33.0139C21.9457 33.0319 22.948 32.8198 23.8658 32.3936L23.0262 30.2571C22.4144 30.6113 21.7163 30.7879 21.0099 30.7671C19.4409 30.7671 18.3673 29.7953 18.3673 27.7896C18.3673 25.9425 19.3308 24.8122 21.0305 24.8122C21.7305 24.7977 22.421 24.9765 23.0262 25.3291L23.8864 23.2201C22.9356 22.7827 21.8977 22.5682 20.8516 22.5929C17.7824 22.5929 15.8761 24.7226 15.8761 27.8379M45.5088 21.0352V22.8341H42.1161V19.2984L39.6525 21.0215V22.8272H38.1247V24.8949H39.6525V29.7608C39.5859 30.1979 39.6229 30.6445 39.7605 31.0646C39.8981 31.4847 40.1325 31.8665 40.4447 32.1792C40.7568 32.4918 41.138 32.7265 41.5575 32.8644C41.977 33.0022 42.4229 33.0393 42.8594 32.9726C43.6187 32.9788 44.3703 32.8188 45.0615 32.5039L44.2288 30.4363C43.9076 30.6264 43.5421 30.7287 43.169 30.7326C42.4327 30.7326 42.1161 30.3329 42.1161 29.623V24.9225H45.5088V29.7884C45.4422 30.2255 45.4793 30.6721 45.6169 31.0922C45.7545 31.5123 45.9888 31.8941 46.301 32.2068C46.6132 32.5194 46.9944 32.7541 47.4139 32.8919C47.8333 33.0298 48.2793 33.0668 48.7157 33.0002C49.4774 33.0078 50.2315 32.8478 50.9247 32.5315L50.0989 30.4638C49.7774 30.6531 49.4121 30.7553 49.0391 30.7602C48.3028 30.7602 47.9862 30.3604 47.9862 29.623V24.9225H50.5806V22.8548H47.9725V19.2984L45.5088 21.0352ZM34.3467 20.1668C34.348 20.4732 34.44 20.7724 34.611 21.0265C34.7819 21.2806 35.0242 21.4783 35.3073 21.5946C35.5903 21.7109 35.9014 21.7407 36.2013 21.68C36.5012 21.6194 36.7765 21.4712 36.9923 21.254C37.2082 21.0369 37.355 20.7606 37.4142 20.4599C37.4734 20.1593 37.4423 19.8479 37.3249 19.5649C37.2075 19.2819 37.009 19.0402 36.7546 18.8701C36.5001 18.7 36.201 18.6092 35.8951 18.6092C35.4844 18.6092 35.0906 18.7726 34.8002 19.0634C34.5098 19.3542 34.3467 19.7487 34.3467 20.1599M24.9118 19.9049V32.752H27.403V28.1136L30.548 32.752H33.6654L29.7566 27.2383L33.7204 22.8341H30.5204L27.403 26.4663V18.1543L24.9118 19.9049Z" fill="white"/>
</mask>
<g mask="url(#mask0_1160_1281)">
<path d="M34.154 -5.79871L-6.96924 23.04L16.7415 56.9543L57.8647 28.1155L34.154 -5.79871Z" fill="url(#paint0_linear_1160_1281)"/>
</g>
<mask id="mask1_1160_1281" style="mask-type:luminance" maskUnits="userSpaceOnUse" x="42" y="0" width="22" height="19">
<path d="M42.1162 11.958C42.1043 14.1526 42.5989 16.3203 43.5613 18.292L46.4654 16.2243C45.7982 14.7801 45.4619 13.2046 45.4813 11.6134C45.4813 6.63722 49.1286 2.86717 53.8082 2.86717C58.3777 2.86717 61.1785 6.09273 61.1785 10.2556C61.1785 13.9843 58.7011 16.4035 55.4874 16.4035C52.4112 16.4035 50.2435 14.2945 50.2435 11.2964C50.2435 8.65664 51.9157 6.88534 53.9252 6.88534C55.4392 6.88534 56.265 7.57456 56.265 8.67732C56.265 9.91792 54.985 10.6071 53.6706 10.2419L52.2942 11.2206C53.4321 12.6564 54.7719 13.9194 56.2719 14.9699L57.7446 13.943C56.9152 13.3137 56.1247 12.6347 55.3772 11.9098C56.1797 11.8309 56.924 11.4553 57.4648 10.8563C58.0056 10.2573 58.3041 9.47798 58.302 8.67043C58.302 6.44423 56.7192 4.86591 53.9596 4.86591C50.677 4.86591 47.9243 7.57456 47.9243 11.4273C47.9243 15.7074 51.0486 18.8709 55.5424 18.8709C60.4904 18.8985 64 15.1629 64 10.2005C64 4.30764 59.9192 0 53.6775 0C47.305 0 42.1162 4.9693 42.1162 11.958Z" fill="white"/>
</mask>
<g mask="url(#mask1_1160_1281)">
<path d="M56.8024 -10.2998L33.2502 6.2168L49.3153 29.1951L72.8674 12.6786L56.8024 -10.2998Z" fill="url(#paint1_linear_1160_1281)"/>
</g>
</g>
<defs>
<linearGradient id="paint0_linear_1160_1281" x1="5.61674" y1="39.9703" x2="43.3199" y2="13.6105" gradientUnits="userSpaceOnUse">
<stop stop-color="#C41974"/>
<stop offset="0.25" stop-color="#FF007F"/>
<stop offset="1" stop-color="#FF007F"/>
</linearGradient>
<linearGradient id="paint1_linear_1160_1281" x1="43.522" y1="16.9792" x2="62.2345" y2="3.89656" gradientUnits="userSpaceOnUse">
<stop stop-color="#FF007F"/>
<stop offset="0.5" stop-color="#FF007F"/>
<stop offset="1" stop-color="#FF593D"/>
</linearGradient>
<clipPath id="clip0_1160_1281">
<rect width="64" height="33" fill="white"/>
</clipPath>
</defs>
</svg>
