<svg width="115" height="23" viewBox="0 0 115 23" fill="none" xmlns="http://www.w3.org/2000/svg">
<path d="M29.4428 15.7877C29.347 15.7177 29.3086 15.5977 29.3278 15.4877L29.7111 13.8777C29.7303 13.7877 29.7878 13.7177 29.874 13.6877C29.9028 13.6777 29.9411 13.6677 29.9795 13.6677C30.0274 13.6677 30.0753 13.6777 30.1232 13.7077C30.6695 14.0577 32.107 14.8777 33.7745 14.8777C35.5953 14.8777 35.7103 14.0477 35.7103 13.3577C35.7103 12.5777 35.212 12.0577 33.3432 11.5577C31.024 10.9477 29.692 9.59766 29.692 7.84766C29.692 6.15766 30.8324 4.17765 34.0332 4.17765C35.9403 4.17765 37.5503 5.13765 37.6174 5.18765C37.7228 5.24765 37.7707 5.37766 37.742 5.49766L37.3586 7.05765C37.3395 7.14765 37.2724 7.21766 37.1957 7.24766C37.167 7.25766 37.1286 7.26766 37.0999 7.26766C37.0424 7.26766 36.9945 7.24766 36.9465 7.21766C36.1703 6.67766 35.0203 6.32766 34.0332 6.32766C32.3849 6.32766 32.1645 7.14766 32.1645 7.71766C32.1645 7.99766 32.0303 8.70766 34.2249 9.26766C36.8699 9.93766 38.317 11.2377 38.317 12.9277C38.317 15.4377 36.5153 17.0477 33.717 17.0477C31.2732 17.0477 29.5195 15.8377 29.4428 15.7877ZM94.207 15.2377C93.2007 16.3677 91.7345 17.0177 90.1628 17.0177C87.0386 17.0177 84.5853 14.1977 84.5853 10.6077C84.5853 7.00765 87.0386 4.19766 90.1628 4.19766C91.744 4.18766 93.2486 4.87765 94.3028 6.10765L94.3507 4.78765C94.3603 4.63765 94.4753 4.51766 94.619 4.51766H96.3153C96.459 4.51766 96.5836 4.63766 96.5836 4.79766V14.5577C96.5836 15.2477 96.8903 15.2477 97.0532 15.2677C97.1299 15.2677 97.2065 15.2577 97.2736 15.2377C97.312 15.2177 97.3599 15.2077 97.4078 15.1977C97.4557 15.1977 97.5036 15.2077 97.542 15.2377C97.6282 15.2877 97.6761 15.3777 97.6761 15.4777V16.3677C97.657 16.4677 97.609 16.5677 97.5324 16.6277C97.1778 16.9077 97.082 17.0177 96.3345 17.0177C95.194 17.0177 94.4465 16.3977 94.207 15.2377ZM86.914 10.6577C86.914 13.2377 88.4282 14.5577 90.5078 14.5577C92.6161 14.5577 93.9386 13.2377 93.9386 10.6577C93.9386 8.10765 92.6161 6.75765 90.5078 6.75765C88.3995 6.75765 86.914 8.10765 86.914 10.6577ZM48.6765 15.2377C47.6703 16.3677 46.204 17.0177 44.6324 17.0177C41.5082 17.0177 39.0549 14.1977 39.0549 10.6077C39.0549 7.00765 41.5082 4.19766 44.6324 4.19766C46.2136 4.18766 47.7182 4.87765 48.7724 6.10765L48.8203 4.78765C48.8299 4.63765 48.9449 4.51766 49.0886 4.51766H50.7849C50.9286 4.51766 51.0532 4.63766 51.0532 4.79766V14.5577C51.0532 15.2477 51.3599 15.2477 51.5228 15.2677C51.5995 15.2677 51.6761 15.2577 51.7432 15.2377C51.7815 15.2177 51.8295 15.2077 51.8774 15.1977C51.9253 15.1977 51.9732 15.2077 52.0115 15.2377C52.0978 15.2877 52.1457 15.3777 52.1457 15.4777V16.3677C52.1265 16.4677 52.0786 16.5677 52.002 16.6277C51.6474 16.9077 51.5515 17.0177 50.804 17.0177C49.6636 17.0177 48.9161 16.3977 48.6765 15.2377ZM41.3836 10.6577C41.3836 13.2377 42.8978 14.5577 44.9774 14.5577C47.0857 14.5577 48.4082 13.2377 48.4082 10.6577C48.4082 8.10765 47.0857 6.75765 44.9774 6.75765C42.869 6.75765 41.3836 8.10765 41.3836 10.6577ZM108.275 12.9477V6.47765H107.144C107.001 6.47765 106.876 6.34766 106.876 6.19766V4.79766C106.876 4.64766 107.001 4.51766 107.144 4.51766H108.275V2.02766C108.275 1.89766 108.362 1.77765 108.496 1.75765L110.451 1.35765C110.47 1.35765 110.489 1.34766 110.499 1.34766C110.556 1.34766 110.623 1.36765 110.671 1.40765C110.729 1.45765 110.767 1.53766 110.767 1.62766V4.51766H113.307C113.45 4.51766 113.575 4.64766 113.575 4.79766V6.19766C113.575 6.34766 113.45 6.47765 113.307 6.47765H110.767V13.1677C110.767 14.5877 111.122 14.8477 111.783 14.8477C112.358 14.8577 112.914 14.6877 113.393 14.3477C113.431 14.3177 113.489 14.3077 113.537 14.3077C113.575 14.3077 113.604 14.3177 113.632 14.3277C113.709 14.3577 113.767 14.4277 113.795 14.5177L114.054 15.5977C114.073 15.6977 114.044 15.7977 113.977 15.8677C113.46 16.3977 112.415 17.0177 111.141 17.0177C108.572 17.0177 108.275 14.6977 108.275 12.9477ZM70.9386 16.9377C70.747 16.8877 70.5553 16.8077 70.3828 16.6977C69.8461 16.3577 69.4628 15.7977 69.3286 15.1577V9.66766C69.3286 7.03766 68.5236 6.50765 67.2299 6.50765C65.7732 6.50765 64.0674 7.83765 64.0674 9.55765V16.4177C64.0674 16.5677 63.9428 16.6977 63.799 16.6977H61.844C61.7003 16.6977 61.5757 16.5677 61.5757 16.4177V9.66766C61.5757 7.03766 60.7707 6.50765 59.477 6.50765C58.0203 6.50765 56.3145 7.83765 56.3145 9.55765V16.4177C56.3145 16.5677 56.1995 16.6977 56.0461 16.6977H54.0911C53.9474 16.6977 53.8228 16.5677 53.8228 16.4177V6.92766C53.8228 6.23766 53.5161 6.19765 53.3436 6.18765C53.267 6.18765 53.1903 6.19766 53.1232 6.21766C53.0849 6.23766 53.037 6.24765 52.989 6.25765C52.9411 6.25765 52.8932 6.24766 52.8549 6.21766C52.7686 6.16766 52.7207 6.07766 52.7207 5.97765V5.08765C52.7399 4.98765 52.7878 4.88766 52.8645 4.82766C53.219 4.54766 53.3149 4.43765 54.0528 4.43765C54.2732 4.43765 54.484 4.45766 54.6949 4.51766C55.4615 4.71766 55.9407 5.31765 56.1324 6.23765C57.177 4.91765 58.5282 4.19766 60.004 4.19766C61.844 4.19766 63.0324 4.96766 63.6265 6.54766C64.8149 5.00766 66.2428 4.19766 67.7857 4.19766C70.4978 4.19766 71.8203 5.93765 71.8203 9.50765V14.6377C71.849 15.2077 72.1365 15.2477 72.2899 15.2577C72.3665 15.2577 72.4432 15.2477 72.5103 15.2277C72.5486 15.2077 72.5965 15.1977 72.6445 15.1877C72.6924 15.1877 72.7403 15.1977 72.7786 15.2277C72.8649 15.2777 72.9128 15.3677 72.9128 15.4677V16.3577C72.8936 16.4577 72.8457 16.5577 72.769 16.6177C72.4145 16.8977 72.3186 17.0077 71.5711 17.0077C71.3603 17.0177 71.1495 16.9877 70.9386 16.9377ZM73.4303 10.8877C73.2386 7.11765 75.5961 4.34765 79.1707 4.15765C80.8286 4.06765 82.017 4.35766 83.2724 5.16766C83.349 5.21766 83.397 5.29765 83.397 5.38765L83.4928 7.23765C83.5024 7.34765 83.4449 7.45766 83.349 7.49766C83.3203 7.51766 83.282 7.52766 83.2436 7.52766C83.1765 7.52766 83.1095 7.50766 83.0615 7.46766C81.902 6.45766 80.474 6.44765 79.4774 6.50765C77.2732 6.62765 75.9986 8.52766 76.0753 10.7477C76.152 12.9777 77.6949 14.6977 79.899 14.5777C80.8957 14.5277 82.3045 14.3577 83.3586 13.2277C83.4065 13.1777 83.4736 13.1477 83.5407 13.1477C83.579 13.1477 83.6174 13.1477 83.6461 13.1677C83.742 13.2077 83.809 13.3077 83.8186 13.4177L83.9145 15.2677C83.9145 15.3577 83.8761 15.4477 83.809 15.5077C82.6495 16.4477 81.4899 16.8677 79.832 16.9577C79.6978 16.9677 79.5732 16.9677 79.4486 16.9677C76.0561 16.9777 73.6124 14.5277 73.4303 10.8877ZM99.4011 16.6977C99.2574 16.6977 99.1328 16.5777 99.1328 16.4177V4.79766C99.1328 4.64766 99.2574 4.51766 99.4011 4.51766H101.097C101.241 4.51766 101.356 4.63766 101.366 4.77766L101.442 6.17766C102.382 4.97766 103.963 4.46766 105.554 4.46766C105.697 4.46766 105.822 4.58766 105.822 4.74766V6.53765C105.822 6.61765 105.784 6.69766 105.726 6.74766C105.678 6.78766 105.621 6.80765 105.554 6.80765C105.534 6.80765 105.525 6.80765 105.506 6.80765C105.257 6.75765 105.017 6.73765 104.768 6.73765C103.004 6.73765 101.624 8.30766 101.624 9.77766V16.4077C101.624 16.5577 101.5 16.6877 101.356 16.6877L99.4011 16.6977Z" fill="white"/>
<path d="M11.135 3.65239L6.25704 5.16238C6.15162 5.19238 6.15162 5.34239 6.25704 5.37239L11.135 6.89238C11.202 6.91238 11.2691 6.8624 11.2691 6.7824V3.75239C11.2691 3.68239 11.202 3.63239 11.135 3.65239Z" fill="#0086FA"/>
<path d="M12.3227 18.6226C11.4218 18.6226 10.7222 19.4826 10.9139 20.4526C11.0289 21.0226 11.4697 21.4826 12.016 21.6026C12.9456 21.8026 13.7697 21.0726 13.7697 20.1326C13.7602 19.3026 13.1181 18.6226 12.3227 18.6226Z" fill="#0086FA"/>
<path d="M20.976 16.1128C20.0751 16.1128 19.3756 16.9728 19.5672 17.9428C19.6822 18.5228 20.1422 18.9828 20.6981 19.0928C21.781 19.3028 22.701 18.2528 22.3368 17.1028C22.1451 16.5028 21.5893 16.1128 20.976 16.1128Z" fill="#0086FA"/>
<path d="M3.66935 16.1128C2.76851 16.1128 2.06892 16.9728 2.26059 17.9428C2.37559 18.5228 2.83559 18.9828 3.39143 19.0928C4.47434 19.3028 5.39434 18.2528 5.03018 17.1028C4.83851 16.5028 4.2731 16.1128 3.66935 16.1128Z" fill="#0086FA"/>
<path d="M2.22179 12.7826C2.22179 13.4826 2.66262 14.0925 3.29512 14.2925L11.8818 16.9826C12.1693 17.0726 12.4664 17.0726 12.7539 16.9826L21.3405 14.2925C21.9826 14.0925 22.4139 13.4826 22.4139 12.7826V5.64255C22.4139 5.45255 22.2414 5.32255 22.0689 5.37255L12.6964 8.29255C12.4472 8.37255 12.1789 8.37255 11.9393 8.29255L3.45803 5.65256L2.86387 5.47255C2.67221 5.41255 2.67221 5.13255 2.86387 5.07255L12.0639 2.22255C12.1885 2.18255 12.3226 2.28255 12.3226 2.42255V6.86254C12.3226 7.00254 12.4472 7.10254 12.5814 7.06254L20.411 4.63256L21.0051 4.45256C21.1968 4.39256 21.1968 4.11256 21.0051 4.05256L12.543 1.40256C12.3993 1.36256 12.246 1.36256 12.1022 1.40256L1.69471 4.67255C1.13888 4.84255 0.832203 5.48254 1.05262 6.06254C1.16762 6.37254 1.44554 6.59255 1.75221 6.69255L2.23137 6.84255" fill="#0086FA"/>
</svg>
