<svg width="135" height="40" viewBox="0 0 135 40" fill="none" xmlns="http://www.w3.org/2000/svg">
<path fill-rule="evenodd" clip-rule="evenodd" d="M14.696 13.4045L19.1329 17.8835C19.2244 17.9763 19.3335 18.05 19.4538 18.1003C19.5741 18.1506 19.7032 18.1765 19.8335 18.1765C19.9639 18.1765 20.093 18.1506 20.2133 18.1003C20.3335 18.05 20.4426 17.9763 20.5342 17.8835L24.9711 13.4045C25.1574 13.2163 25.2619 12.9621 25.2619 12.6973C25.2619 12.4324 25.1574 12.1782 24.9711 11.99L20.5329 7.51103C20.4413 7.41821 20.3322 7.34452 20.2119 7.29421C20.0917 7.24391 19.9626 7.21801 19.8322 7.21801C19.7018 7.21801 19.5728 7.24391 19.4525 7.29421C19.3322 7.34452 19.2231 7.41821 19.1315 7.51103L14.6947 11.99C14.509 12.1786 14.4049 12.4326 14.4049 12.6973C14.4049 12.9619 14.509 13.2159 14.6947 13.4045H14.696ZM12.242 10.9295C12.3336 11.0223 12.4427 11.096 12.563 11.1463C12.6832 11.1966 12.8123 11.2225 12.9427 11.2225C13.0731 11.2225 13.2021 11.1966 13.3224 11.1463C13.4427 11.096 13.5518 11.0223 13.6434 10.9295L18.0815 6.45049C18.268 6.26205 18.3725 6.00767 18.3725 5.74259C18.3725 5.47752 18.268 5.22314 18.0815 5.03469L13.6434 0.555714C13.5518 0.4629 13.4427 0.389202 13.3224 0.3389C13.2021 0.288598 13.0731 0.262695 12.9427 0.262695C12.8123 0.262695 12.6832 0.288598 12.563 0.3389C12.4427 0.389202 12.3336 0.4629 12.242 0.555714L7.80646 5.03469C7.61973 5.22298 7.51495 5.47741 7.51495 5.74259C7.51495 6.00777 7.61973 6.26221 7.80646 6.45049L12.242 10.9295ZM12.242 14.4663L7.80646 18.9453C7.61973 19.1336 7.51495 19.388 7.51495 19.6532C7.51495 19.9184 7.61973 20.1728 7.80646 20.3611L12.242 24.8388C12.3335 24.9318 12.4426 25.0056 12.5628 25.056C12.6831 25.1064 12.8123 25.1324 12.9427 25.1324C13.0731 25.1324 13.2022 25.1064 13.3225 25.056C13.4428 25.0056 13.5519 24.9318 13.6434 24.8388L18.0815 20.3611C18.268 20.1727 18.3725 19.9183 18.3725 19.6532C18.3725 19.3881 18.268 19.1338 18.0815 18.9453L13.6434 14.4663C13.5518 14.3735 13.4427 14.2998 13.3224 14.2495C13.2021 14.1992 13.0731 14.1733 12.9427 14.1733C12.8123 14.1733 12.6832 14.1992 12.563 14.2495C12.4427 14.2998 12.3336 14.3735 12.242 14.4663ZM5.3525 17.8848C5.44406 17.9776 5.55315 18.0513 5.67343 18.1016C5.79371 18.1519 5.92279 18.1778 6.05316 18.1778C6.18354 18.1778 6.31261 18.1519 6.4329 18.1016C6.55318 18.0513 6.66226 17.9776 6.75383 17.8848L11.1907 13.4058C11.3765 13.217 11.4806 12.9628 11.4806 12.6979C11.4806 12.433 11.3765 12.1788 11.1907 11.99L6.75383 7.51234C6.66236 7.41937 6.5533 7.34553 6.433 7.29513C6.31271 7.24472 6.18359 7.21877 6.05316 7.21877C5.92274 7.21877 5.79361 7.24472 5.67332 7.29513C5.55303 7.34553 5.44397 7.41937 5.3525 7.51234L0.915624 11.99C0.729205 12.1785 0.624645 12.4328 0.624645 12.6979C0.624645 12.963 0.729205 13.2174 0.915624 13.4058L5.3525 17.8848ZM20.5342 21.4217C20.4426 21.3288 20.3335 21.2551 20.2133 21.2048C20.093 21.1545 19.9639 21.1286 19.8335 21.1286C19.7032 21.1286 19.5741 21.1545 19.4538 21.2048C19.3335 21.2551 19.2244 21.3288 19.1329 21.4217L14.6947 25.9006C14.509 26.0892 14.4049 26.3432 14.4049 26.6079C14.4049 26.8725 14.509 27.1266 14.6947 27.3151L19.1329 31.7941C19.2245 31.8868 19.3336 31.9603 19.4539 32.0105C19.5742 32.0607 19.7032 32.0866 19.8335 32.0866C19.9639 32.0866 20.0929 32.0607 20.2132 32.0105C20.3334 31.9603 20.4425 31.8868 20.5342 31.7941L24.9711 27.3151C25.1578 27.1268 25.2626 26.8724 25.2626 26.6072C25.2626 26.342 25.1578 26.0876 24.9711 25.8993L20.5342 21.4217ZM13.6434 28.3757C13.5518 28.2828 13.4427 28.2091 13.3224 28.1588C13.2021 28.1085 13.0731 28.0826 12.9427 28.0826C12.8123 28.0826 12.6832 28.1085 12.563 28.1588C12.4427 28.2091 12.3336 28.2828 12.242 28.3757L7.80515 32.8546C7.61873 33.0431 7.51417 33.2975 7.51417 33.5625C7.51417 33.8276 7.61873 34.082 7.80515 34.2704L12.242 38.7494C12.3336 38.8422 12.4427 38.9159 12.563 38.9662C12.6832 39.0165 12.8123 39.0424 12.9427 39.0424C13.0731 39.0424 13.2021 39.0165 13.3224 38.9662C13.4427 38.9159 13.5518 38.8422 13.6434 38.7494L18.0815 34.2704C18.2683 34.0822 18.3731 33.8277 18.3731 33.5625C18.3731 33.2974 18.2683 33.0429 18.0815 32.8546L13.6434 28.3757ZM11.192 25.9006L6.75383 21.4217C6.66226 21.3288 6.55318 21.2551 6.4329 21.2048C6.31261 21.1545 6.18354 21.1286 6.05316 21.1286C5.92279 21.1286 5.79371 21.1545 5.67343 21.2048C5.55315 21.2551 5.44406 21.3288 5.3525 21.4217L0.914308 25.9006C0.728603 26.0892 0.624512 26.3432 0.624512 26.6079C0.624512 26.8725 0.728603 27.1266 0.914308 27.3151L5.35118 31.7941C5.44295 31.8868 5.55218 31.9604 5.67255 32.0106C5.79293 32.0608 5.92207 32.0867 6.0525 32.0867C6.18294 32.0867 6.31208 32.0608 6.43245 32.0106C6.55283 31.9604 6.66206 31.8868 6.75383 31.7941L11.1907 27.3164C11.3764 27.1279 11.4805 26.8738 11.4805 26.6092C11.4805 26.3445 11.3764 26.0905 11.1907 25.902L11.192 25.9006Z" fill="#E6C3A5"/>
<path fill-rule="evenodd" clip-rule="evenodd" d="M49.6391 23.8414C49.6391 23.4302 49.555 23.0679 49.3853 22.7557C49.2081 22.4318 48.9627 22.1503 48.666 21.9306C48.3265 21.675 47.9551 21.4647 47.5613 21.3049C47.1044 21.1173 46.6383 20.9529 46.1648 20.8123C45.484 20.6116 44.8175 20.3654 44.1698 20.0753C43.5394 19.7974 42.9496 19.4353 42.4163 18.9991C41.911 18.5871 41.4875 18.084 41.1678 17.5157C40.8502 16.9485 40.6928 16.293 40.6928 15.5479C40.6928 14.8042 40.8502 14.1364 41.1678 13.5461C41.4822 12.9597 41.918 12.4471 42.4462 12.0423C42.9796 11.6311 43.5998 11.3149 44.3055 11.0923C45.0219 10.8686 45.7685 10.7565 46.519 10.7598C47.3428 10.7598 48.1137 10.8874 48.833 11.1453C49.5495 11.4031 50.1779 11.7628 50.714 12.2269C51.2528 12.6911 51.6789 13.2448 51.9924 13.8908C52.2747 14.4717 52.4335 15.1068 52.4674 15.8003C52.4683 15.8306 52.4632 15.8607 52.4523 15.889C52.4414 15.9173 52.425 15.9431 52.404 15.965C52.3831 15.9868 52.3579 16.0043 52.3301 16.0163C52.3023 16.0284 52.2724 16.0347 52.2421 16.0351H49.8495C49.7945 16.0341 49.7418 16.0132 49.7011 15.9763C49.6604 15.9393 49.6345 15.8888 49.6283 15.8342C49.5854 15.4937 49.4997 15.1599 49.3731 14.8408C49.2351 14.4917 49.0273 14.1744 48.7624 13.9084C48.4886 13.6406 48.1611 13.4338 47.8015 13.3018C47.3822 13.1529 46.9395 13.0807 46.4946 13.0887C46.0712 13.0887 45.6803 13.143 45.3179 13.2543C44.9772 13.3552 44.6592 13.5211 44.3815 13.7429C44.1218 13.9516 43.911 14.2147 43.764 14.5137C43.6147 14.815 43.5401 15.1557 43.5401 15.5357C43.5401 15.9401 43.6432 16.2902 43.8468 16.5888C44.0504 16.8847 44.3164 17.1452 44.6475 17.3665C44.9759 17.5877 45.3546 17.7804 45.7834 17.9419C46.2096 18.1047 46.6561 18.254 47.1189 18.3898C47.8327 18.6015 48.5167 18.8648 49.1668 19.1796C49.8183 19.4918 50.391 19.8677 50.8863 20.3061C51.3803 20.7458 51.7726 21.2561 52.063 21.8342C52.3534 22.4124 52.4986 23.0746 52.4986 23.8184C52.4986 24.5879 52.3385 25.2637 52.0168 25.8514C51.6993 26.4322 51.2566 26.9352 50.7208 27.3239C50.1793 27.7202 49.5522 28.0201 48.8384 28.221C47.6001 28.5686 46.2974 28.6198 45.0356 28.3703C44.5239 28.2693 44.0244 28.1141 43.5455 27.9075C43.0762 27.7034 42.6322 27.4457 42.2223 27.1393C41.8182 26.8394 41.459 26.4834 41.1555 26.0821C40.5605 25.2881 40.2207 24.3321 40.1811 23.3406C40.1798 23.3103 40.1847 23.28 40.1955 23.2515C40.2062 23.2231 40.2226 23.1971 40.2436 23.1752C40.2647 23.1532 40.29 23.1358 40.3179 23.1239C40.3459 23.112 40.376 23.1058 40.4064 23.1059H42.8181C42.9266 23.1059 43.0176 23.19 43.0284 23.2999C43.08 23.741 43.1872 24.1332 43.3514 24.4712C43.5414 24.8607 43.7911 25.1837 44.106 25.4402C44.4195 25.698 44.7873 25.8921 45.2053 26.0237C45.626 26.154 46.0902 26.2192 46.6004 26.2192C47.0252 26.2192 47.4215 26.1676 47.7907 26.0645C48.1598 25.9627 48.4801 25.8093 48.7542 25.6071C49.0297 25.4049 49.2469 25.1552 49.403 24.8579C49.5604 24.5607 49.6391 24.2228 49.6391 23.8414ZM66.7121 20.5381H59.8788V25.9695H67.9105C68.0326 25.9695 68.1303 26.0685 68.1303 26.1907V28.0771C68.1303 28.1993 68.034 28.2983 67.9105 28.2983H57.2622C57.2039 28.2983 57.148 28.2752 57.1068 28.2339C57.0655 28.1927 57.0424 28.1368 57.0424 28.0785V11.2172C57.0424 11.0951 57.1401 10.9973 57.2622 10.9973H67.8304C67.9525 10.9973 68.0489 11.0951 68.0489 11.2172V13.1294C68.0492 13.1582 68.0439 13.1867 68.0331 13.2134C68.0224 13.24 68.0065 13.2643 67.9863 13.2847C67.9661 13.3052 67.942 13.3214 67.9155 13.3325C67.8889 13.3436 67.8605 13.3493 67.8317 13.3493H59.8788V18.2337H66.7134C66.8329 18.2337 66.9306 18.3328 66.9306 18.4535V20.3196C66.9306 20.4418 66.8315 20.5381 66.7121 20.5381ZM84.9577 13.3506H79.9131V28.0798C79.9131 28.2006 79.814 28.2997 79.6946 28.2997H77.3182C77.2895 28.2995 77.2612 28.2937 77.2347 28.2825C77.2083 28.2714 77.1843 28.2551 77.1641 28.2347C77.144 28.2143 77.128 28.1901 77.1172 28.1635C77.1064 28.137 77.1009 28.1085 77.1011 28.0798V13.3493H72.0918C72.0629 13.3495 72.0343 13.3439 72.0075 13.3329C71.9807 13.3219 71.9564 13.3057 71.936 13.2853C71.9155 13.2648 71.8993 13.2405 71.8884 13.2138C71.8774 13.187 71.8718 13.1583 71.872 13.1294V11.2172C71.872 11.0951 71.9697 10.9973 72.0918 10.9973H84.9577C85.0771 10.9973 85.1748 11.0951 85.1748 11.2172V13.1294C85.1752 13.1582 85.1698 13.1867 85.1591 13.2134C85.1483 13.24 85.1324 13.2643 85.1122 13.2847C85.092 13.3052 85.0679 13.3214 85.0414 13.3325C85.0149 13.3436 84.9864 13.3506 84.9577 13.3506ZM97.4977 24.2825H92.1438L91.0119 28.1409C90.999 28.1864 90.9716 28.2265 90.9339 28.2552C90.8962 28.2838 90.8503 28.2994 90.8029 28.2997H88.3465C88.3118 28.2992 88.2778 28.2907 88.2471 28.2747C88.2164 28.2586 88.1899 28.2357 88.1697 28.2075C88.1495 28.1794 88.1362 28.147 88.1308 28.1128C88.1255 28.0785 88.1282 28.0436 88.1388 28.0106L93.5661 11.1493C93.58 11.1052 93.6076 11.0666 93.645 11.0393C93.6823 11.0119 93.7274 10.9972 93.7737 10.9973H95.9397C95.9862 10.9973 96.0314 11.0122 96.0688 11.0398C96.1062 11.0674 96.1337 11.1063 96.1474 11.1507L101.47 28.0106C101.481 28.0435 101.484 28.0784 101.478 28.1126C101.473 28.1467 101.46 28.1791 101.439 28.2071C101.419 28.2352 101.393 28.258 101.362 28.2739C101.331 28.2897 101.297 28.2981 101.262 28.2983H98.8169C98.7696 28.2979 98.7237 28.282 98.6862 28.2531C98.6487 28.2242 98.6217 28.1839 98.6093 28.1382L97.5005 24.2825H97.4977ZM92.8604 21.8464H96.7934L94.8513 15.0607L92.8604 21.8464ZM108.936 21.67V28.0798C108.936 28.2006 108.838 28.2997 108.717 28.2997H106.329C106.271 28.2993 106.215 28.276 106.174 28.2348C106.133 28.1936 106.11 28.1379 106.11 28.0798V11.2172C106.11 11.0951 106.208 10.9973 106.327 10.9973H111.843C112.698 11.0041 113.489 11.1331 114.215 11.3828C114.941 11.6338 115.567 11.9894 116.093 12.4522C116.619 12.9164 117.029 13.4796 117.323 14.1391C117.618 14.8014 117.764 15.5479 117.764 16.3798C117.764 17.1873 117.618 17.9161 117.323 18.5662C117.029 19.2176 116.619 19.7713 116.093 20.2301C115.567 20.6901 114.94 21.043 114.215 21.2886C113.45 21.5404 112.649 21.6687 111.843 21.6686L108.936 21.67ZM108.936 19.3642H111.843C112.323 19.3642 112.749 19.2909 113.127 19.1443C113.504 18.9978 113.824 18.7942 114.093 18.5323C114.359 18.2703 114.563 17.9582 114.704 17.5931C114.845 17.2294 114.915 16.8331 114.915 16.4056C114.915 15.9537 114.845 15.537 114.702 15.157C114.57 14.7905 114.362 14.4561 114.092 14.1758C113.818 13.8992 113.49 13.6829 113.128 13.5406C112.718 13.3845 112.282 13.304 111.843 13.3031H108.936V19.3642ZM124.524 21.6686V27.9685C124.524 28.0558 124.49 28.1396 124.429 28.2017C124.368 28.2637 124.284 28.299 124.197 28.2997H122.026C121.982 28.2993 121.94 28.2905 121.9 28.2736C121.86 28.2568 121.824 28.2323 121.794 28.2016C121.764 28.1708 121.74 28.1344 121.724 28.0944C121.708 28.0544 121.7 28.0117 121.7 27.9685V11.3285C121.7 11.1453 121.845 10.9973 122.026 10.9973H127.432C128.287 11.0041 129.079 11.1331 129.805 11.3828C130.531 11.6338 131.157 11.9894 131.682 12.4522C132.208 12.9164 132.618 13.4796 132.913 14.1391C133.207 14.8014 133.355 15.5479 133.355 16.3798C133.355 17.1873 133.207 17.9161 132.913 18.5662C132.618 19.2176 132.207 19.7713 131.683 20.2301C131.133 20.7035 130.495 21.0633 129.805 21.2886C129.039 21.5402 128.238 21.6685 127.432 21.6686H124.524ZM124.524 19.3642H127.432C127.912 19.3642 128.339 19.2909 128.715 19.1443C129.092 18.9978 129.414 18.7942 129.68 18.5323C129.947 18.2703 130.152 17.9582 130.293 17.5931C130.434 17.2294 130.505 16.8331 130.505 16.4056C130.505 15.9537 130.434 15.537 130.293 15.157C130.16 14.7903 129.951 14.4559 129.68 14.1758C129.407 13.8986 129.078 13.6822 128.715 13.5406C128.305 13.3846 127.871 13.3041 127.432 13.3031H124.525V19.3628L124.524 19.3642Z" fill="#2E2E33"/>
</svg>
