<svg width="187" height="60" viewBox="0 0 187 60" fill="none" xmlns="http://www.w3.org/2000/svg">
<rect width="187" height="60" rx="20" fill="#5C51A5"/>
<g clip-path="url(#clip0_1160_1110)">
<path d="M33.58 17.9858H37.398V42.0423H33.58V17.9858Z" fill="white"/>
<path d="M50.678 34.4188C50.678 38.1459 47.69 38.4847 46.694 38.4847C44.37 38.4847 44.038 36.2823 44.038 35.0965V25.7788H40.22V34.927C40.22 37.1294 40.884 39.1623 42.212 40.3482C43.374 41.5341 44.868 42.0423 46.694 42.0423C48.022 42.0423 49.682 41.7035 50.678 40.687V42.0423H54.496V25.7788H50.678V34.4188Z" fill="white"/>
<path d="M61.9659 19.8496H58.1479V25.779H55.3259V29.5061H58.1479V42.0425H61.9659V29.5061H64.7879V25.779H61.9659V19.8496Z" fill="white"/>
<path d="M76.74 37.1294C75.91 37.807 74.748 38.3152 73.586 38.3152C70.93 38.3152 69.104 36.2823 69.104 33.5717C69.104 30.8611 70.93 28.9976 73.586 28.9976C74.748 28.9976 75.91 29.3364 76.74 30.1835L77.238 30.6917L79.894 28.1505L79.23 27.6423C77.736 26.287 75.744 25.4399 73.586 25.4399C68.938 25.4399 65.452 28.9976 65.452 33.7411C65.452 38.4846 68.938 42.0423 73.586 42.0423C75.744 42.0423 77.736 41.1952 79.23 39.8399L79.894 39.3317L77.238 36.6211L76.74 37.1294Z" fill="white"/>
<path d="M93.34 27.1341C92.178 25.9482 91.016 25.44 89.19 25.44C87.862 25.44 86.534 25.7788 85.538 26.7952V17.9858H81.72V42.0423H85.538V33.0635C85.538 29.3364 88.028 28.9976 89.024 28.9976C91.348 28.9976 91.182 31.2 91.182 32.3858V41.8729H95V32.5553C95 30.3529 94.502 28.32 93.34 27.1341Z" fill="white"/>
<path d="M73.4202 36.4519C74.887 36.4519 76.0762 35.2384 76.0762 33.7414C76.0762 32.2443 74.887 31.0308 73.4202 31.0308C71.9533 31.0308 70.7642 32.2443 70.7642 33.7414C70.7642 35.2384 71.9533 36.4519 73.4202 36.4519Z" fill="#EF4335"/>
<path d="M28.268 36.1127C26.94 37.468 24.948 38.3151 22.79 38.3151C18.64 38.3151 15.652 34.9268 15.652 30.3527C15.652 25.7786 18.64 22.3904 22.956 22.3904C24.948 22.3904 26.94 23.2374 28.434 24.7621L28.932 25.2704L31.422 22.7292L30.924 22.221C28.766 20.0186 25.944 18.8327 22.956 18.8327C16.648 18.6633 12 23.7457 12 30.3527C12 36.9598 16.648 42.0421 22.79 42.0421C25.778 42.0421 28.766 40.8563 30.758 38.6539L31.256 38.1457L28.766 35.6045L28.268 36.1127Z" fill="white"/>
</g>
<path d="M112.767 28.14C112.076 28.14 111.469 27.9953 110.947 27.706C110.433 27.4167 110.051 27.0013 109.799 26.46L110.443 25.662C110.667 26.0913 110.984 26.4273 111.395 26.67C111.805 26.9033 112.249 27.02 112.725 27.02C113.313 27.02 113.779 26.8567 114.125 26.53C114.479 26.2033 114.657 25.7787 114.657 25.256C114.657 24.7333 114.47 24.318 114.097 24.01C113.733 23.702 113.252 23.548 112.655 23.548H111.885V22.428H112.585C113.042 22.428 113.434 22.2693 113.761 21.952C114.106 21.6347 114.279 21.2287 114.279 20.734C114.279 20.2487 114.134 19.8707 113.845 19.6C113.565 19.32 113.177 19.18 112.683 19.18C111.796 19.18 111.124 19.586 110.667 20.398L110.037 19.628C110.261 19.1333 110.611 18.7507 111.087 18.48C111.572 18.2 112.132 18.06 112.767 18.06C113.588 18.06 114.241 18.284 114.727 18.732C115.221 19.18 115.469 19.782 115.469 20.538C115.469 21.0793 115.338 21.5553 115.077 21.966C114.815 22.3767 114.437 22.6847 113.943 22.89V22.932C114.521 23.0253 114.983 23.2913 115.329 23.73C115.674 24.1687 115.847 24.6913 115.847 25.298C115.847 26.1567 115.557 26.8473 114.979 27.37C114.409 27.8833 113.672 28.14 112.767 28.14ZM123.368 28H117.39V27.09C118.659 25.8487 119.592 24.8593 120.19 24.122C121.244 22.7967 121.772 21.686 121.772 20.79C121.772 20.3233 121.627 19.9453 121.338 19.656C121.058 19.3573 120.67 19.208 120.176 19.208C119.746 19.208 119.368 19.348 119.042 19.628C118.724 19.8987 118.519 20.2813 118.426 20.776L117.474 20.384C117.586 19.684 117.898 19.1287 118.412 18.718C118.934 18.298 119.555 18.088 120.274 18.088C121.132 18.088 121.795 18.3353 122.262 18.83C122.728 19.3247 122.962 19.9033 122.962 20.566C122.962 21.826 122.36 23.1653 121.156 24.584C120.614 25.2187 120.18 25.6947 119.854 26.012C119.574 26.292 119.238 26.6047 118.846 26.95H123.368V28ZM129.415 28H128.295V21.7H129.415V22.442C129.788 21.8727 130.316 21.588 130.997 21.588C131.436 21.588 131.762 21.6673 131.977 21.826L131.585 22.876C131.314 22.7173 131.03 22.638 130.731 22.638C130.162 22.638 129.723 22.9367 129.415 23.534V28ZM138.023 26.432L138.373 27.314C137.766 27.8647 136.978 28.14 136.007 28.14C134.98 28.14 134.164 27.8413 133.557 27.244C132.941 26.6467 132.633 25.8487 132.633 24.85C132.633 23.9073 132.922 23.1233 133.501 22.498C134.07 21.8727 134.864 21.56 135.881 21.56C136.721 21.56 137.416 21.8307 137.967 22.372C138.527 22.904 138.807 23.5947 138.807 24.444C138.807 24.7147 138.784 24.9667 138.737 25.2H133.893C133.94 25.788 134.159 26.25 134.551 26.586C134.952 26.922 135.466 27.09 136.091 27.09C136.912 27.09 137.556 26.8707 138.023 26.432ZM135.825 22.61C135.274 22.61 134.817 22.764 134.453 23.072C134.098 23.38 133.888 23.786 133.823 24.29H137.645C137.617 23.7673 137.44 23.3567 137.113 23.058C136.796 22.7593 136.366 22.61 135.825 22.61ZM144.517 21.7H145.707L142.921 28.056H142.109L139.183 21.7H140.499L142.025 25.102C142.203 25.494 142.38 25.9607 142.557 26.502C142.688 26.0633 142.861 25.5873 143.075 25.074L144.517 21.7ZM148.207 28H147.087V21.7H148.207V28ZM146.947 19.334C146.947 19.138 147.017 18.9793 147.157 18.858C147.297 18.7273 147.47 18.662 147.675 18.662C147.871 18.662 148.035 18.7273 148.165 18.858C148.296 18.9793 148.361 19.138 148.361 19.334C148.361 19.5487 148.296 19.726 148.165 19.866C148.035 19.9967 147.871 20.062 147.675 20.062C147.47 20.062 147.297 19.9967 147.157 19.866C147.017 19.726 146.947 19.5487 146.947 19.334ZM155.496 26.432L155.846 27.314C155.239 27.8647 154.45 28.14 153.48 28.14C152.453 28.14 151.636 27.8413 151.03 27.244C150.414 26.6467 150.106 25.8487 150.106 24.85C150.106 23.9073 150.395 23.1233 150.974 22.498C151.543 21.8727 152.336 21.56 153.354 21.56C154.194 21.56 154.889 21.8307 155.44 22.372C156 22.904 156.28 23.5947 156.28 24.444C156.28 24.7147 156.256 24.9667 156.21 25.2H151.366C151.412 25.788 151.632 26.25 152.024 26.586C152.425 26.922 152.938 27.09 153.564 27.09C154.385 27.09 155.029 26.8707 155.496 26.432ZM153.298 22.61C152.747 22.61 152.29 22.764 151.926 23.072C151.571 23.38 151.361 23.786 151.296 24.29H155.118C155.09 23.7673 154.912 23.3567 154.586 23.058C154.268 22.7593 153.839 22.61 153.298 22.61ZM165.401 21.7H166.535L164.519 28.056H163.539L161.971 23.954C161.896 23.758 161.817 23.5013 161.733 23.184C161.649 23.492 161.56 23.7627 161.467 23.996L159.941 28.056H159.017L156.931 21.7H158.135L159.367 25.676C159.386 25.7413 159.409 25.8347 159.437 25.956C159.474 26.0773 159.507 26.2033 159.535 26.334C159.572 26.4553 159.596 26.53 159.605 26.558C159.773 25.9793 159.862 25.6853 159.871 25.676L161.299 21.7H162.265L163.707 25.662L164.001 26.572C164.066 26.2547 164.15 25.9327 164.253 25.606L165.401 21.7ZM170.876 26.292C170.876 26.068 170.759 25.8813 170.526 25.732C170.292 25.5827 170.008 25.4613 169.672 25.368C169.345 25.2653 169.014 25.1487 168.678 25.018C168.342 24.8873 168.057 24.682 167.824 24.402C167.59 24.1127 167.474 23.758 167.474 23.338C167.474 22.806 167.67 22.3767 168.062 22.05C168.454 21.7233 168.972 21.56 169.616 21.56C170.54 21.56 171.263 21.8073 171.786 22.302L171.254 23.156C170.787 22.7453 170.26 22.54 169.672 22.54C169.373 22.54 169.13 22.6147 168.944 22.764C168.757 22.9133 168.664 23.1 168.664 23.324C168.664 23.5667 168.78 23.7673 169.014 23.926C169.247 24.0753 169.527 24.2013 169.854 24.304C170.19 24.3973 170.526 24.5093 170.862 24.64C171.198 24.7613 171.482 24.9573 171.716 25.228C171.949 25.4987 172.066 25.8347 172.066 26.236C172.066 26.8613 171.832 27.3373 171.366 27.664C170.908 27.9813 170.33 28.14 169.63 28.14C169.135 28.14 168.664 28.0373 168.216 27.832C167.758 27.6173 167.455 27.3933 167.306 27.16L167.936 26.362C168.122 26.5767 168.393 26.7633 168.748 26.922C169.121 27.0807 169.457 27.16 169.756 27.16C170.082 27.16 170.348 27.0853 170.554 26.936C170.768 26.7773 170.876 26.5627 170.876 26.292Z" fill="white"/>
<path d="M115.123 39.536L118.37 40.0278C118.643 40.0746 118.87 40.262 118.961 40.543C119.051 40.8006 118.983 41.105 118.779 41.2923L116.417 43.7043L116.985 47.1232C117.03 47.4043 116.917 47.6853 116.69 47.8492C116.463 48.0365 116.168 48.0365 115.918 47.9194L113.011 46.3036L110.082 47.9194C109.855 48.0365 109.537 48.0365 109.333 47.8492C109.106 47.6853 108.992 47.4043 109.038 47.1232L109.583 43.7043L107.221 41.2923C107.017 41.105 106.949 40.8006 107.039 40.543C107.13 40.262 107.357 40.0746 107.63 40.0278L110.9 39.536L112.353 36.4215C112.466 36.1639 112.716 36 113.011 36C113.284 36 113.534 36.1639 113.647 36.4215L115.123 39.536Z" fill="#EF4335"/>
<path d="M129.123 39.536L132.37 40.0278C132.643 40.0746 132.87 40.262 132.961 40.543C133.051 40.8006 132.983 41.105 132.779 41.2923L130.417 43.7043L130.985 47.1232C131.03 47.4043 130.917 47.6853 130.69 47.8492C130.463 48.0365 130.168 48.0365 129.918 47.9194L127.011 46.3036L124.082 47.9194C123.855 48.0365 123.537 48.0365 123.333 47.8492C123.106 47.6853 122.992 47.4043 123.038 47.1232L123.583 43.7043L121.221 41.2923C121.017 41.105 120.949 40.8006 121.039 40.543C121.13 40.262 121.357 40.0746 121.63 40.0278L124.9 39.536L126.353 36.4215C126.466 36.1639 126.716 36 127.011 36C127.284 36 127.534 36.1639 127.647 36.4215L129.123 39.536Z" fill="#EF4335"/>
<path d="M143.123 39.536L146.37 40.0278C146.643 40.0746 146.87 40.262 146.961 40.543C147.051 40.8006 146.983 41.105 146.779 41.2923L144.417 43.7043L144.985 47.1232C145.03 47.4043 144.917 47.6853 144.69 47.8492C144.463 48.0365 144.168 48.0365 143.918 47.9194L141.011 46.3036L138.082 47.9194C137.855 48.0365 137.537 48.0365 137.333 47.8492C137.106 47.6853 136.992 47.4043 137.038 47.1232L137.583 43.7043L135.221 41.2923C135.017 41.105 134.949 40.8006 135.039 40.543C135.13 40.262 135.357 40.0746 135.63 40.0278L138.9 39.536L140.353 36.4215C140.466 36.1639 140.716 36 141.011 36C141.284 36 141.534 36.1639 141.647 36.4215L143.123 39.536Z" fill="#EF4335"/>
<path d="M157.123 39.536L160.37 40.0278C160.643 40.0746 160.87 40.262 160.961 40.543C161.051 40.8006 160.983 41.105 160.779 41.2923L158.417 43.7043L158.985 47.1232C159.03 47.4043 158.917 47.6853 158.69 47.8492C158.463 48.0365 158.168 48.0365 157.918 47.9194L155.011 46.3036L152.082 47.9194C151.855 48.0365 151.537 48.0365 151.333 47.8492C151.106 47.6853 150.992 47.4043 151.038 47.1232L151.583 43.7043L149.221 41.2923C149.017 41.105 148.949 40.8006 149.039 40.543C149.13 40.262 149.357 40.0746 149.63 40.0278L152.9 39.536L154.353 36.4215C154.466 36.1639 154.716 36 155.011 36C155.284 36 155.534 36.1639 155.647 36.4215L157.123 39.536Z" fill="#EF4335"/>
<path d="M171.123 39.536L174.37 40.0278C174.643 40.0746 174.87 40.262 174.961 40.543C175.051 40.8006 174.983 41.105 174.779 41.2923L172.417 43.7043L172.985 47.1232C173.03 47.4043 172.917 47.6853 172.69 47.8492C172.463 48.0365 172.168 48.0365 171.918 47.9194L169.011 46.3036L166.082 47.9194C165.855 48.0365 165.537 48.0365 165.333 47.8492C165.106 47.6853 164.992 47.4043 165.038 47.1232L165.583 43.7043L163.221 41.2923C163.017 41.105 162.949 40.8006 163.039 40.543C163.13 40.262 163.357 40.0746 163.63 40.0278L166.9 39.536L168.353 36.4215C168.466 36.1639 168.716 36 169.011 36C169.284 36 169.534 36.1639 169.647 36.4215L171.123 39.536Z" fill="#EF4335"/>
<defs>
<clipPath id="clip0_1160_1110">
<rect width="83" height="24" fill="white" transform="translate(12 18)"/>
</clipPath>
</defs>
</svg>
