<svg width="442" height="360" viewBox="0 0 442 360" fill="none" xmlns="http://www.w3.org/2000/svg">
<path d="M0.5 225C0.5 222.791 2.29086 221 4.5 221H106.5C108.709 221 110.5 222.791 110.5 225V233H0.5V225Z" fill="white" fill-opacity="0.5"/>
<rect width="110" height="112" transform="translate(0.5 233)" fill="url(#paint0_linear_891_1893)"/>
<g filter="url(#filter0_d_891_1893)">
<path d="M33.0848 308H31.8948V298.2H33.0988L36.7808 303.226L40.3088 298.2H41.4428V308H40.2528V300.076L36.7808 304.948H36.5988L33.0848 300.118V308ZM44.4192 307.216C43.8032 306.581 43.4952 305.793 43.4952 304.85C43.4952 303.898 43.8032 303.114 44.4192 302.498C45.0446 301.873 45.8566 301.56 46.8552 301.56C47.8539 301.56 48.6612 301.873 49.2772 302.498C49.9026 303.114 50.2152 303.898 50.2152 304.85C50.2152 305.802 49.9026 306.591 49.2772 307.216C48.6612 307.832 47.8539 308.14 46.8552 308.14C45.8659 308.14 45.0539 307.832 44.4192 307.216ZM45.3012 303.24C44.8906 303.651 44.6852 304.187 44.6852 304.85C44.6852 305.513 44.8859 306.049 45.2872 306.46C45.6979 306.88 46.2206 307.09 46.8552 307.09C47.4899 307.09 48.0079 306.885 48.4092 306.474C48.8199 306.054 49.0252 305.513 49.0252 304.85C49.0252 304.206 48.8199 303.669 48.4092 303.24C48.0079 302.82 47.4899 302.61 46.8552 302.61C46.2206 302.61 45.7026 302.82 45.3012 303.24ZM52.9512 308H51.8312V301.7H52.9512V302.47C53.1846 302.209 53.4879 301.999 53.8612 301.84C54.2439 301.672 54.6266 301.588 55.0092 301.588C56.7546 301.588 57.6272 302.512 57.6272 304.36V308H56.5072V304.57C56.5072 303.282 55.9146 302.638 54.7292 302.638C54.0199 302.638 53.4272 302.909 52.9512 303.45V308ZM59.3748 305.606V299.95H60.4948V301.7H62.8048V302.75H60.4948V305.494C60.4948 306.539 60.8682 307.062 61.6148 307.062C61.9788 307.062 62.3102 306.945 62.6088 306.712L62.9588 307.58C62.5202 307.935 61.9835 308.112 61.3488 308.112C60.6675 308.112 60.1682 307.907 59.8508 307.496C59.5335 307.085 59.3748 306.455 59.3748 305.606ZM65.5704 308H64.4504V298.2H65.5704V302.428C66.1304 301.868 66.8164 301.588 67.6284 301.588C69.3737 301.588 70.2464 302.521 70.2464 304.388V308H69.1264V304.542C69.1264 303.273 68.5384 302.638 67.3624 302.638C67.0357 302.638 66.7044 302.713 66.3684 302.862C66.0417 303.011 65.7757 303.203 65.5704 303.436V308ZM75.3485 300.874L74.7605 299.964L77.1125 298.144H77.8965V308H76.7765V299.754L75.3485 300.874Z" fill="white" fill-opacity="0.7" shape-rendering="crispEdges"/>
</g>
<g opacity="0.5" filter="url(#filter1_d_891_1893)">
<path d="M32.2334 257.7H26.9234V254.7H32.2334V249.27H35.4734V254.7H40.8434V257.7H35.4734V263.19H32.2334V257.7ZM50.1345 267.33C48.5945 267.33 47.2345 267.02 46.0545 266.4C44.8945 265.76 44.0345 264.89 43.4745 263.79L45.4245 261.27C46.6045 263.01 48.1045 263.88 49.9245 263.88C50.9845 263.88 51.8145 263.61 52.4145 263.07C53.0145 262.53 53.3145 261.83 53.3145 260.97C53.3145 260.01 52.9645 259.28 52.2645 258.78C51.5845 258.26 50.6345 258 49.4145 258H47.9145V254.55H49.2645C50.1845 254.55 50.9545 254.28 51.5745 253.74C52.1945 253.2 52.5045 252.51 52.5045 251.67C52.5045 250.87 52.2745 250.25 51.8145 249.81C51.3545 249.35 50.6945 249.12 49.8345 249.12C48.2145 249.12 46.8945 249.87 45.8745 251.37L43.9545 248.94C45.1145 246.76 47.1845 245.67 50.1645 245.67C51.9845 245.67 53.4445 246.16 54.5445 247.14C55.6445 248.1 56.1945 249.39 56.1945 251.01C56.1945 253.39 55.1245 255.05 52.9845 255.99V256.08C54.2445 256.3 55.2245 256.87 55.9245 257.79C56.6445 258.69 57.0045 259.79 57.0045 261.09C57.0045 262.99 56.3545 264.51 55.0545 265.65C53.7545 266.77 52.1145 267.33 50.1345 267.33ZM65.7427 256.44C64.0027 256.44 62.5827 255.95 61.4827 254.97C60.3827 253.99 59.8327 252.69 59.8327 251.07C59.8327 249.47 60.3827 248.18 61.4827 247.2C62.5827 246.22 64.0027 245.73 65.7427 245.73C67.4627 245.73 68.8727 246.22 69.9727 247.2C71.0927 248.2 71.6527 249.49 71.6527 251.07C71.6527 252.67 71.0927 253.97 69.9727 254.97C68.8727 255.95 67.4627 256.44 65.7427 256.44ZM63.0727 251.07C63.0727 251.85 63.3227 252.48 63.8227 252.96C64.3227 253.42 64.9627 253.65 65.7427 253.65C66.5427 253.65 67.1927 253.42 67.6927 252.96C68.1927 252.48 68.4427 251.85 68.4427 251.07C68.4427 250.31 68.1827 249.7 67.6627 249.24C67.1627 248.76 66.5227 248.52 65.7427 248.52C64.9627 248.52 64.3227 248.76 63.8227 249.24C63.3227 249.7 63.0727 250.31 63.0727 251.07ZM79.0027 267.3C77.2627 267.3 75.8427 266.81 74.7427 265.83C73.6427 264.85 73.0927 263.55 73.0927 261.93C73.0927 260.33 73.6427 259.04 74.7427 258.06C75.8427 257.08 77.2627 256.59 79.0027 256.59C80.7227 256.59 82.1327 257.08 83.2327 258.06C84.3527 259.06 84.9127 260.35 84.9127 261.93C84.9127 263.53 84.3527 264.83 83.2327 265.83C82.1327 266.81 80.7227 267.3 79.0027 267.3ZM76.3327 261.93C76.3327 262.71 76.5827 263.34 77.0827 263.82C77.5827 264.28 78.2227 264.51 79.0027 264.51C79.8027 264.51 80.4527 264.28 80.9527 263.82C81.4527 263.34 81.7027 262.71 81.7027 261.93C81.7027 261.17 81.4427 260.56 80.9227 260.1C80.4227 259.62 79.7827 259.38 79.0027 259.38C78.2227 259.38 77.5827 259.62 77.0827 260.1C76.5827 260.56 76.3327 261.17 76.3327 261.93ZM65.8027 267.33L63.8227 265.95L78.9727 245.67L80.9227 247.14L65.8027 267.33Z" fill="white"/>
</g>
<path d="M110.5 161C110.5 158.791 112.291 157 114.5 157H216.5C218.709 157 220.5 158.791 220.5 161V169H110.5V161Z" fill="white" fill-opacity="0.5"/>
<rect width="110" height="163" transform="translate(110.5 169)" fill="url(#paint1_linear_891_1893)"/>
<g opacity="0.5" filter="url(#filter2_d_891_1893)">
<path d="M142.231 193.7H136.921V190.7H142.231V185.27H145.471V190.7H150.841V193.7H145.471V199.19H142.231V193.7ZM162.623 185.45H153.563V182H166.763V184.31L159.323 203H155.543L162.623 185.45ZM174.745 192.44C173.005 192.44 171.585 191.95 170.485 190.97C169.385 189.99 168.835 188.69 168.835 187.07C168.835 185.47 169.385 184.18 170.485 183.2C171.585 182.22 173.005 181.73 174.745 181.73C176.465 181.73 177.875 182.22 178.975 183.2C180.095 184.2 180.655 185.49 180.655 187.07C180.655 188.67 180.095 189.97 178.975 190.97C177.875 191.95 176.465 192.44 174.745 192.44ZM172.075 187.07C172.075 187.85 172.325 188.48 172.825 188.96C173.325 189.42 173.965 189.65 174.745 189.65C175.545 189.65 176.195 189.42 176.695 188.96C177.195 188.48 177.445 187.85 177.445 187.07C177.445 186.31 177.185 185.7 176.665 185.24C176.165 184.76 175.525 184.52 174.745 184.52C173.965 184.52 173.325 184.76 172.825 185.24C172.325 185.7 172.075 186.31 172.075 187.07ZM188.005 203.3C186.265 203.3 184.845 202.81 183.745 201.83C182.645 200.85 182.095 199.55 182.095 197.93C182.095 196.33 182.645 195.04 183.745 194.06C184.845 193.08 186.265 192.59 188.005 192.59C189.725 192.59 191.135 193.08 192.235 194.06C193.355 195.06 193.915 196.35 193.915 197.93C193.915 199.53 193.355 200.83 192.235 201.83C191.135 202.81 189.725 203.3 188.005 203.3ZM185.335 197.93C185.335 198.71 185.585 199.34 186.085 199.82C186.585 200.28 187.225 200.51 188.005 200.51C188.805 200.51 189.455 200.28 189.955 199.82C190.455 199.34 190.705 198.71 190.705 197.93C190.705 197.17 190.445 196.56 189.925 196.1C189.425 195.62 188.785 195.38 188.005 195.38C187.225 195.38 186.585 195.62 186.085 196.1C185.585 196.56 185.335 197.17 185.335 197.93ZM174.805 203.33L172.825 201.95L187.975 181.67L189.925 183.14L174.805 203.33Z" fill="white"/>
</g>
<g filter="url(#filter3_d_891_1893)">
<path d="M142.046 308H140.856V298.2H142.06L145.742 303.226L149.27 298.2H150.404V308H149.214V300.076L145.742 304.948H145.56L142.046 300.118V308ZM153.38 307.216C152.764 306.581 152.456 305.793 152.456 304.85C152.456 303.898 152.764 303.114 153.38 302.498C154.005 301.873 154.817 301.56 155.816 301.56C156.815 301.56 157.622 301.873 158.238 302.498C158.863 303.114 159.176 303.898 159.176 304.85C159.176 305.802 158.863 306.591 158.238 307.216C157.622 307.832 156.815 308.14 155.816 308.14C154.827 308.14 154.015 307.832 153.38 307.216ZM154.262 303.24C153.851 303.651 153.646 304.187 153.646 304.85C153.646 305.513 153.847 306.049 154.248 306.46C154.659 306.88 155.181 307.09 155.816 307.09C156.451 307.09 156.969 306.885 157.37 306.474C157.781 306.054 157.986 305.513 157.986 304.85C157.986 304.206 157.781 303.669 157.37 303.24C156.969 302.82 156.451 302.61 155.816 302.61C155.181 302.61 154.663 302.82 154.262 303.24ZM161.912 308H160.792V301.7H161.912V302.47C162.146 302.209 162.449 301.999 162.822 301.84C163.205 301.672 163.588 301.588 163.97 301.588C165.716 301.588 166.588 302.512 166.588 304.36V308H165.468V304.57C165.468 303.282 164.876 302.638 163.69 302.638C162.981 302.638 162.388 302.909 161.912 303.45V308ZM168.336 305.606V299.95H169.456V301.7H171.766V302.75H169.456V305.494C169.456 306.539 169.829 307.062 170.576 307.062C170.94 307.062 171.271 306.945 171.57 306.712L171.92 307.58C171.481 307.935 170.944 308.112 170.31 308.112C169.628 308.112 169.129 307.907 168.812 307.496C168.494 307.085 168.336 306.455 168.336 305.606ZM174.531 308H173.411V298.2H174.531V302.428C175.091 301.868 175.777 301.588 176.589 301.588C178.335 301.588 179.207 302.521 179.207 304.388V308H178.087V304.542C178.087 303.273 177.499 302.638 176.323 302.638C175.997 302.638 175.665 302.713 175.329 302.862C175.003 303.011 174.737 303.203 174.531 303.436V308ZM189.839 308H183.861V307.09C185.131 305.849 186.064 304.859 186.661 304.122C187.716 302.797 188.243 301.686 188.243 300.79C188.243 300.323 188.099 299.945 187.809 299.656C187.529 299.357 187.142 299.208 186.647 299.208C186.218 299.208 185.84 299.348 185.513 299.628C185.196 299.899 184.991 300.281 184.897 300.776L183.945 300.384C184.057 299.684 184.37 299.129 184.883 298.718C185.406 298.298 186.027 298.088 186.745 298.088C187.604 298.088 188.267 298.335 188.733 298.83C189.2 299.325 189.433 299.903 189.433 300.566C189.433 301.826 188.831 303.165 187.627 304.584C187.086 305.219 186.652 305.695 186.325 306.012C186.045 306.292 185.709 306.605 185.317 306.95H189.839V308Z" fill="white" fill-opacity="0.7" shape-rendering="crispEdges"/>
</g>
<path d="M220.5 94C220.5 91.7909 222.291 90 224.5 90H326.5C328.709 90 330.5 91.7909 330.5 94V102H220.5V94Z" fill="white" fill-opacity="0.5"/>
<rect width="110" height="230" transform="translate(220.5 102)" fill="url(#paint2_linear_891_1893)"/>
<g filter="url(#filter4_d_891_1893)">
<path d="M253.012 308H251.822V298.2H253.026L256.708 303.226L260.236 298.2H261.37V308H260.18V300.076L256.708 304.948H256.526L253.012 300.118V308ZM264.346 307.216C263.73 306.581 263.422 305.793 263.422 304.85C263.422 303.898 263.73 303.114 264.346 302.498C264.971 301.873 265.783 301.56 266.782 301.56C267.781 301.56 268.588 301.873 269.204 302.498C269.829 303.114 270.142 303.898 270.142 304.85C270.142 305.802 269.829 306.591 269.204 307.216C268.588 307.832 267.781 308.14 266.782 308.14C265.793 308.14 264.981 307.832 264.346 307.216ZM265.228 303.24C264.817 303.651 264.612 304.187 264.612 304.85C264.612 305.513 264.813 306.049 265.214 306.46C265.625 306.88 266.147 307.09 266.782 307.09C267.417 307.09 267.935 306.885 268.336 306.474C268.747 306.054 268.952 305.513 268.952 304.85C268.952 304.206 268.747 303.669 268.336 303.24C267.935 302.82 267.417 302.61 266.782 302.61C266.147 302.61 265.629 302.82 265.228 303.24ZM272.878 308H271.758V301.7H272.878V302.47C273.111 302.209 273.415 301.999 273.788 301.84C274.171 301.672 274.553 301.588 274.936 301.588C276.681 301.588 277.554 302.512 277.554 304.36V308H276.434V304.57C276.434 303.282 275.841 302.638 274.656 302.638C273.947 302.638 273.354 302.909 272.878 303.45V308ZM279.302 305.606V299.95H280.422V301.7H282.732V302.75H280.422V305.494C280.422 306.539 280.795 307.062 281.542 307.062C281.906 307.062 282.237 306.945 282.536 306.712L282.886 307.58C282.447 307.935 281.91 308.112 281.276 308.112C280.594 308.112 280.095 307.907 279.778 307.496C279.46 307.085 279.302 306.455 279.302 305.606ZM285.497 308H284.377V298.2H285.497V302.428C286.057 301.868 286.743 301.588 287.555 301.588C289.3 301.588 290.173 302.521 290.173 304.388V308H289.053V304.542C289.053 303.273 288.465 302.638 287.289 302.638C286.962 302.638 286.631 302.713 286.295 302.862C285.968 303.011 285.702 303.203 285.497 303.436V308ZM297.655 308.14C296.965 308.14 296.358 307.995 295.835 307.706C295.322 307.417 294.939 307.001 294.687 306.46L295.331 305.662C295.555 306.091 295.873 306.427 296.283 306.67C296.694 306.903 297.137 307.02 297.613 307.02C298.201 307.02 298.668 306.857 299.013 306.53C299.368 306.203 299.545 305.779 299.545 305.256C299.545 304.733 299.359 304.318 298.985 304.01C298.621 303.702 298.141 303.548 297.543 303.548H296.773V302.428H297.473C297.931 302.428 298.323 302.269 298.649 301.952C298.995 301.635 299.167 301.229 299.167 300.734C299.167 300.249 299.023 299.871 298.733 299.6C298.453 299.32 298.066 299.18 297.571 299.18C296.685 299.18 296.013 299.586 295.555 300.398L294.925 299.628C295.149 299.133 295.499 298.751 295.975 298.48C296.461 298.2 297.021 298.06 297.655 298.06C298.477 298.06 299.13 298.284 299.615 298.732C300.11 299.18 300.357 299.782 300.357 300.538C300.357 301.079 300.227 301.555 299.965 301.966C299.704 302.377 299.326 302.685 298.831 302.89V302.932C299.41 303.025 299.872 303.291 300.217 303.73C300.563 304.169 300.735 304.691 300.735 305.298C300.735 306.157 300.446 306.847 299.867 307.37C299.298 307.883 298.561 308.14 297.655 308.14Z" fill="white" fill-opacity="0.7" shape-rendering="crispEdges"/>
</g>
<g opacity="0.5" filter="url(#filter5_d_891_1893)">
<path d="M246.491 126.7H241.181V123.7H246.491V118.27H249.731V123.7H255.101V126.7H249.731V132.19H246.491V126.7ZM259.562 121.81L257.732 118.96L263.102 114.94H265.592V136H262.142V119.86L259.562 121.81ZM283.042 136H269.842V133.24C272.262 130.88 273.932 129.17 274.852 128.11C277.332 125.27 278.572 122.88 278.572 120.94C278.572 120.08 278.342 119.41 277.882 118.93C277.422 118.45 276.762 118.21 275.902 118.21C274.362 118.21 273.352 119.15 272.872 121.03L269.992 119.74C270.272 118.2 270.972 116.99 272.092 116.11C273.232 115.21 274.632 114.76 276.292 114.76C278.172 114.76 279.632 115.3 280.672 116.38C281.712 117.44 282.232 118.73 282.232 120.25C282.232 121.33 282.002 122.48 281.542 123.7C281.082 124.88 280.552 125.91 279.952 126.79C279.332 127.71 278.602 128.61 277.762 129.49C277.042 130.29 276.382 130.97 275.782 131.53C275.482 131.81 274.992 132.23 274.312 132.79H283.042V136ZM291.485 125.44C289.745 125.44 288.325 124.95 287.225 123.97C286.125 122.99 285.575 121.69 285.575 120.07C285.575 118.47 286.125 117.18 287.225 116.2C288.325 115.22 289.745 114.73 291.485 114.73C293.205 114.73 294.615 115.22 295.715 116.2C296.835 117.2 297.395 118.49 297.395 120.07C297.395 121.67 296.835 122.97 295.715 123.97C294.615 124.95 293.205 125.44 291.485 125.44ZM288.815 120.07C288.815 120.85 289.065 121.48 289.565 121.96C290.065 122.42 290.705 122.65 291.485 122.65C292.285 122.65 292.935 122.42 293.435 121.96C293.935 121.48 294.185 120.85 294.185 120.07C294.185 119.31 293.925 118.7 293.405 118.24C292.905 117.76 292.265 117.52 291.485 117.52C290.705 117.52 290.065 117.76 289.565 118.24C289.065 118.7 288.815 119.31 288.815 120.07ZM304.745 136.3C303.005 136.3 301.585 135.81 300.485 134.83C299.385 133.85 298.835 132.55 298.835 130.93C298.835 129.33 299.385 128.04 300.485 127.06C301.585 126.08 303.005 125.59 304.745 125.59C306.465 125.59 307.875 126.08 308.975 127.06C310.095 128.06 310.655 129.35 310.655 130.93C310.655 132.53 310.095 133.83 308.975 134.83C307.875 135.81 306.465 136.3 304.745 136.3ZM302.075 130.93C302.075 131.71 302.325 132.34 302.825 132.82C303.325 133.28 303.965 133.51 304.745 133.51C305.545 133.51 306.195 133.28 306.695 132.82C307.195 132.34 307.445 131.71 307.445 130.93C307.445 130.17 307.185 129.56 306.665 129.1C306.165 128.62 305.525 128.38 304.745 128.38C303.965 128.38 303.325 128.62 302.825 129.1C302.325 129.56 302.075 130.17 302.075 130.93ZM291.545 136.33L289.565 134.95L304.715 114.67L306.665 116.14L291.545 136.33Z" fill="white"/>
</g>
<path d="M330.5 36C330.5 33.7909 332.291 32 334.5 32H436.5C438.709 32 440.5 33.7909 440.5 36V44H330.5V36Z" fill="#E3AA10"/>
<rect width="110" height="288" transform="translate(330.5 44)" fill="url(#paint3_linear_891_1893)"/>
<g filter="url(#filter6_d_891_1893)">
<path d="M362.889 308H361.699V298.2H362.903L366.585 303.226L370.113 298.2H371.247V308H370.057V300.076L366.585 304.948H366.403L362.889 300.118V308ZM374.223 307.216C373.607 306.581 373.299 305.793 373.299 304.85C373.299 303.898 373.607 303.114 374.223 302.498C374.848 301.873 375.66 301.56 376.659 301.56C377.658 301.56 378.465 301.873 379.081 302.498C379.706 303.114 380.019 303.898 380.019 304.85C380.019 305.802 379.706 306.591 379.081 307.216C378.465 307.832 377.658 308.14 376.659 308.14C375.67 308.14 374.858 307.832 374.223 307.216ZM375.105 303.24C374.694 303.651 374.489 304.187 374.489 304.85C374.489 305.513 374.69 306.049 375.091 306.46C375.502 306.88 376.024 307.09 376.659 307.09C377.294 307.09 377.812 306.885 378.213 306.474C378.624 306.054 378.829 305.513 378.829 304.85C378.829 304.206 378.624 303.669 378.213 303.24C377.812 302.82 377.294 302.61 376.659 302.61C376.024 302.61 375.506 302.82 375.105 303.24ZM382.755 308H381.635V301.7H382.755V302.47C382.988 302.209 383.292 301.999 383.665 301.84C384.048 301.672 384.43 301.588 384.813 301.588C386.558 301.588 387.431 302.512 387.431 304.36V308H386.311V304.57C386.311 303.282 385.718 302.638 384.533 302.638C383.824 302.638 383.231 302.909 382.755 303.45V308ZM389.179 305.606V299.95H390.299V301.7H392.609V302.75H390.299V305.494C390.299 306.539 390.672 307.062 391.419 307.062C391.783 307.062 392.114 306.945 392.413 306.712L392.763 307.58C392.324 307.935 391.787 308.112 391.153 308.112C390.471 308.112 389.972 307.907 389.655 307.496C389.337 307.085 389.179 306.455 389.179 305.606ZM395.374 308H394.254V298.2H395.374V302.428C395.934 301.868 396.62 301.588 397.432 301.588C399.177 301.588 400.05 302.521 400.05 304.388V308H398.93V304.542C398.93 303.273 398.342 302.638 397.166 302.638C396.839 302.638 396.508 302.713 396.172 302.862C395.845 303.011 395.579 303.203 395.374 303.436V308ZM409.996 308H408.876V305.55H404.354V304.752L408.414 298.2H409.702L405.824 304.43H408.876V301.7H409.996V304.43H411.354V305.55H409.996V308Z" fill="white" fill-opacity="0.7" shape-rendering="crispEdges"/>
</g>
<g filter="url(#filter7_d_891_1893)">
<path d="M355.978 68.7H350.668V65.7H355.978V60.27H359.218V65.7H364.588V68.7H359.218V74.19H355.978V68.7ZM369.05 63.81L367.22 60.96L372.59 56.94H375.08V78H371.63V61.86L369.05 63.81ZM379.57 70.56C379.57 68.76 379.88 67.04 380.5 65.4C381.12 63.74 381.96 62.32 383.02 61.14C385.1 58.8 387.39 57.31 389.89 56.67L391.3 59.28C389.46 59.84 387.85 60.79 386.47 62.13C385.11 63.47 384.17 65.08 383.65 66.96C384.59 65.66 386.03 65.01 387.97 65.01C389.61 65.01 391 65.61 392.14 66.81C393.28 68.01 393.85 69.55 393.85 71.43C393.85 73.53 393.17 75.21 391.81 76.47C390.45 77.71 388.87 78.33 387.07 78.33C384.77 78.33 382.95 77.58 381.61 76.08C380.25 74.56 379.57 72.72 379.57 70.56ZM383.23 70.59C383.23 71.85 383.57 72.88 384.25 73.68C384.95 74.48 385.9 74.88 387.1 74.88C388 74.88 388.74 74.57 389.32 73.95C389.9 73.33 390.19 72.57 390.19 71.67C390.19 70.65 389.89 69.82 389.29 69.18C388.69 68.54 387.86 68.22 386.8 68.22C385.18 68.22 383.99 69.01 383.23 70.59ZM401.998 67.44C400.258 67.44 398.838 66.95 397.738 65.97C396.638 64.99 396.088 63.69 396.088 62.07C396.088 60.47 396.638 59.18 397.738 58.2C398.838 57.22 400.258 56.73 401.998 56.73C403.718 56.73 405.128 57.22 406.228 58.2C407.348 59.2 407.908 60.49 407.908 62.07C407.908 63.67 407.348 64.97 406.228 65.97C405.128 66.95 403.718 67.44 401.998 67.44ZM399.328 62.07C399.328 62.85 399.578 63.48 400.078 63.96C400.578 64.42 401.218 64.65 401.998 64.65C402.798 64.65 403.448 64.42 403.948 63.96C404.448 63.48 404.698 62.85 404.698 62.07C404.698 61.31 404.438 60.7 403.918 60.24C403.418 59.76 402.778 59.52 401.998 59.52C401.218 59.52 400.578 59.76 400.078 60.24C399.578 60.7 399.328 61.31 399.328 62.07ZM415.258 78.3C413.518 78.3 412.098 77.81 410.998 76.83C409.898 75.85 409.348 74.55 409.348 72.93C409.348 71.33 409.898 70.04 410.998 69.06C412.098 68.08 413.518 67.59 415.258 67.59C416.978 67.59 418.388 68.08 419.488 69.06C420.608 70.06 421.168 71.35 421.168 72.93C421.168 74.53 420.608 75.83 419.488 76.83C418.388 77.81 416.978 78.3 415.258 78.3ZM412.588 72.93C412.588 73.71 412.838 74.34 413.338 74.82C413.838 75.28 414.478 75.51 415.258 75.51C416.058 75.51 416.708 75.28 417.208 74.82C417.708 74.34 417.958 73.71 417.958 72.93C417.958 72.17 417.698 71.56 417.178 71.1C416.678 70.62 416.038 70.38 415.258 70.38C414.478 70.38 413.838 70.62 413.338 71.1C412.838 71.56 412.588 72.17 412.588 72.93ZM402.058 78.33L400.078 76.95L415.228 56.67L417.178 58.14L402.058 78.33Z" fill="white"/>
</g>
<line x1="1" y1="43.5" x2="441" y2="43.5" stroke="white" stroke-opacity="0.06"/>
<line x1="1" y1="101.5" x2="441" y2="101.5" stroke="white" stroke-opacity="0.06"/>
<line x1="1" y1="168.5" x2="441" y2="168.5" stroke="white" stroke-opacity="0.06"/>
<line x1="1" y1="232.5" x2="441" y2="232.5" stroke="white" stroke-opacity="0.06"/>
<g filter="url(#filter8_d_891_1893)">
<path d="M26.9809 201.808V206H25.0129V194.8C25.5676 194.8 26.1703 194.795 26.8209 194.784C27.4716 194.773 28.0049 194.768 28.4209 194.768C31.1303 194.768 32.4849 195.92 32.4849 198.224C32.4849 199.077 32.2663 199.781 31.8289 200.336C31.3916 200.869 30.8903 201.232 30.3249 201.424L33.8289 206H31.4449L28.3569 201.808H26.9809ZM28.3249 196.608C28.2716 196.608 28.1863 196.613 28.0689 196.624C27.9516 196.624 27.7863 196.629 27.5729 196.64C27.3596 196.64 27.1623 196.64 26.9809 196.64V199.968H28.2609C28.8903 199.968 29.4023 199.813 29.7969 199.504C30.2023 199.195 30.4049 198.773 30.4049 198.24C30.4049 197.152 29.7116 196.608 28.3249 196.608ZM40.0079 203.984L40.5359 205.28C39.8213 205.877 38.9039 206.176 37.7839 206.176C36.6319 206.176 35.6933 205.829 34.9679 205.136C34.2639 204.453 33.9119 203.541 33.9119 202.4C33.9119 201.333 34.2586 200.437 34.9519 199.712C35.6453 198.987 36.5679 198.624 37.7199 198.624C38.6693 198.624 39.4746 198.939 40.1359 199.568C40.7973 200.197 41.1279 200.997 41.1279 201.968C41.1279 202.395 41.0906 202.725 41.0159 202.96H35.8159C35.8906 203.483 36.1199 203.893 36.5039 204.192C36.8986 204.491 37.3893 204.64 37.9759 204.64C38.7759 204.64 39.4533 204.421 40.0079 203.984ZM37.6399 200.16C36.5946 200.16 35.9653 200.683 35.7519 201.728H39.2879C39.2986 201.269 39.1493 200.896 38.8399 200.608C38.5413 200.309 38.1413 200.16 37.6399 200.16ZM42.3699 200.816C42.3699 200.144 42.6153 199.611 43.1059 199.216C43.5966 198.821 44.2313 198.624 45.0099 198.624C46.1833 198.624 47.0953 198.928 47.7459 199.536L47.0579 200.848C46.4713 200.389 45.8206 200.16 45.1059 200.16C44.8499 200.16 44.6366 200.224 44.4659 200.352C44.2953 200.469 44.2099 200.613 44.2099 200.784C44.2099 201.136 44.6633 201.429 45.5699 201.664C45.9006 201.739 46.1939 201.824 46.4499 201.92C46.7059 202.005 46.9673 202.133 47.2339 202.304C47.5113 202.464 47.7246 202.677 47.8739 202.944C48.0233 203.211 48.0979 203.52 48.0979 203.872C48.0979 204.576 47.8313 205.136 47.2979 205.552C46.7753 205.968 46.0713 206.176 45.1859 206.176C44.5566 206.176 43.9433 206.043 43.3459 205.776C42.7379 205.499 42.3486 205.221 42.1779 204.944L43.0739 203.744C43.2766 203.989 43.6126 204.197 44.0819 204.368C44.5619 204.549 44.9726 204.64 45.3139 204.64C45.7299 204.683 46.0233 204.549 46.1939 204.24C46.3646 203.92 46.2526 203.659 45.8579 203.456C45.6979 203.371 45.4473 203.28 45.1059 203.184C44.7753 203.088 44.4659 202.992 44.1779 202.896C43.9006 202.789 43.6126 202.656 43.3139 202.496C43.0259 202.336 42.7966 202.117 42.6259 201.84C42.4553 201.552 42.3699 201.211 42.3699 200.816ZM55.3673 203.984L55.8953 205.28C55.1806 205.877 54.2633 206.176 53.1433 206.176C51.9913 206.176 51.0526 205.829 50.3273 205.136C49.6233 204.453 49.2713 203.541 49.2713 202.4C49.2713 201.333 49.618 200.437 50.3113 199.712C51.0046 198.987 51.9273 198.624 53.0793 198.624C54.0286 198.624 54.834 198.939 55.4953 199.568C56.1566 200.197 56.4873 200.997 56.4873 201.968C56.4873 202.395 56.45 202.725 56.3753 202.96H51.1753C51.25 203.483 51.4793 203.893 51.8633 204.192C52.258 204.491 52.7486 204.64 53.3353 204.64C54.1353 204.64 54.8126 204.421 55.3673 203.984ZM52.9993 200.16C51.954 200.16 51.3246 200.683 51.1113 201.728H54.6473C54.658 201.269 54.5086 200.896 54.1993 200.608C53.9006 200.309 53.5006 200.16 52.9993 200.16ZM58.5293 200.656L58.0653 199.312C58.844 198.853 59.692 198.624 60.6093 198.624C61.612 198.624 62.3426 198.869 62.8013 199.36C63.26 199.851 63.4893 200.603 63.4893 201.616V206H61.8893V205.168C61.4626 205.787 60.7533 206.096 59.7613 206.096C59.0786 206.096 58.5293 205.899 58.1133 205.504C57.708 205.099 57.5053 204.56 57.5053 203.888C57.5053 203.141 57.7453 202.565 58.2253 202.16C58.7053 201.755 59.34 201.552 60.1293 201.552C60.78 201.552 61.324 201.707 61.7613 202.016C61.7826 201.376 61.6866 200.907 61.4733 200.608C61.2706 200.309 60.9186 200.16 60.4173 200.16C59.8626 200.16 59.2333 200.325 58.5293 200.656ZM60.3693 204.544C60.988 204.544 61.452 204.325 61.7613 203.888V203.152C61.4626 202.917 61.0413 202.8 60.4973 202.8C60.156 202.8 59.8786 202.88 59.6653 203.04C59.452 203.2 59.3453 203.419 59.3453 203.696C59.3453 203.952 59.4413 204.16 59.6333 204.32C59.8253 204.469 60.0706 204.544 60.3693 204.544ZM67.2156 206H65.3756V198.8H67.2156V199.504C67.6102 198.949 68.1596 198.672 68.8636 198.672C69.3649 198.672 69.7382 198.763 69.9836 198.944L69.3276 200.672C69.0182 200.491 68.7089 200.4 68.3996 200.4C67.8662 200.4 67.4716 200.656 67.2156 201.168V206ZM76.4878 203.584L77.3518 204.928C76.7438 205.76 75.7891 206.176 74.4878 206.176C73.3251 206.176 72.3811 205.829 71.6558 205.136C70.9411 204.453 70.5838 203.541 70.5838 202.4C70.5838 201.323 70.9358 200.427 71.6398 199.712C72.3438 198.987 73.2345 198.624 74.3118 198.624C75.5918 198.624 76.5571 198.949 77.2078 199.6L76.3438 201.056C75.8531 200.587 75.2558 200.352 74.5518 200.352C74.0185 200.352 73.5491 200.544 73.1438 200.928C72.7491 201.291 72.5518 201.781 72.5518 202.4C72.5518 203.019 72.7545 203.52 73.1598 203.904C73.5865 204.277 74.0771 204.464 74.6318 204.464C75.3465 204.464 75.9651 204.171 76.4878 203.584ZM80.6687 206H78.8287V194.8H80.6687V199.456C81.202 198.933 81.89 198.672 82.7327 198.672C84.706 198.672 85.6927 199.723 85.6927 201.824V206H83.8527V202.064C83.8527 201.531 83.714 201.12 83.4367 200.832C83.1594 200.544 82.7647 200.4 82.2527 200.4C81.634 200.4 81.106 200.619 80.6687 201.056V206Z" fill="white"/>
</g>
<g filter="url(#filter9_d_891_1893)">
<path d="M133.936 142H131.984V137.216H126.864V142H124.896V130.8H126.864V135.376H131.984V130.8H133.936V142ZM141.356 134.8H143.452L140.62 142C140.108 143.248 139.65 144.091 139.244 144.528C138.85 144.976 138.38 145.2 137.836 145.2C137.324 145.2 136.807 145.013 136.284 144.64L136.876 143.248C137.154 143.419 137.404 143.504 137.628 143.504C138.066 143.504 138.434 143.131 138.732 142.384L138.892 142L135.564 134.8H137.772L139.452 138.736C139.474 138.789 139.591 139.136 139.804 139.776C139.868 139.381 139.954 139.029 140.06 138.72L141.356 134.8ZM146.395 145.2H144.555V134.8H146.395V135.488C146.63 135.232 146.95 135.024 147.355 134.864C147.761 134.704 148.182 134.624 148.619 134.624C149.611 134.624 150.401 134.965 150.987 135.648C151.585 136.341 151.883 137.221 151.883 138.288C151.883 139.408 151.531 140.336 150.827 141.072C150.123 141.808 149.206 142.176 148.075 142.176C147.35 142.176 146.79 142.059 146.395 141.824V145.2ZM148.043 136.352C147.403 136.352 146.854 136.613 146.395 137.136V140.048C146.833 140.325 147.339 140.464 147.915 140.464C148.523 140.464 149.009 140.267 149.371 139.872C149.745 139.477 149.931 138.965 149.931 138.336C149.931 137.739 149.761 137.259 149.419 136.896C149.089 136.533 148.63 136.352 148.043 136.352ZM154.101 141.12C153.386 140.405 153.029 139.499 153.029 138.4C153.029 137.301 153.386 136.4 154.101 135.696C154.816 134.981 155.765 134.624 156.949 134.624C158.122 134.624 159.066 134.981 159.781 135.696C160.506 136.4 160.869 137.301 160.869 138.4C160.869 139.488 160.506 140.395 159.781 141.12C159.056 141.824 158.112 142.176 156.949 142.176C155.765 142.176 154.816 141.824 154.101 141.12ZM155.557 136.928C155.184 137.312 154.997 137.803 154.997 138.4C154.997 138.997 155.178 139.493 155.541 139.888C155.914 140.272 156.384 140.464 156.949 140.464C157.525 140.464 157.994 140.272 158.357 139.888C158.73 139.504 158.917 139.008 158.917 138.4C158.917 137.803 158.73 137.312 158.357 136.928C157.984 136.544 157.514 136.352 156.949 136.352C156.394 136.352 155.93 136.544 155.557 136.928ZM162.302 139.264V132.8H164.142V134.8H166.462V136.528H164.142V139.152C164.142 140.016 164.43 140.448 165.006 140.448C165.368 140.448 165.736 140.309 166.11 140.032L166.67 141.456C166.083 141.925 165.374 142.16 164.542 142.16C163.763 142.16 163.192 141.925 162.83 141.456C162.478 140.976 162.302 140.245 162.302 139.264ZM170.067 142H168.227V130.8H170.067V135.456C170.6 134.933 171.288 134.672 172.131 134.672C174.104 134.672 175.091 135.723 175.091 137.824V142H173.251V138.064C173.251 137.531 173.112 137.12 172.835 136.832C172.558 136.544 172.163 136.4 171.651 136.4C171.032 136.4 170.504 136.619 170.067 137.056V142ZM182.61 139.984L183.138 141.28C182.423 141.877 181.506 142.176 180.386 142.176C179.234 142.176 178.295 141.829 177.57 141.136C176.866 140.453 176.514 139.541 176.514 138.4C176.514 137.333 176.86 136.437 177.554 135.712C178.247 134.987 179.17 134.624 180.322 134.624C181.271 134.624 182.076 134.939 182.738 135.568C183.399 136.197 183.73 136.997 183.73 137.968C183.73 138.395 183.692 138.725 183.618 138.96H178.418C178.492 139.483 178.722 139.893 179.106 140.192C179.5 140.491 179.991 140.64 180.578 140.64C181.378 140.64 182.055 140.421 182.61 139.984ZM180.242 136.16C179.196 136.16 178.567 136.683 178.354 137.728H181.89C181.9 137.269 181.751 136.896 181.442 136.608C181.143 136.309 180.743 136.16 180.242 136.16ZM184.972 136.816C184.972 136.144 185.217 135.611 185.708 135.216C186.198 134.821 186.833 134.624 187.612 134.624C188.785 134.624 189.697 134.928 190.348 135.536L189.66 136.848C189.073 136.389 188.422 136.16 187.708 136.16C187.452 136.16 187.238 136.224 187.068 136.352C186.897 136.469 186.812 136.613 186.812 136.784C186.812 137.136 187.265 137.429 188.172 137.664C188.502 137.739 188.796 137.824 189.052 137.92C189.308 138.005 189.569 138.133 189.836 138.304C190.113 138.464 190.326 138.677 190.476 138.944C190.625 139.211 190.7 139.52 190.7 139.872C190.7 140.576 190.433 141.136 189.9 141.552C189.377 141.968 188.673 142.176 187.788 142.176C187.158 142.176 186.545 142.043 185.948 141.776C185.34 141.499 184.95 141.221 184.78 140.944L185.676 139.744C185.878 139.989 186.214 140.197 186.684 140.368C187.164 140.549 187.574 140.64 187.916 140.64C188.332 140.683 188.625 140.549 188.796 140.24C188.966 139.92 188.854 139.659 188.46 139.456C188.3 139.371 188.049 139.28 187.708 139.184C187.377 139.088 187.068 138.992 186.78 138.896C186.502 138.789 186.214 138.656 185.916 138.496C185.628 138.336 185.398 138.117 185.228 137.84C185.057 137.552 184.972 137.211 184.972 136.816ZM197.969 139.984L198.497 141.28C197.782 141.877 196.865 142.176 195.745 142.176C194.593 142.176 193.654 141.829 192.929 141.136C192.225 140.453 191.873 139.541 191.873 138.4C191.873 137.333 192.22 136.437 192.913 135.712C193.606 134.987 194.529 134.624 195.681 134.624C196.63 134.624 197.436 134.939 198.097 135.568C198.758 136.197 199.089 136.997 199.089 137.968C199.089 138.395 199.052 138.725 198.977 138.96H193.777C193.852 139.483 194.081 139.893 194.465 140.192C194.86 140.491 195.35 140.64 195.937 140.64C196.737 140.64 197.414 140.421 197.969 139.984ZM195.601 136.16C194.556 136.16 193.926 136.683 193.713 137.728H197.249C197.26 137.269 197.11 136.896 196.801 136.608C196.502 136.309 196.102 136.16 195.601 136.16ZM200.331 136.816C200.331 136.144 200.576 135.611 201.067 135.216C201.558 134.821 202.192 134.624 202.971 134.624C204.144 134.624 205.056 134.928 205.707 135.536L205.019 136.848C204.432 136.389 203.782 136.16 203.067 136.16C202.811 136.16 202.598 136.224 202.427 136.352C202.256 136.469 202.171 136.613 202.171 136.784C202.171 137.136 202.624 137.429 203.531 137.664C203.862 137.739 204.155 137.824 204.411 137.92C204.667 138.005 204.928 138.133 205.195 138.304C205.472 138.464 205.686 138.677 205.835 138.944C205.984 139.211 206.059 139.52 206.059 139.872C206.059 140.576 205.792 141.136 205.259 141.552C204.736 141.968 204.032 142.176 203.147 142.176C202.518 142.176 201.904 142.043 201.307 141.776C200.699 141.499 200.31 141.221 200.139 140.944L201.035 139.744C201.238 139.989 201.574 140.197 202.043 140.368C202.523 140.549 202.934 140.64 203.275 140.64C203.691 140.683 203.984 140.549 204.155 140.24C204.326 139.92 204.214 139.659 203.819 139.456C203.659 139.371 203.408 139.28 203.067 139.184C202.736 139.088 202.427 138.992 202.139 138.896C201.862 138.789 201.574 138.656 201.275 138.496C200.987 138.336 200.758 138.117 200.587 137.84C200.416 137.552 200.331 137.211 200.331 136.816Z" fill="white"/>
</g>
<g filter="url(#filter10_d_891_1893)">
<path d="M248.951 63.8H250.919L246.439 75.032H244.951L240.343 63.8H242.439L245.767 72.104L248.951 63.8ZM251.35 69.656L250.886 68.312C251.664 67.8533 252.512 67.624 253.43 67.624C254.432 67.624 255.163 67.8693 255.622 68.36C256.08 68.8507 256.31 69.6027 256.31 70.616V75H254.71V74.168C254.283 74.7867 253.574 75.096 252.582 75.096C251.899 75.096 251.35 74.8987 250.934 74.504C250.528 74.0987 250.326 73.56 250.326 72.888C250.326 72.1413 250.566 71.5653 251.046 71.16C251.526 70.7547 252.16 70.552 252.95 70.552C253.6 70.552 254.144 70.7067 254.582 71.016C254.603 70.376 254.507 69.9067 254.294 69.608C254.091 69.3093 253.739 69.16 253.238 69.16C252.683 69.16 252.054 69.3253 251.35 69.656ZM253.19 73.544C253.808 73.544 254.272 73.3253 254.582 72.888V72.152C254.283 71.9173 253.862 71.8 253.318 71.8C252.976 71.8 252.699 71.88 252.486 72.04C252.272 72.2 252.166 72.4187 252.166 72.696C252.166 72.952 252.262 73.16 252.454 73.32C252.646 73.4693 252.891 73.544 253.19 73.544ZM258.196 73.016V63.8H260.036V72.264C260.036 73.0427 260.244 73.432 260.66 73.432C260.895 73.432 261.145 73.336 261.412 73.144L261.796 74.552C261.295 74.9573 260.66 75.16 259.892 75.16C258.761 75.16 258.196 74.4453 258.196 73.016ZM265.089 75H263.249V67.8H265.089V75ZM263.057 65.208C263.057 64.888 263.164 64.632 263.377 64.44C263.601 64.2373 263.878 64.136 264.209 64.136C264.497 64.136 264.742 64.2373 264.945 64.44C265.158 64.6427 265.265 64.8987 265.265 65.208C265.265 65.5493 265.158 65.8267 264.945 66.04C264.742 66.2533 264.497 66.36 264.209 66.36C263.878 66.36 263.601 66.2533 263.377 66.04C263.164 65.8267 263.057 65.5493 263.057 65.208ZM274.263 75H272.423V74.248C271.868 74.8347 271.18 75.128 270.359 75.128C269.345 75.128 268.524 74.7973 267.895 74.136C267.276 73.4747 266.967 72.5893 266.967 71.48C266.967 70.3493 267.335 69.4267 268.071 68.712C268.817 67.9867 269.767 67.624 270.919 67.624C271.527 67.624 272.028 67.7413 272.423 67.976V63.8H274.263V75ZM270.743 73.416C271.372 73.416 271.932 73.1707 272.423 72.68V69.784C271.964 69.496 271.489 69.352 270.999 69.352C270.412 69.352 269.921 69.5387 269.527 69.912C269.132 70.2853 268.935 70.7867 268.935 71.416C268.935 72.024 269.105 72.5093 269.447 72.872C269.788 73.2347 270.22 73.416 270.743 73.416ZM276.865 69.656L276.401 68.312C277.18 67.8533 278.028 67.624 278.945 67.624C279.948 67.624 280.679 67.8693 281.137 68.36C281.596 68.8507 281.825 69.6027 281.825 70.616V75H280.225V74.168C279.799 74.7867 279.089 75.096 278.097 75.096C277.415 75.096 276.865 74.8987 276.449 74.504C276.044 74.0987 275.841 73.56 275.841 72.888C275.841 72.1413 276.081 71.5653 276.561 71.16C277.041 70.7547 277.676 70.552 278.465 70.552C279.116 70.552 279.66 70.7067 280.097 71.016C280.119 70.376 280.023 69.9067 279.809 69.608C279.607 69.3093 279.255 69.16 278.753 69.16C278.199 69.16 277.569 69.3253 276.865 69.656ZM278.705 73.544C279.324 73.544 279.788 73.3253 280.097 72.888V72.152C279.799 71.9173 279.377 71.8 278.833 71.8C278.492 71.8 278.215 71.88 278.001 72.04C277.788 72.2 277.681 72.4187 277.681 72.696C277.681 72.952 277.777 73.16 277.969 73.32C278.161 73.4693 278.407 73.544 278.705 73.544ZM283.552 72.264V65.8H285.392V67.8H287.712V69.528H285.392V72.152C285.392 73.016 285.68 73.448 286.256 73.448C286.618 73.448 286.986 73.3093 287.36 73.032L287.92 74.456C287.333 74.9253 286.624 75.16 285.792 75.16C285.013 75.16 284.442 74.9253 284.08 74.456C283.728 73.976 283.552 73.2453 283.552 72.264ZM291.589 75H289.749V67.8H291.589V75ZM289.557 65.208C289.557 64.888 289.664 64.632 289.877 64.44C290.101 64.2373 290.378 64.136 290.709 64.136C290.997 64.136 291.242 64.2373 291.445 64.44C291.658 64.6427 291.765 64.8987 291.765 65.208C291.765 65.5493 291.658 65.8267 291.445 66.04C291.242 66.2533 290.997 66.36 290.709 66.36C290.378 66.36 290.101 66.2533 289.877 66.04C289.664 65.8267 289.557 65.5493 289.557 65.208ZM294.539 74.12C293.824 73.4053 293.467 72.4987 293.467 71.4C293.467 70.3013 293.824 69.4 294.539 68.696C295.253 67.9813 296.203 67.624 297.387 67.624C298.56 67.624 299.504 67.9813 300.219 68.696C300.944 69.4 301.307 70.3013 301.307 71.4C301.307 72.488 300.944 73.3947 300.219 74.12C299.493 74.824 298.549 75.176 297.387 75.176C296.203 75.176 295.253 74.824 294.539 74.12ZM295.995 69.928C295.621 70.312 295.435 70.8027 295.435 71.4C295.435 71.9973 295.616 72.4933 295.979 72.888C296.352 73.272 296.821 73.464 297.387 73.464C297.963 73.464 298.432 73.272 298.795 72.888C299.168 72.504 299.355 72.008 299.355 71.4C299.355 70.8027 299.168 70.312 298.795 69.928C298.421 69.544 297.952 69.352 297.387 69.352C296.832 69.352 296.368 69.544 295.995 69.928ZM304.739 75H302.899V67.8H304.739V68.52C305.272 67.9547 305.96 67.672 306.803 67.672C308.776 67.672 309.763 68.7067 309.763 70.776V75H307.923V71.096C307.923 69.9653 307.384 69.4 306.307 69.4C305.72 69.4 305.198 69.6293 304.739 70.088V75Z" fill="white"/>
</g>
<g filter="url(#filter11_d_891_1893)">
<path d="M367.056 14.024C367.056 13.6827 366.928 13.384 366.672 13.128C366.426 12.8613 366.117 12.648 365.744 12.488C365.37 12.3173 364.96 12.1253 364.512 11.912C364.074 11.688 363.669 11.4587 363.296 11.224C362.922 10.9787 362.608 10.6427 362.352 10.216C362.106 9.77867 361.984 9.27733 361.984 8.712C361.984 7.848 362.298 7.11733 362.928 6.52C363.578 5.92267 364.426 5.624 365.472 5.624C366.89 5.624 367.957 6.024 368.672 6.824L367.616 8.296C367.05 7.74133 366.389 7.464 365.632 7.464C365.152 7.464 364.768 7.576 364.48 7.8C364.202 8.024 364.064 8.32267 364.064 8.696C364.064 8.888 364.101 9.06933 364.176 9.24C364.25 9.4 364.33 9.53333 364.416 9.64C364.512 9.74667 364.661 9.864 364.864 9.992C365.077 10.12 365.242 10.216 365.36 10.28C365.488 10.3333 365.696 10.424 365.984 10.552C366.272 10.68 366.474 10.7707 366.592 10.824C367.061 11.0373 367.472 11.2613 367.824 11.496C368.218 11.7307 368.533 12.0667 368.768 12.504C369.013 12.9413 369.136 13.4427 369.136 14.008C369.136 14.9467 368.778 15.7093 368.064 16.296C367.349 16.8827 366.458 17.176 365.392 17.176C364.645 17.176 363.904 17.0213 363.168 16.712C362.464 16.392 361.984 15.96 361.728 15.416L362.848 14.072C363.146 14.4667 363.53 14.776 364 15C364.48 15.224 364.954 15.336 365.424 15.336C365.914 15.336 366.309 15.2187 366.608 14.984C366.906 14.7493 367.056 14.4293 367.056 14.024ZM376.332 14.584L377.196 15.928C376.588 16.76 375.633 17.176 374.332 17.176C373.169 17.176 372.225 16.8293 371.5 16.136C370.785 15.4533 370.428 14.5413 370.428 13.4C370.428 12.3227 370.78 11.4267 371.484 10.712C372.188 9.98667 373.078 9.624 374.156 9.624C375.436 9.624 376.401 9.94933 377.052 10.6L376.188 12.056C375.697 11.5867 375.1 11.352 374.396 11.352C373.862 11.352 373.393 11.544 372.988 11.928C372.593 12.2907 372.396 12.7813 372.396 13.4C372.396 14.0187 372.598 14.52 373.004 14.904C373.43 15.2773 373.921 15.464 374.476 15.464C375.19 15.464 375.809 15.1707 376.332 14.584ZM379.232 11.656L378.768 10.312C379.547 9.85333 380.395 9.624 381.312 9.624C382.315 9.624 383.046 9.86933 383.504 10.36C383.963 10.8507 384.192 11.6027 384.192 12.616V17H382.592V16.168C382.166 16.7867 381.456 17.096 380.464 17.096C379.782 17.096 379.232 16.8987 378.816 16.504C378.411 16.0987 378.208 15.56 378.208 14.888C378.208 14.1413 378.448 13.5653 378.928 13.16C379.408 12.7547 380.043 12.552 380.832 12.552C381.483 12.552 382.027 12.7067 382.464 13.016C382.486 12.376 382.39 11.9067 382.176 11.608C381.974 11.3093 381.622 11.16 381.12 11.16C380.566 11.16 379.936 11.3253 379.232 11.656ZM381.072 15.544C381.691 15.544 382.155 15.3253 382.464 14.888V14.152C382.166 13.9173 381.744 13.8 381.2 13.8C380.859 13.8 380.582 13.88 380.368 14.04C380.155 14.2 380.048 14.4187 380.048 14.696C380.048 14.952 380.144 15.16 380.336 15.32C380.528 15.4693 380.774 15.544 381.072 15.544ZM386.079 15.016V5.8H387.919V14.264C387.919 15.0427 388.127 15.432 388.543 15.432C388.777 15.432 389.028 15.336 389.295 15.144L389.679 16.552C389.177 16.9573 388.543 17.16 387.775 17.16C386.644 17.16 386.079 16.4453 386.079 15.016ZM392.972 17H391.132V9.8H392.972V17ZM390.94 7.208C390.94 6.888 391.047 6.632 391.26 6.44C391.484 6.23733 391.761 6.136 392.092 6.136C392.38 6.136 392.625 6.23733 392.828 6.44C393.041 6.64267 393.148 6.89867 393.148 7.208C393.148 7.54933 393.041 7.82667 392.828 8.04C392.625 8.25333 392.38 8.36 392.092 8.36C391.761 8.36 391.484 8.25333 391.26 8.04C391.047 7.82667 390.94 7.54933 390.94 7.208ZM397.137 17H395.297V9.8H397.137V10.52C397.671 9.95467 398.359 9.672 399.201 9.672C401.175 9.672 402.161 10.7067 402.161 12.776V17H400.321V13.096C400.321 11.9653 399.783 11.4 398.705 11.4C398.119 11.4 397.596 11.6293 397.137 12.088V17ZM403.088 17.976C403.088 17.4107 403.296 16.9413 403.712 16.568C404.128 16.184 404.698 15.912 405.424 15.752C405.338 15.6027 405.296 15.4373 405.296 15.256C405.296 15.0533 405.349 14.8827 405.456 14.744C404.922 14.5307 404.501 14.2107 404.192 13.784C403.893 13.3467 403.744 12.8613 403.744 12.328C403.744 11.592 404.026 10.9573 404.592 10.424C405.157 9.89067 405.898 9.624 406.816 9.624C407.509 9.624 408.122 9.79467 408.656 10.136L410.832 9.656L410.896 11.128L409.696 11.4C409.813 11.72 409.872 12.0293 409.872 12.328C409.872 13.0533 409.589 13.6827 409.024 14.216C408.469 14.728 407.733 14.984 406.816 14.984H406.688C406.666 15.0693 406.656 15.16 406.656 15.256C406.656 15.3947 406.688 15.5173 406.752 15.624H406.832C407.952 15.624 408.853 15.8213 409.536 16.216C410.229 16.6213 410.576 17.208 410.576 17.976C410.576 18.744 410.229 19.3307 409.536 19.736C408.853 20.1307 407.952 20.328 406.832 20.328C405.68 20.328 404.768 20.1253 404.096 19.72C403.424 19.3253 403.088 18.744 403.088 17.976ZM404.8 17.976C404.8 18.2533 404.976 18.4667 405.328 18.616C405.69 18.776 406.192 18.856 406.832 18.856C408.176 18.856 408.848 18.5627 408.848 17.976C408.848 17.7093 408.672 17.496 408.32 17.336C407.968 17.176 407.472 17.096 406.832 17.096C406.202 17.096 405.706 17.176 405.344 17.336C404.981 17.496 404.8 17.7093 404.8 17.976ZM406.816 13.496C407.21 13.496 407.53 13.3893 407.776 13.176C408.032 12.9627 408.16 12.68 408.16 12.328C408.16 11.9653 408.037 11.672 407.792 11.448C407.546 11.224 407.221 11.112 406.816 11.112C406.41 11.112 406.085 11.2293 405.84 11.464C405.594 11.688 405.472 11.976 405.472 12.328C405.472 12.6693 405.594 12.952 405.84 13.176C406.085 13.3893 406.41 13.496 406.816 13.496Z" fill="#E3AA10"/>
</g>
<defs>
<filter id="filter0_d_891_1893" x="31.8948" y="298.144" width="46.0017" height="10.9961" filterUnits="userSpaceOnUse" color-interpolation-filters="sRGB">
<feFlood flood-opacity="0" result="BackgroundImageFix"/>
<feColorMatrix in="SourceAlpha" type="matrix" values="0 0 0 0 0 0 0 0 0 0 0 0 0 0 0 0 0 0 127 0" result="hardAlpha"/>
<feOffset dy="1"/>
<feComposite in2="hardAlpha" operator="out"/>
<feColorMatrix type="matrix" values="0 0 0 0 0.207843 0 0 0 0 0.141176 0 0 0 0 0.462745 0 0 0 0.5 0"/>
<feBlend mode="normal" in2="BackgroundImageFix" result="effect1_dropShadow_891_1893"/>
<feBlend mode="normal" in="SourceGraphic" in2="effect1_dropShadow_891_1893" result="shape"/>
</filter>
<filter id="filter1_d_891_1893" x="26.9234" y="245.67" width="57.9893" height="22.6602" filterUnits="userSpaceOnUse" color-interpolation-filters="sRGB">
<feFlood flood-opacity="0" result="BackgroundImageFix"/>
<feColorMatrix in="SourceAlpha" type="matrix" values="0 0 0 0 0 0 0 0 0 0 0 0 0 0 0 0 0 0 127 0" result="hardAlpha"/>
<feOffset dy="1"/>
<feComposite in2="hardAlpha" operator="out"/>
<feColorMatrix type="matrix" values="0 0 0 0 0.207843 0 0 0 0 0.141176 0 0 0 0 0.462745 0 0 0 0.5 0"/>
<feBlend mode="normal" in2="BackgroundImageFix" result="effect1_dropShadow_891_1893"/>
<feBlend mode="normal" in="SourceGraphic" in2="effect1_dropShadow_891_1893" result="shape"/>
</filter>
<filter id="filter2_d_891_1893" x="136.921" y="181.67" width="56.9932" height="22.6602" filterUnits="userSpaceOnUse" color-interpolation-filters="sRGB">
<feFlood flood-opacity="0" result="BackgroundImageFix"/>
<feColorMatrix in="SourceAlpha" type="matrix" values="0 0 0 0 0 0 0 0 0 0 0 0 0 0 0 0 0 0 127 0" result="hardAlpha"/>
<feOffset dy="1"/>
<feComposite in2="hardAlpha" operator="out"/>
<feColorMatrix type="matrix" values="0 0 0 0 0.207843 0 0 0 0 0.141176 0 0 0 0 0.462745 0 0 0 0.5 0"/>
<feBlend mode="normal" in2="BackgroundImageFix" result="effect1_dropShadow_891_1893"/>
<feBlend mode="normal" in="SourceGraphic" in2="effect1_dropShadow_891_1893" result="shape"/>
</filter>
<filter id="filter3_d_891_1893" x="140.856" y="298.088" width="48.9837" height="11.0522" filterUnits="userSpaceOnUse" color-interpolation-filters="sRGB">
<feFlood flood-opacity="0" result="BackgroundImageFix"/>
<feColorMatrix in="SourceAlpha" type="matrix" values="0 0 0 0 0 0 0 0 0 0 0 0 0 0 0 0 0 0 127 0" result="hardAlpha"/>
<feOffset dy="1"/>
<feComposite in2="hardAlpha" operator="out"/>
<feColorMatrix type="matrix" values="0 0 0 0 0.207843 0 0 0 0 0.141176 0 0 0 0 0.462745 0 0 0 0.5 0"/>
<feBlend mode="normal" in2="BackgroundImageFix" result="effect1_dropShadow_891_1893"/>
<feBlend mode="normal" in="SourceGraphic" in2="effect1_dropShadow_891_1893" result="shape"/>
</filter>
<filter id="filter4_d_891_1893" x="251.822" y="298.06" width="48.9137" height="11.0801" filterUnits="userSpaceOnUse" color-interpolation-filters="sRGB">
<feFlood flood-opacity="0" result="BackgroundImageFix"/>
<feColorMatrix in="SourceAlpha" type="matrix" values="0 0 0 0 0 0 0 0 0 0 0 0 0 0 0 0 0 0 127 0" result="hardAlpha"/>
<feOffset dy="1"/>
<feComposite in2="hardAlpha" operator="out"/>
<feColorMatrix type="matrix" values="0 0 0 0 0.207843 0 0 0 0 0.141176 0 0 0 0 0.462745 0 0 0 0.5 0"/>
<feBlend mode="normal" in2="BackgroundImageFix" result="effect1_dropShadow_891_1893"/>
<feBlend mode="normal" in="SourceGraphic" in2="effect1_dropShadow_891_1893" result="shape"/>
</filter>
<filter id="filter5_d_891_1893" x="241.181" y="114.67" width="69.4737" height="22.6602" filterUnits="userSpaceOnUse" color-interpolation-filters="sRGB">
<feFlood flood-opacity="0" result="BackgroundImageFix"/>
<feColorMatrix in="SourceAlpha" type="matrix" values="0 0 0 0 0 0 0 0 0 0 0 0 0 0 0 0 0 0 127 0" result="hardAlpha"/>
<feOffset dy="1"/>
<feComposite in2="hardAlpha" operator="out"/>
<feColorMatrix type="matrix" values="0 0 0 0 0.207843 0 0 0 0 0.141176 0 0 0 0 0.462745 0 0 0 0.5 0"/>
<feBlend mode="normal" in2="BackgroundImageFix" result="effect1_dropShadow_891_1893"/>
<feBlend mode="normal" in="SourceGraphic" in2="effect1_dropShadow_891_1893" result="shape"/>
</filter>
<filter id="filter6_d_891_1893" x="361.699" y="298.2" width="49.6557" height="10.9399" filterUnits="userSpaceOnUse" color-interpolation-filters="sRGB">
<feFlood flood-opacity="0" result="BackgroundImageFix"/>
<feColorMatrix in="SourceAlpha" type="matrix" values="0 0 0 0 0 0 0 0 0 0 0 0 0 0 0 0 0 0 127 0" result="hardAlpha"/>
<feOffset dy="1"/>
<feComposite in2="hardAlpha" operator="out"/>
<feColorMatrix type="matrix" values="0 0 0 0 0.207843 0 0 0 0 0.141176 0 0 0 0 0.462745 0 0 0 0.5 0"/>
<feBlend mode="normal" in2="BackgroundImageFix" result="effect1_dropShadow_891_1893"/>
<feBlend mode="normal" in="SourceGraphic" in2="effect1_dropShadow_891_1893" result="shape"/>
</filter>
<filter id="filter7_d_891_1893" x="350.668" y="56.6699" width="70.4991" height="22.6602" filterUnits="userSpaceOnUse" color-interpolation-filters="sRGB">
<feFlood flood-opacity="0" result="BackgroundImageFix"/>
<feColorMatrix in="SourceAlpha" type="matrix" values="0 0 0 0 0 0 0 0 0 0 0 0 0 0 0 0 0 0 127 0" result="hardAlpha"/>
<feOffset dy="1"/>
<feComposite in2="hardAlpha" operator="out"/>
<feColorMatrix type="matrix" values="0 0 0 0 0.207843 0 0 0 0 0.141176 0 0 0 0 0.462745 0 0 0 0.5 0"/>
<feBlend mode="normal" in2="BackgroundImageFix" result="effect1_dropShadow_891_1893"/>
<feBlend mode="normal" in="SourceGraphic" in2="effect1_dropShadow_891_1893" result="shape"/>
</filter>
<filter id="filter8_d_891_1893" x="25.0129" y="194.768" width="60.6797" height="12.4077" filterUnits="userSpaceOnUse" color-interpolation-filters="sRGB">
<feFlood flood-opacity="0" result="BackgroundImageFix"/>
<feColorMatrix in="SourceAlpha" type="matrix" values="0 0 0 0 0 0 0 0 0 0 0 0 0 0 0 0 0 0 127 0" result="hardAlpha"/>
<feOffset dy="1"/>
<feComposite in2="hardAlpha" operator="out"/>
<feColorMatrix type="matrix" values="0 0 0 0 0.207843 0 0 0 0 0.141176 0 0 0 0 0.462745 0 0 0 0.5 0"/>
<feBlend mode="normal" in2="BackgroundImageFix" result="effect1_dropShadow_891_1893"/>
<feBlend mode="normal" in="SourceGraphic" in2="effect1_dropShadow_891_1893" result="shape"/>
</filter>
<filter id="filter9_d_891_1893" x="124.896" y="130.8" width="81.1631" height="15.4004" filterUnits="userSpaceOnUse" color-interpolation-filters="sRGB">
<feFlood flood-opacity="0" result="BackgroundImageFix"/>
<feColorMatrix in="SourceAlpha" type="matrix" values="0 0 0 0 0 0 0 0 0 0 0 0 0 0 0 0 0 0 127 0" result="hardAlpha"/>
<feOffset dy="1"/>
<feComposite in2="hardAlpha" operator="out"/>
<feColorMatrix type="matrix" values="0 0 0 0 0.207843 0 0 0 0 0.141176 0 0 0 0 0.462745 0 0 0 0.5 0"/>
<feBlend mode="normal" in2="BackgroundImageFix" result="effect1_dropShadow_891_1893"/>
<feBlend mode="normal" in="SourceGraphic" in2="effect1_dropShadow_891_1893" result="shape"/>
</filter>
<filter id="filter10_d_891_1893" x="240.343" y="63.7998" width="69.4204" height="12.376" filterUnits="userSpaceOnUse" color-interpolation-filters="sRGB">
<feFlood flood-opacity="0" result="BackgroundImageFix"/>
<feColorMatrix in="SourceAlpha" type="matrix" values="0 0 0 0 0 0 0 0 0 0 0 0 0 0 0 0 0 0 127 0" result="hardAlpha"/>
<feOffset dy="1"/>
<feComposite in2="hardAlpha" operator="out"/>
<feColorMatrix type="matrix" values="0 0 0 0 0.207843 0 0 0 0 0.141176 0 0 0 0 0.462745 0 0 0 0.5 0"/>
<feBlend mode="normal" in2="BackgroundImageFix" result="effect1_dropShadow_891_1893"/>
<feBlend mode="normal" in="SourceGraphic" in2="effect1_dropShadow_891_1893" result="shape"/>
</filter>
<filter id="filter11_d_891_1893" x="361.728" y="5.62402" width="49.168" height="15.7041" filterUnits="userSpaceOnUse" color-interpolation-filters="sRGB">
<feFlood flood-opacity="0" result="BackgroundImageFix"/>
<feColorMatrix in="SourceAlpha" type="matrix" values="0 0 0 0 0 0 0 0 0 0 0 0 0 0 0 0 0 0 127 0" result="hardAlpha"/>
<feOffset dy="1"/>
<feComposite in2="hardAlpha" operator="out"/>
<feColorMatrix type="matrix" values="0 0 0 0 0.207843 0 0 0 0 0.141176 0 0 0 0 0.462745 0 0 0 0.5 0"/>
<feBlend mode="normal" in2="BackgroundImageFix" result="effect1_dropShadow_891_1893"/>
<feBlend mode="normal" in="SourceGraphic" in2="effect1_dropShadow_891_1893" result="shape"/>
</filter>
<linearGradient id="paint0_linear_891_1893" x1="55" y1="0" x2="55" y2="112" gradientUnits="userSpaceOnUse">
<stop stop-color="white" stop-opacity="0.18"/>
<stop offset="1" stop-color="white" stop-opacity="0"/>
</linearGradient>
<linearGradient id="paint1_linear_891_1893" x1="55" y1="0" x2="55" y2="163" gradientUnits="userSpaceOnUse">
<stop stop-color="white" stop-opacity="0.18"/>
<stop offset="1" stop-color="white" stop-opacity="0"/>
</linearGradient>
<linearGradient id="paint2_linear_891_1893" x1="55" y1="0" x2="55" y2="230" gradientUnits="userSpaceOnUse">
<stop stop-color="white" stop-opacity="0.18"/>
<stop offset="1" stop-color="white" stop-opacity="0"/>
</linearGradient>
<linearGradient id="paint3_linear_891_1893" x1="55" y1="0" x2="55" y2="288" gradientUnits="userSpaceOnUse">
<stop offset="0.275" stop-color="#E3AA10" stop-opacity="0.5"/>
<stop offset="1" stop-color="#634EB7" stop-opacity="0"/>
</linearGradient>
</defs>
</svg>
