<svg width="157" height="33" viewBox="0 0 157 33" fill="none" xmlns="http://www.w3.org/2000/svg">
<g id="CRS_logo 2" clip-path="url(#clip0_891_2748)">
<g id="Group">
<path id="Vector" d="M18.779 8.38366C18.779 10.8372 17.4259 12.3502 15.1708 12.3502C12.9566 12.3502 11.6035 10.8372 11.6035 8.38366C11.6035 5.97102 12.9566 4.45801 15.1708 4.45801C17.4259 4.45801 18.779 5.97102 18.779 8.38366ZM13.4896 8.38366C13.4896 9.85578 14.1457 10.7145 15.2118 10.7145C16.3188 10.7145 16.9339 9.85578 16.9339 8.38366C16.9339 6.95243 16.2778 6.0528 15.2118 6.0528C14.1047 6.0937 13.4896 6.95243 13.4896 8.38366ZM24.3144 4.53979C25.2165 4.53979 25.7495 5.5212 25.2165 6.25726L17.3439 17.1755C17.1389 17.4617 16.8109 17.6253 16.4829 17.6253H16.4009C15.4988 17.6253 15.0068 16.6439 15.5398 15.9078L23.4533 4.98961C23.6174 4.70336 23.9454 4.53979 24.3144 4.53979ZM29.2347 13.7405C29.2347 16.1941 27.8817 17.6662 25.6265 17.6662C23.4123 17.6662 22.0592 16.1532 22.0592 13.7405C22.0592 11.3279 23.4123 9.81488 25.6265 9.81488C27.8407 9.77399 29.2347 11.287 29.2347 13.7405ZM23.9044 13.7405C23.9044 15.2127 24.5604 16.0714 25.6265 16.0714C26.7336 16.0714 27.3486 15.2127 27.3486 13.7405C27.3486 12.2684 26.6926 11.4097 25.6265 11.4097C24.5194 11.4097 23.9044 12.2684 23.9044 13.7405Z" fill="white"/>
</g>
<path id="Vector_2" d="M34.2364 21.5921C34.2364 21.1013 33.8264 20.7333 33.3344 20.7333H27.225H11.3978L8.89667 10.6738L8.36363 8.42477L7.37956 3.76306L6.84653 1.22774H6.88753L6.76452 0.777928C6.64151 0.287222 6.19048 0.000976562 5.65744 0.000976562H1.18813C0.696095 0.000976562 0.204061 0.409898 0.0400494 0.859713C-0.205968 1.63666 0.368072 2.45451 1.14713 2.45451H4.79638L10.2498 25.8857C8.77366 26.4582 7.78959 27.8895 7.9536 29.6069C8.11762 31.4062 9.67572 32.9192 11.4799 33.001C13.571 33.0828 15.2931 31.2835 15.2931 29.2389C15.2931 28.7482 15.2111 27.8077 15.0061 27.8077H22.9197C22.7556 27.8077 22.6326 28.7891 22.6326 29.2798C22.6326 31.5289 24.6828 33.2463 27.0199 32.8374C28.7421 32.5512 30.0131 31.0382 30.0131 29.2798C30.0131 28.7482 29.8901 28.3393 29.7261 27.8895C30.2182 27.7668 30.5872 27.1125 30.5872 26.6218C30.5872 26.0493 30.0952 25.3541 29.5211 25.3541H12.5049L11.8489 22.4917H30.3412H33.3344C33.8264 22.4917 34.2364 22.0828 34.2364 21.5921ZM26.6509 27.9303C27.143 28.053 27.553 28.4619 27.676 28.9527C27.922 30.0158 27.0199 30.9155 25.9539 30.6701C25.4618 30.5474 25.0518 30.1385 24.9288 29.6478C24.6828 28.6255 25.5848 27.685 26.6509 27.9303ZM12.956 29.6478C12.8329 30.1385 12.4229 30.5474 11.9309 30.6701C10.8648 30.9155 9.96274 30.0158 10.2088 28.9527C10.3318 28.4619 10.7418 28.053 11.2338 27.9303C12.2999 27.685 13.202 28.6255 12.956 29.6478Z" fill="white"/>
<g id="Group_2">
<path id="Vector_3" d="M47.3167 8.71141C48.3828 8.71141 49.2439 8.30249 49.8999 7.44375L51.294 8.87498C50.1869 10.1017 48.9158 10.7151 47.3987 10.7151C45.9226 10.7151 44.6925 10.2653 43.7085 9.32479C42.7654 8.38427 42.2734 7.1984 42.2734 5.76717C42.2734 4.33594 42.7654 3.15007 43.7495 2.20955C44.7335 1.26903 45.9226 0.77832 47.3577 0.77832C48.9568 0.77832 50.2689 1.3917 51.335 2.57758L50.0229 4.09059C49.3259 3.23185 48.5058 2.82293 47.4807 2.82293C46.6607 2.82293 45.9636 3.06828 45.3896 3.59988C44.8156 4.13148 44.5285 4.82665 44.5285 5.72628C44.5285 6.62591 44.8156 7.36196 45.3486 7.89356C45.8816 8.46605 46.5787 8.71141 47.3167 8.71141Z" fill="white"/>
<path id="Vector_4" d="M60.2319 6.91223C60.2319 7.97542 59.8629 8.87505 59.1248 9.61111C58.3868 10.3472 57.4437 10.7152 56.2957 10.7152C55.1476 10.7152 54.2455 10.3472 53.4665 9.61111C52.7284 8.87505 52.3594 7.97542 52.3594 6.91223C52.3594 5.84903 52.7284 4.9494 53.4665 4.17245C54.2045 3.3955 55.1476 3.06836 56.2957 3.06836C57.4437 3.06836 58.3458 3.43639 59.1248 4.17245C59.9039 4.90851 60.2319 5.84903 60.2319 6.91223ZM54.4505 6.91223C54.4505 7.52561 54.6145 8.01631 54.9836 8.38435C55.3116 8.75237 55.7626 8.95684 56.2957 8.95684C56.8287 8.95684 57.2797 8.75237 57.6077 8.38435C57.9358 8.01631 58.1408 7.52561 58.1408 6.91223C58.1408 6.29884 57.9768 5.80814 57.6077 5.44011C57.2387 5.07208 56.8287 4.86762 56.2957 4.86762C55.7626 4.86762 55.3116 5.07208 54.9836 5.44011C54.6555 5.80814 54.4505 6.29884 54.4505 6.91223Z" fill="white"/>
<path id="Vector_5" d="M63.8409 6.5033V10.6334H61.7498V3.19104H63.8409V4.00888C64.4559 3.3546 65.153 3.06836 65.973 3.06836C66.7521 3.06836 67.4082 3.3546 67.9412 3.8862C68.4742 4.4178 68.7202 5.15386 68.7202 6.09438V10.5925H66.6291V6.42152C66.6291 5.27654 66.2191 4.70405 65.358 4.70405C64.948 4.70405 64.579 4.86762 64.2919 5.15386C64.0049 5.481 63.8409 5.88992 63.8409 6.5033Z" fill="white"/>
<path id="Vector_6" d="M72.6163 10.6338L69.6641 3.19141H71.8372L73.6823 7.85312L75.5275 3.19141H77.7006L74.7484 10.6338H72.6163Z" fill="white"/>
<path id="Vector_7" d="M85.1619 9.52945C84.3419 10.3064 83.3578 10.7153 82.2097 10.7153C81.0616 10.7153 80.1596 10.3882 79.4215 9.69302C78.6835 8.99785 78.3145 8.05733 78.3145 6.91235C78.3145 5.72647 78.6835 4.82685 79.4215 4.13168C80.1596 3.43651 81.0616 3.10938 82.0867 3.10938C83.1118 3.10938 83.9729 3.43651 84.7109 4.0499C85.408 4.66328 85.777 5.52201 85.777 6.58521V7.6893H80.3646C80.4466 8.09822 80.6516 8.42536 81.0206 8.67071C81.3897 8.91607 81.7997 9.03874 82.2507 9.03874C82.9888 9.03874 83.5628 8.79339 84.0549 8.30268L85.1619 9.52945ZM83.1528 5.15398C82.8658 4.90863 82.5378 4.78595 82.1277 4.78595C81.7177 4.78595 81.3487 4.90863 81.0206 5.15398C80.6926 5.39934 80.4876 5.72648 80.4466 6.17629H83.7268C83.6038 5.72648 83.4398 5.39934 83.1528 5.15398Z" fill="white"/>
<path id="Vector_8" d="M91.1492 5.03118C90.5341 5.03118 90.0831 5.23565 89.7551 5.68546C89.4681 6.13527 89.304 6.70776 89.304 7.40293V10.6334H87.2129V3.19104H89.304V4.17245C89.5911 3.8862 89.9191 3.59996 90.2881 3.3955C90.6981 3.19104 91.1082 3.06836 91.5182 3.06836V5.03118H91.1492Z" fill="white"/>
<path id="Vector_9" d="M98.5294 8.30256C98.5294 9.03862 98.2424 9.61111 97.7093 10.0609C97.1763 10.5107 96.4792 10.7152 95.6592 10.7152C95.1261 10.7152 94.5111 10.6334 93.9371 10.429C93.322 10.2245 92.789 9.93825 92.338 9.57022L93.24 8.26167C94.0191 8.87505 94.8391 9.1613 95.7002 9.1613C95.9872 9.1613 96.1922 9.1204 96.3562 8.99773C96.5202 8.87505 96.6022 8.75237 96.6022 8.58881C96.6022 8.42524 96.4792 8.26167 96.2742 8.0981C96.0692 7.93453 95.7412 7.81185 95.3312 7.68918C94.9211 7.5665 94.5931 7.44382 94.3881 7.36204C94.1831 7.28026 93.9371 7.11669 93.65 6.95312C93.076 6.58509 92.789 6.09438 92.789 5.39921C92.789 4.70405 93.076 4.17245 93.609 3.72263C94.1421 3.27282 94.8801 3.06836 95.7412 3.06836C96.6022 3.06836 97.5043 3.3546 98.3654 3.96799L97.5863 5.35832C96.9303 4.90851 96.3152 4.70405 95.6592 4.70405C95.0031 4.70405 94.7161 4.86762 94.7161 5.23565C94.7161 5.44011 94.7981 5.56278 95.0031 5.68546C95.2081 5.80814 95.5362 5.93081 96.0282 6.05349C96.4792 6.21706 96.8483 6.29884 97.0123 6.38063C97.2173 6.46241 97.4633 6.58509 97.7093 6.74866C98.2834 7.07579 98.5294 7.5665 98.5294 8.30256Z" fill="white"/>
<path id="Vector_10" d="M100.293 2.25054C100.047 2.00519 99.9238 1.71894 99.9238 1.3918C99.9238 1.06467 100.047 0.778422 100.293 0.533069C100.539 0.287716 100.826 0.165039 101.154 0.165039C101.482 0.165039 101.769 0.287716 102.015 0.533069C102.261 0.778422 102.384 1.06467 102.384 1.3918C102.384 1.71894 102.261 2.00519 102.015 2.25054C101.769 2.49589 101.482 2.61857 101.154 2.61857C100.826 2.61857 100.539 2.49589 100.293 2.25054ZM102.179 10.6334H100.088V3.19106H102.179V10.6334Z" fill="white"/>
<path id="Vector_11" d="M111.609 6.91223C111.609 7.97542 111.24 8.87505 110.502 9.61111C109.764 10.3472 108.821 10.7152 107.673 10.7152C106.525 10.7152 105.622 10.3472 104.843 9.61111C104.105 8.87505 103.736 7.97542 103.736 6.91223C103.736 5.84903 104.105 4.9494 104.843 4.17245C105.581 3.43639 106.525 3.06836 107.673 3.06836C108.821 3.06836 109.723 3.43639 110.502 4.17245C111.281 4.90851 111.609 5.84903 111.609 6.91223ZM105.827 6.91223C105.827 7.52561 105.991 8.01631 106.361 8.38435C106.689 8.75237 107.14 8.95684 107.673 8.95684C108.206 8.95684 108.657 8.75237 108.985 8.38435C109.313 8.01631 109.518 7.52561 109.518 6.91223C109.518 6.29884 109.354 5.80814 108.985 5.44011C108.616 5.07208 108.206 4.86762 107.673 4.86762C107.14 4.86762 106.689 5.07208 106.361 5.44011C106.032 5.80814 105.827 6.29884 105.827 6.91223Z" fill="white"/>
<path id="Vector_12" d="M115.218 6.5033V10.6334H113.127V3.19104H115.218V4.00888C115.833 3.3546 116.53 3.06836 117.35 3.06836C118.17 3.06836 118.785 3.3546 119.318 3.8862C119.851 4.4178 120.097 5.15386 120.097 6.09438V10.5925H118.006V6.42152C118.006 5.27654 117.596 4.70405 116.735 4.70405C116.325 4.70405 115.956 4.86762 115.669 5.15386C115.341 5.481 115.218 5.88992 115.218 6.5033Z" fill="white"/>
<path id="Vector_13" d="M133.669 4.17201C133.669 5.72592 133.054 6.70733 131.824 7.15714L134.284 10.5921H131.619L129.487 7.52517H128.011V10.633H125.838V0.982422H129.487C131.004 0.982422 132.07 1.22778 132.685 1.75937C133.341 2.25008 133.669 3.06792 133.669 4.17201ZM131.045 5.31699C131.332 5.07164 131.455 4.70361 131.455 4.17201C131.455 3.64041 131.332 3.31328 131.045 3.10882C130.758 2.90435 130.266 2.82257 129.61 2.82257H128.011V5.68502H129.569C130.307 5.68502 130.799 5.56235 131.045 5.31699Z" fill="white"/>
<path id="Vector_14" d="M141.992 10.6334H140.024V9.73379C139.491 10.3881 138.835 10.7561 138.056 10.7561C137.277 10.7561 136.621 10.5107 136.088 10.0609C135.555 9.61111 135.268 8.99773 135.268 8.26167C135.268 7.48472 135.555 6.95312 136.088 6.5442C136.621 6.17617 137.4 5.97171 138.343 5.97171H139.901V5.93081C139.901 5.15386 139.491 4.74494 138.63 4.74494C138.261 4.74494 137.892 4.82672 137.482 4.9494C137.072 5.07208 136.744 5.27654 136.457 5.481L135.514 4.13156C136.498 3.43639 137.605 3.06836 138.876 3.06836C139.778 3.06836 140.516 3.31371 141.09 3.76353C141.664 4.21334 141.951 4.90851 141.951 5.88992V10.6334H141.992ZM139.901 7.81185V7.44382H138.589C137.769 7.44382 137.359 7.68918 137.359 8.22078C137.359 8.50702 137.441 8.71148 137.646 8.83416C137.851 8.95684 138.138 9.03862 138.507 9.03862C138.876 9.03862 139.204 8.91594 139.491 8.71148C139.737 8.46613 139.901 8.17988 139.901 7.81185Z" fill="white"/>
<path id="Vector_15" d="M146.339 4.70361V8.01588C146.339 8.30213 146.421 8.50659 146.544 8.67016C146.708 8.83372 146.872 8.91551 147.077 8.91551C147.446 8.91551 147.774 8.75194 148.061 8.38391L148.84 9.81514C148.184 10.3876 147.528 10.7148 146.79 10.7148C146.093 10.7148 145.478 10.4694 144.986 10.0196C144.494 9.56978 144.248 8.91551 144.248 8.09766V4.66272H143.387V3.1906H144.248V0.982422H146.339V3.1906H148.143V4.66272H146.339V4.70361Z" fill="white"/>
<path id="Vector_16" d="M156.384 9.52945C155.564 10.3064 154.58 10.7153 153.432 10.7153C152.284 10.7153 151.382 10.3882 150.644 9.69302C149.906 8.99785 149.537 8.05733 149.537 6.91235C149.537 5.72647 149.906 4.82685 150.644 4.13168C151.382 3.43651 152.284 3.10938 153.309 3.10938C154.334 3.10938 155.195 3.43651 155.933 4.0499C156.63 4.66328 156.999 5.52201 156.999 6.58521V7.6893H151.587C151.669 8.09822 151.874 8.42536 152.243 8.67071C152.612 8.91607 153.022 9.03874 153.473 9.03874C154.211 9.03874 154.785 8.79339 155.277 8.30268L156.384 9.52945ZM154.416 5.15398C154.129 4.90863 153.801 4.78595 153.391 4.78595C152.981 4.78595 152.612 4.90863 152.284 5.15398C151.956 5.39934 151.751 5.72648 151.669 6.17629H154.949C154.867 5.72648 154.703 5.39934 154.416 5.15398Z" fill="white"/>
<path id="Vector_17" d="M49.1209 16.3176L48.6699 17.3399C47.8088 16.7674 46.7837 16.5221 46.0047 16.5221C44.7746 16.5221 43.9545 16.9719 43.9545 17.7897C43.9545 20.2841 49.4079 18.9756 49.3669 22.4923C49.3669 24.0871 47.9318 25.1503 45.8817 25.1503C44.4876 25.1503 43.0935 24.5369 42.1914 23.6782L42.6834 22.6968C43.5855 23.5555 44.8156 24.0462 45.9227 24.0462C47.3168 24.0462 48.1778 23.4737 48.1778 22.5741C48.1778 20.0388 42.7654 21.3882 42.7654 17.9124C42.7654 16.3994 44.1185 15.418 46.1277 15.418C47.1528 15.418 48.3008 15.786 49.1209 16.3176Z" fill="white"/>
<path id="Vector_18" d="M55.231 24.6181C54.739 24.9453 54.1649 25.1497 53.5909 25.1497C52.5248 25.1497 51.7458 24.4955 51.7458 23.0642V18.975H50.6797V18.1163H51.7458V16.1943H52.8118V18.1163H55.108V19.0159H52.8118V22.9007C52.8118 23.8003 53.1399 24.1274 53.7959 24.1274C54.1649 24.1274 54.575 24.0047 54.944 23.7594L55.231 24.6181Z" fill="white"/>
<path id="Vector_19" d="M63.3903 21.4695C63.3903 23.6368 61.8732 25.1498 59.7 25.1498C57.5269 25.1498 56.0098 23.6368 56.0098 21.4695C56.0098 19.3022 57.5269 17.8301 59.7 17.8301C61.8732 17.8301 63.3903 19.3022 63.3903 21.4695ZM57.0758 21.5104C57.0758 23.1052 58.1829 24.2093 59.7 24.2093C61.2171 24.2093 62.3242 23.1052 62.3242 21.5104C62.3242 19.9156 61.2171 18.8115 59.7 18.8115C58.1829 18.8115 57.0758 19.9156 57.0758 21.5104Z" fill="white"/>
<path id="Vector_20" d="M66.3825 19.4658C66.8745 18.4026 67.7766 17.8301 69.0067 17.8301V18.9342C67.4896 18.8933 66.5055 19.8747 66.3825 21.3059V25.1498H65.3164V17.871H66.3825V19.4658Z" fill="white"/>
<path id="Vector_21" d="M76.7166 21.9202H70.7712C70.9762 23.3514 72.0012 24.251 73.3953 24.251C74.2974 24.251 75.0765 23.9239 75.6505 23.3514L76.2245 24.0057C75.5275 24.7826 74.5024 25.2325 73.3133 25.2325C71.1812 25.2325 69.7051 23.7194 69.7051 21.5522C69.7051 19.3849 71.1812 17.8719 73.3133 17.8719C75.6505 17.831 76.7986 19.4258 76.7166 21.9202ZM75.7325 21.0206C75.6505 19.6302 74.7074 18.7306 73.3133 18.7306C71.9192 18.7306 70.9352 19.6302 70.7712 21.0206H75.7325Z" fill="white"/>
</g>
</g>
<defs>
<clipPath id="clip0_891_2748">
<rect width="157" height="33" fill="white" transform="translate(0 0.000976562)"/>
</clipPath>
</defs>
</svg>
