<svg width="41" height="40" viewBox="0 0 41 40" fill="none" xmlns="http://www.w3.org/2000/svg">
<g clip-path="url(#clip0_891_2283)">
<path d="M8.64648 4.39795C6.57836 4.39795 4.89648 6.07982 4.89648 8.14795C4.89648 10.2161 6.57836 11.8979 8.64648 11.8979C10.7146 11.8979 12.3965 10.2161 12.3965 8.14795C12.3965 6.07982 10.7146 4.39795 8.64648 4.39795ZM8.64648 10.6479C7.26773 10.6479 6.14648 9.5267 6.14648 8.14795C6.14648 6.7692 7.26773 5.64795 8.64648 5.64795C10.0252 5.64795 11.1465 6.7692 11.1465 8.14795C11.1465 9.5267 10.0252 10.6479 8.64648 10.6479Z" fill="#5C51A5"/>
<path d="M36.5673 30.4428L35.6836 29.5591L31.1255 34.1172L30.3173 33.3091L29.4336 34.1928L31.1255 35.8847L36.5673 30.4428Z" fill="#5C51A5"/>
<path d="M22.375 7.50098H23.625V8.75098H22.375V7.50098Z" fill="#5C51A5"/>
<path d="M29.875 7.50098H31.125V8.75098H29.875V7.50098Z" fill="#5C51A5"/>
<path d="M27.375 7.50098H28.625V8.75098H27.375V7.50098Z" fill="#5C51A5"/>
<path d="M24.875 7.50098H26.125V8.75098H24.875V7.50098Z" fill="#5C51A5"/>
<path d="M15.5 23.1261H25.5C26.5338 23.1261 27.375 22.2848 27.375 21.2511V20.6261H35.5C37.9119 20.6261 39.875 18.6636 39.875 16.2511V11.8761C39.875 9.46357 37.9119 7.50107 35.5 7.50107H33.625V6.87607C33.625 5.84232 32.7838 5.00107 31.75 5.00107H21.75C20.7162 5.00107 19.875 5.84232 19.875 6.87607V7.50107H16.1469V6.42107L14.5063 5.97295C14.4525 5.8292 14.3925 5.68607 14.3275 5.54482L15.1719 4.06607L12.7294 1.62357L11.2512 2.46732C11.1094 2.40232 10.9669 2.34232 10.8231 2.28857L10.3744 0.647949H6.92L6.47125 2.28857C6.3275 2.34232 6.185 2.4017 6.04375 2.46732L4.565 1.62357L2.1225 4.06607L2.96625 5.54482C2.90125 5.68607 2.84125 5.8292 2.7875 5.97295L1.14687 6.42107V9.87482L2.7875 10.3236C2.84125 10.4673 2.90125 10.6104 2.96625 10.7517L2.12188 12.2304L4.56437 14.6723L6.04313 13.8286C6.18438 13.8936 6.32688 13.9536 6.47063 14.0073L6.91937 15.6479H10.3738L10.8225 14.0073C10.9656 13.9536 11.1088 13.8936 11.2506 13.8286L12.7288 14.6717L15.1713 12.2298L14.3269 10.7511C14.3919 10.6098 14.4519 10.4667 14.5056 10.3229L16.1462 9.8742V8.75107H19.875V9.37607C19.875 10.4098 20.7162 11.2511 21.75 11.2511H31.75C32.7838 11.2511 33.625 10.4098 33.625 9.37607V8.75107H35.5C37.2231 8.75107 38.625 10.1529 38.625 11.8761V16.2511C38.625 17.9742 37.2231 19.3761 35.5 19.3761H27.375V18.7511C27.375 17.7173 26.5338 16.8761 25.5 16.8761H15.5C14.4663 16.8761 13.625 17.7173 13.625 18.7511V19.3761H5.5C3.08812 19.3761 1.125 21.3392 1.125 23.7511V28.7511C1.125 31.1629 3.08812 33.1261 5.5 33.1261H7.375V33.7511C7.375 34.7848 8.21625 35.6261 9.25 35.6261H19.25C20.2838 35.6261 21.125 34.7848 21.125 33.7511V33.1261H26.1569C26.4737 36.6248 29.42 39.3761 33 39.3761C36.7906 39.3761 39.875 36.2917 39.875 32.5011C39.875 28.7104 36.7906 25.6261 33 25.6261C29.42 25.6261 26.4737 28.3773 26.1569 31.8761H21.125V31.2511C21.125 30.2173 20.2838 29.3761 19.25 29.3761H9.25C8.21625 29.3761 7.375 30.2173 7.375 31.2511V31.8761H5.5C3.77688 31.8761 2.375 30.4742 2.375 28.7511V23.7511C2.375 22.028 3.77688 20.6261 5.5 20.6261H13.625V21.2511C13.625 22.2848 14.4663 23.1261 15.5 23.1261ZM14.8969 8.92107L13.5262 9.29607L13.4256 9.6242C13.3356 9.91357 13.2156 10.2017 13.0681 10.4804L12.9069 10.7842L13.6131 12.0211L12.5206 13.1142L11.2831 12.4086L10.98 12.5692C10.7019 12.7167 10.4137 12.8367 10.1237 12.9261L9.79625 13.0273L9.42062 14.3979H7.875L7.49938 13.0273L7.17188 12.9261C6.88313 12.8367 6.595 12.7173 6.31563 12.5692L6.01188 12.4086L4.775 13.1142L3.68125 12.0211L4.3875 10.7842L4.22625 10.4804C4.07875 10.2017 3.95812 9.91357 3.86875 9.6242L3.76813 9.29607L2.3975 8.92107V7.37482L3.76813 7.00045L3.86937 6.67232C3.95875 6.38295 4.07875 6.09482 4.22625 5.8167L4.3875 5.51232L3.68125 4.27545L4.77375 3.18232L6.01063 3.88795L6.31438 3.72732C6.595 3.5792 6.88313 3.45857 7.17063 3.36982L7.49812 3.26857L7.87375 1.89795H9.41937L9.795 3.26857L10.1225 3.36982C10.4113 3.4592 10.6994 3.5792 10.9788 3.72732L11.2819 3.88795L12.5194 3.18232L13.6119 4.27545L12.9056 5.51232L13.0669 5.81607C13.2144 6.0942 13.335 6.38232 13.4237 6.6717L13.525 6.99982L14.8956 7.3742V8.92107H14.8969ZM32.375 9.37607C32.375 9.72045 32.095 10.0011 31.75 10.0011H21.75C21.405 10.0011 21.125 9.72045 21.125 9.37607V6.87607C21.125 6.5317 21.405 6.25107 21.75 6.25107H31.75C32.095 6.25107 32.375 6.5317 32.375 6.87607V9.37607ZM33 26.8761C36.1019 26.8761 38.625 29.3992 38.625 32.5011C38.625 35.603 36.1019 38.1261 33 38.1261C29.8981 38.1261 27.375 35.603 27.375 32.5011C27.375 29.3992 29.8981 26.8761 33 26.8761ZM8.625 31.2511C8.625 30.9061 8.905 30.6261 9.25 30.6261H19.25C19.595 30.6261 19.875 30.9061 19.875 31.2511V33.7511C19.875 34.0961 19.595 34.3761 19.25 34.3761H9.25C8.905 34.3761 8.625 34.0961 8.625 33.7511V31.2511ZM14.875 18.7511C14.875 18.4067 15.155 18.1261 15.5 18.1261H25.5C25.845 18.1261 26.125 18.4067 26.125 18.7511V21.2511C26.125 21.5961 25.845 21.8761 25.5 21.8761H15.5C15.155 21.8761 14.875 21.5961 14.875 21.2511V18.7511Z" fill="#5C51A5"/>
<path d="M21.125 19.376H22.375V20.626H21.125V19.376Z" fill="#5C51A5"/>
<path d="M18.625 19.376H19.875V20.626H18.625V19.376Z" fill="#5C51A5"/>
<path d="M16.125 19.376H17.375V20.626H16.125V19.376Z" fill="#5C51A5"/>
<path d="M23.625 19.376H24.875V20.626H23.625V19.376Z" fill="#5C51A5"/>
<path d="M12.375 31.876H13.625V33.126H12.375V31.876Z" fill="#5C51A5"/>
<path d="M17.375 31.876H18.625V33.126H17.375V31.876Z" fill="#5C51A5"/>
<path d="M14.875 31.876H16.125V33.126H14.875V31.876Z" fill="#5C51A5"/>
<path d="M9.875 31.876H11.125V33.126H9.875V31.876Z" fill="#5C51A5"/>
</g>
<defs>
<clipPath id="clip0_891_2283">
<rect width="40" height="40" fill="white" transform="translate(0.5 0.000976562)"/>
</clipPath>
</defs>
</svg>
