<svg width="41" height="40" viewBox="0 0 41 40" fill="none" xmlns="http://www.w3.org/2000/svg">
<g clip-path="url(#clip0_891_2264)">
<path d="M31.1666 4.66763H27.8333V4.001C27.8333 3.26765 27.2333 2.66766 26.4999 2.66766H24.5V2.00095C24.5 0.867605 23.6333 0.000976562 22.5 0.000976562H18.5C17.3666 0.000976562 16.5 0.934323 16.5 2.00095V2.66758H14.5C13.7667 2.66758 13.1667 3.26757 13.1667 4.00092V4.66755H9.83337C7.96668 4.66755 6.50006 6.13425 6.50006 8.00087V36.6675C6.50006 38.5342 7.96676 40.0008 9.83337 40.0008H31.1667C33.0334 40.0008 34.5 38.5341 34.5 36.6675V8.00095C34.5 6.13433 33.0333 4.66763 31.1666 4.66763ZM14.4999 4.001H17.1666C17.5666 4.001 17.8333 3.73436 17.8333 3.33437V2.00095C17.8333 1.60095 18.0999 1.33432 18.4999 1.33432H22.4999C22.8999 1.33432 23.1665 1.66767 23.1665 2.00095V3.33429C23.1665 3.73428 23.4332 4.00092 23.8332 4.00092H26.4999V5.33426V8.66758H14.4999V5.33434V4.001ZM33.1666 36.6676C33.1666 37.8009 32.3 38.6676 31.1667 38.6676H9.83337C8.70003 38.6676 7.8334 37.8009 7.8334 36.6676V8.00095C7.8334 6.8676 8.70003 6.00097 9.83337 6.00097H13.1667V8.66766C13.1667 9.401 13.7667 10.001 14.5 10.001H26.5C27.2334 10.001 27.8334 9.401 27.8334 8.66766V6.00097H31.1667C32.3 6.00097 33.1666 6.8676 33.1666 8.00095V36.6676Z" fill="#5C51A5"/>
<path d="M22.4994 32.001H11.8327C11.4327 32.001 11.1661 32.2676 11.1661 32.6676C11.1661 33.0676 11.4327 33.3342 11.8327 33.3342H22.4994C22.8994 33.3342 23.166 33.0676 23.166 32.6676C23.166 32.2676 22.8994 32.001 22.4994 32.001Z" fill="#5C51A5"/>
<path d="M22.4994 26.001H11.8327C11.4327 26.001 11.1661 26.2676 11.1661 26.6676C11.1661 27.0676 11.4327 27.3342 11.8327 27.3342H22.4994C22.8994 27.3342 23.166 27.0676 23.166 26.6676C23.166 26.2677 22.8994 26.001 22.4994 26.001Z" fill="#5C51A5"/>
<path d="M22.4994 20.001H11.8327C11.4327 20.001 11.1661 20.2676 11.1661 20.6676C11.1661 21.0676 11.4327 21.3342 11.8327 21.3342H22.4994C22.8994 21.3342 23.166 21.0676 23.166 20.6676C23.166 20.2677 22.8994 20.001 22.4994 20.001Z" fill="#5C51A5"/>
<path d="M22.4994 14.001H11.8327C11.4327 14.001 11.1661 14.2676 11.1661 14.6676C11.1661 15.0676 11.4327 15.3342 11.8327 15.3342H22.4994C22.8994 15.3342 23.166 15.0676 23.166 14.6676C23.166 14.2676 22.8994 14.001 22.4994 14.001Z" fill="#5C51A5"/>
<path d="M30.2327 12.1344C29.9661 11.9344 29.4994 12.001 29.2994 12.2677L27.1068 15.0084L26.2994 14.2011C26.0328 13.9344 25.6328 13.9344 25.3661 14.2011C25.0994 14.4677 25.0994 14.8677 25.3661 15.1344L26.6641 16.4325C26.694 16.4708 26.7277 16.5056 26.766 16.5344C26.7733 16.538 26.7806 16.5416 26.788 16.5453C26.8945 16.6265 27.0099 16.6677 27.166 16.6677C27.191 16.6677 27.215 16.6666 27.2381 16.6646C27.4132 16.6496 27.5821 16.577 27.6994 16.401L30.3661 13.0677C30.566 12.801 30.4993 12.3344 30.2327 12.1344Z" fill="#5C51A5"/>
<path d="M30.2327 18.1344C29.9661 17.9344 29.4994 18.001 29.2994 18.2677L27.1068 21.0084L26.2994 20.2011C26.0328 19.9344 25.6328 19.9344 25.3661 20.2011C25.0994 20.4677 25.0994 20.8677 25.3661 21.1344L26.6641 22.4325C26.694 22.4709 26.7277 22.5056 26.766 22.5344C26.7733 22.538 26.7806 22.5417 26.788 22.5453C26.8945 22.6266 27.0099 22.6677 27.166 22.6677C27.191 22.6677 27.215 22.6667 27.2381 22.6646C27.4132 22.6497 27.5821 22.577 27.6994 22.4011L30.3661 19.0678C30.566 18.801 30.4993 18.3344 30.2327 18.1344Z" fill="#5C51A5"/>
<path d="M30.2327 24.1344C29.9661 23.9344 29.4994 24.001 29.2994 24.2677L27.1068 27.0084L26.2994 26.2011C26.0328 25.9344 25.6328 25.9344 25.3661 26.2011C25.0994 26.4677 25.0994 26.8677 25.3661 27.1344L26.6641 28.4325C26.694 28.4708 26.7277 28.5056 26.766 28.5344C26.7733 28.538 26.7806 28.5416 26.788 28.5453C26.8945 28.6265 27.0099 28.6677 27.166 28.6677C27.191 28.6677 27.215 28.6666 27.2381 28.6646C27.4132 28.6496 27.5821 28.577 27.6994 28.401L30.3661 25.0677C30.566 24.801 30.4993 24.3344 30.2327 24.1344Z" fill="#5C51A5"/>
<path d="M30.2327 30.1344C29.9661 29.9344 29.4994 30.001 29.2994 30.2677L27.1068 33.0084L26.2994 32.2011C26.0328 31.9344 25.6328 31.9344 25.3661 32.2011C25.0994 32.4677 25.0994 32.8677 25.3661 33.1344L26.6641 34.4325C26.694 34.4709 26.7277 34.5056 26.766 34.5344C26.7733 34.538 26.7806 34.5417 26.788 34.5453C26.8945 34.6266 27.0099 34.6677 27.166 34.6677C27.191 34.6677 27.215 34.6667 27.2381 34.6646C27.4132 34.6497 27.5821 34.577 27.6994 34.4011L30.3661 31.0678C30.566 30.801 30.4993 30.3344 30.2327 30.1344Z" fill="#5C51A5"/>
</g>
<defs>
<clipPath id="clip0_891_2264">
<rect width="40" height="40" fill="white" transform="translate(0.5 0.000976562)"/>
</clipPath>
</defs>
</svg>
