<svg width="71" height="70" viewBox="0 0 71 70" fill="none" xmlns="http://www.w3.org/2000/svg">
<g clip-path="url(#clip0_891_2920)">
<path d="M5.24609 52.1148V63.4617C5.24609 64.152 5.80697 64.7272 6.51165 64.7272H15.2843C15.9746 64.7272 16.5498 64.1663 16.5498 63.4617V43.5004L10.1789 49.8713C8.82705 51.2088 7.10129 51.9854 5.24609 52.1148Z" fill="#F3F1F7"/>
<path d="M20.9219 43.3566V63.4617C20.9219 64.152 21.4827 64.7272 22.1874 64.7272H30.96C31.6504 64.7272 32.2256 64.1664 32.2256 63.4617V51.6258C30.2266 51.5827 28.357 50.7917 26.9477 49.3823L20.9219 43.3566Z" fill="#F3F1F7"/>
<path d="M36.5977 50.3747V63.4617C36.5977 64.152 37.1585 64.7273 37.8632 64.7273H46.6358C47.3261 64.7273 47.9014 64.1664 47.9014 63.4617V39.3154L37.8488 49.368C37.4605 49.7563 37.0435 50.087 36.5977 50.3747Z" fill="#F3F1F7"/>
<path d="M62.7287 24.4739L52.2734 34.9291V63.4617C52.2734 64.152 52.8343 64.7272 53.539 64.7272H62.3116C63.0019 64.7272 63.5772 64.1664 63.5772 63.4617V25.2649C63.2895 25.0204 63.0738 24.8046 62.9156 24.6608L62.7287 24.4739Z" fill="#F3F1F7"/>
<path d="M69.9043 5.9507C69.4873 5.50488 68.8545 5.27478 68.0491 5.27478C67.9772 5.27478 67.8909 5.27478 67.819 5.27478C63.7347 5.46174 59.6648 5.66308 55.5805 5.85003C55.034 5.8788 54.2862 5.90756 53.6966 6.49719C53.5096 6.68415 53.3658 6.89987 53.2507 7.15873C52.6467 8.46744 53.4952 9.31593 53.8979 9.71861L54.919 10.7541C55.6237 11.4731 56.3427 12.1922 57.0618 12.8969L32.3834 37.5896L21.2954 26.5016C20.6339 25.8401 19.7422 25.4662 18.7931 25.4662C17.8439 25.4662 16.9666 25.8401 16.3051 26.5016L1.53546 41.2569C0.154848 42.6375 0.154848 44.8666 1.53546 46.2472L2.197 46.9087C2.85854 47.5703 3.75018 47.9442 4.69935 47.9442C5.64852 47.9442 6.52578 47.5703 7.18732 46.9087L18.7931 35.303L29.8811 46.391C30.5426 47.0526 31.4343 47.4265 32.3834 47.4265C33.3326 47.4265 34.2099 47.0526 34.8858 46.391L62.728 18.5487L65.8776 21.6839C66.2515 22.0578 66.7692 22.5755 67.5602 22.5755C67.8909 22.5755 68.2217 22.4892 68.5669 22.3023C68.797 22.1728 68.9983 22.029 69.1709 21.8565C69.7893 21.2381 69.9043 20.4471 69.9331 19.8287C70.0481 17.1825 70.1776 14.5364 70.307 11.8758L70.494 7.89218C70.5371 7.05807 70.3502 6.41091 69.9043 5.9507Z" fill="#F3F1F7"/>
</g>
<defs>
<clipPath id="clip0_891_2920">
<rect width="70" height="70" fill="white" transform="translate(0.5 0.000976562)"/>
</clipPath>
</defs>
</svg>
