<svg width="24" height="25" viewBox="0 0 24 25" fill="none" xmlns="http://www.w3.org/2000/svg">
<g clip-path="url(#clip0_891_2014)">
<path d="M1 1.5C0.447715 1.5 0 1.94772 0 2.5C0 3.05228 0.447715 3.5 1 3.5H2.7793C2.92489 3.5 3.0668 3.54581 3.18491 3.63095C3.30302 3.71608 3.39135 3.83622 3.43738 3.97435L6.73438 13.8672C6.88079 14.3064 6.8994 14.7793 6.78711 15.2285L6.51562 16.3164C6.11728 17.9098 7.35758 19.5 9 19.5H21C21.5523 19.5 22 19.0523 22 18.5C22 17.9477 21.5523 17.5 21 17.5H9C8.61061 17.5 8.36064 17.1805 8.45508 16.8027L8.65981 15.985C8.6945 15.8465 8.7745 15.7235 8.88709 15.6356C8.99969 15.5477 9.13842 15.5 9.28125 15.5H20C20.4306 15.5002 20.813 15.2248 20.9492 14.8164L23.6152 6.81641C23.8312 6.16862 23.3489 5.49969 22.666 5.5H6.55469C6.40909 5.5 6.26718 5.45419 6.14907 5.36906C6.03095 5.28392 5.94262 5.16379 5.89657 5.02566L4.94922 2.18359C4.81295 1.77515 4.43057 1.49978 4 1.5H1ZM8 20.5C6.89543 20.5 6 21.3954 6 22.5C6 23.6046 6.89543 24.5 8 24.5C9.10457 24.5 10 23.6046 10 22.5C10 21.3954 9.10457 20.5 8 20.5ZM20 20.5C18.8954 20.5 18 21.3954 18 22.5C18 23.6046 18.8954 24.5 20 24.5C21.1046 24.5 22 23.6046 22 22.5C22 21.3954 21.1046 20.5 20 20.5Z" fill="#545454"/>
</g>
<defs>
<clipPath id="clip0_891_2014">
<rect width="24" height="24" fill="white" transform="translate(0 0.5)"/>
</clipPath>
</defs>
</svg>
