<svg width="17" height="16" viewBox="0 0 17 16" fill="none" xmlns="http://www.w3.org/2000/svg">
<g clip-path="url(#clip0_3131_3323)">
<path d="M16.4103 3.04332C16.5415 2.78759 16.5194 2.49768 16.4046 2.25702C16.4369 1.98317 16.3653 1.70513 16.1061 1.49187C15.8647 1.29337 15.6235 1.09475 15.3823 0.896206C14.9582 0.547256 14.2941 0.437118 13.8816 0.896206C12.008 2.98116 10.0487 4.97555 8.01762 6.89734C6.50756 5.4867 4.97915 4.09522 3.46169 2.70192C2.92911 2.21278 2.15822 2.36627 1.82314 2.94898C1.33508 3.19122 0.939457 3.50703 0.612318 4.04605C0.456553 4.30286 0.468692 4.62703 0.612318 4.88476C1.59196 6.64119 3.4855 8.18547 5.04239 9.60663C4.83406 9.79311 4.62727 9.98136 4.41474 10.1639C2.31718 11.9652 0.902346 13.1081 3.52728 14.955C3.56269 14.9799 3.5988 14.9744 3.63476 14.989C3.68505 15.0122 3.73329 15.0285 3.78906 15.0377C3.8064 15.0383 3.82258 15.0413 3.83966 15.0399C3.89368 15.0443 3.94656 15.0581 4.00132 15.0473C5.41257 14.7706 6.72498 13.6647 7.91573 12.4469C9.07568 13.5902 10.3108 14.6825 11.669 15.3306C11.9924 15.485 12.3779 15.395 12.6268 15.1791C13.0443 15.2106 13.4249 14.9513 13.6159 14.5785C13.6442 14.561 13.6624 14.551 13.693 14.5319C14.2999 14.1527 14.3554 13.3977 13.9063 12.8772C12.8923 11.7022 11.8144 10.5852 10.7155 9.48794C12.6941 7.5547 15.1645 5.46971 16.4103 3.04332Z" fill="#393939"/>
</g>
<defs>
<clipPath id="clip0_3131_3323">
<rect width="16" height="16" fill="white" transform="translate(0.5)"/>
</clipPath>
</defs>
</svg>
