<svg width="24" height="25" viewBox="0 0 24 25" fill="none" xmlns="http://www.w3.org/2000/svg">
<g clip-path="url(#clip0_891_2023)">
<path d="M17.9062 10.9062H14.25V12.875C14.2501 13.049 14.3193 13.2159 14.4423 13.3389C14.5654 13.462 14.7322 13.5312 14.9062 13.5312H17.25C17.424 13.5312 17.5909 13.462 17.7139 13.3389C17.837 13.2159 17.9062 13.049 17.9062 12.875V10.9062Z" fill="#545454"/>
<path d="M6.75 13.5312H9.09375C9.26777 13.5312 9.43463 13.462 9.55768 13.3389C9.68073 13.2159 9.7499 13.049 9.75 12.875V10.9062H6.09375V12.875C6.09385 13.049 6.16302 13.2159 6.28607 13.3389C6.40912 13.462 6.57598 13.5312 6.75 13.5312Z" fill="#545454"/>
<path d="M9.75 6.5C9.75 5.90326 9.98705 5.33097 10.409 4.90901C10.831 4.48705 11.4033 4.25 12 4.25C12.5967 4.25 13.169 4.48705 13.591 4.90901C14.0129 5.33097 14.25 5.90326 14.25 6.5V9.59375H17.9062V6.5C17.9062 4.93357 17.284 3.43129 16.1763 2.32365C15.0687 1.21601 13.5664 0.59375 12 0.59375C10.4336 0.59375 8.93129 1.21601 7.82365 2.32365C6.71601 3.43129 6.09375 4.93357 6.09375 6.5V9.59375H9.75V6.5Z" fill="#545454"/>
<path d="M19.6249 19.3438C20.764 19.3438 21.6874 18.4203 21.6874 17.2812C21.6874 16.1422 20.764 15.2188 19.6249 15.2188C18.4858 15.2188 17.5624 16.1422 17.5624 17.2812C17.5624 18.4203 18.4858 19.3438 19.6249 19.3438Z" fill="#545454"/>
<path d="M4.37512 19.3438C5.51421 19.3438 6.43762 18.4203 6.43762 17.2812C6.43762 16.1422 5.51421 15.2188 4.37512 15.2188C3.23603 15.2188 2.31262 16.1422 2.31262 17.2812C2.31262 18.4203 3.23603 19.3438 4.37512 19.3438Z" fill="#545454"/>
<path d="M12 19.3438C13.1391 19.3438 14.0625 18.4203 14.0625 17.2812C14.0625 16.1422 13.1391 15.2188 12 15.2188C10.8609 15.2188 9.9375 16.1422 9.9375 17.2812C9.9375 18.4203 10.8609 19.3438 12 19.3438Z" fill="#545454"/>
<path d="M13.9564 20.0264C13.3863 20.436 12.702 20.6564 12 20.6564C11.298 20.6564 10.6137 20.436 10.0436 20.0264C9.66934 20.3212 9.36686 20.6971 9.15899 21.1259C8.95112 21.5546 8.84329 22.0249 8.84363 22.5014V24.4064H15.1564V22.5002C15.1565 22.024 15.0486 21.5539 14.8408 21.1254C14.6329 20.6968 14.3305 20.3211 13.9564 20.0264Z" fill="#545454"/>
<path d="M6.3315 20.0264C5.76142 20.436 5.07713 20.6564 4.37513 20.6564C3.67312 20.6564 2.98883 20.436 2.41875 20.0264C2.04446 20.3212 1.74198 20.6971 1.53411 21.1259C1.32624 21.5546 1.21841 22.0249 1.21875 22.5014V23.7501C1.21885 23.9241 1.28802 24.091 1.41107 24.214C1.53412 24.3371 1.70098 24.4063 1.875 24.4064H7.53113V22.5002C7.53117 22.024 7.42325 21.554 7.21546 21.1255C7.00768 20.697 6.70545 20.3212 6.3315 20.0264Z" fill="#545454"/>
<path d="M21.5816 20.0264C21.0115 20.436 20.3273 20.6564 19.6252 20.6564C18.9232 20.6564 18.239 20.436 17.6689 20.0264C17.2946 20.3212 16.9921 20.6971 16.7842 21.1259C16.5764 21.5546 16.4685 22.0249 16.4689 22.5014V24.4064H22.125C22.299 24.4063 22.4659 24.3371 22.5889 24.214C22.712 24.091 22.7811 23.9241 22.7812 23.7501V22.5002C22.7813 22.024 22.6734 21.554 22.4656 21.1255C22.2578 20.697 21.9556 20.3212 21.5816 20.0264Z" fill="#545454"/>
</g>
<defs>
<clipPath id="clip0_891_2023">
<rect width="24" height="24" fill="white" transform="translate(0 0.5)"/>
</clipPath>
</defs>
</svg>
