<svg width="25" height="25" viewBox="0 0 25 25" fill="none" xmlns="http://www.w3.org/2000/svg">
<g clip-path="url(#clip0_891_2018)">
<path d="M19.1729 5.41144C17.86 3.01239 15.288 1.48438 12.5 1.48438C8.95508 1.48438 5.88092 3.94934 5.10309 7.31335C2.52002 7.58545 0.5 9.75543 0.5 12.3845C0.5 15.1964 2.81207 17.4843 5.65204 17.4843H5.76099C5.62695 16.8894 5.70898 16.2463 6.03308 15.6844L6.84204 14.2844C7.28699 13.5133 8.117 13.0343 9.008 13.0343C9.12903 13.0343 9.25006 13.0435 9.36798 13.0603C9.73895 12.1303 10.649 11.4843 11.691 11.4843H13.308C14.3499 11.4843 15.2599 12.1294 15.6309 13.0603C15.7499 13.0435 15.8701 13.0343 15.9911 13.0343C16.8821 13.0343 17.7119 13.5133 18.157 14.2844L18.966 15.6844C19.278 16.2244 19.361 16.8383 19.248 17.4144C22.213 16.9894 24.5 14.4664 24.5 11.4173C24.5 8.35138 22.1931 5.7923 19.1729 5.41144Z" fill="#545454"/>
<path d="M16.2023 18.9534C16.2224 18.7985 16.2493 18.6443 16.2493 18.4844C16.2493 18.3233 16.2213 18.1704 16.2023 18.0153L17.1033 17.3334C17.3044 17.1815 17.3604 16.9033 17.2343 16.6843L16.4253 15.2843C16.2993 15.0664 16.0303 14.9754 15.7984 15.0734L14.7614 15.5104C14.5084 15.3174 14.2394 15.1473 13.9424 15.0234L13.8043 13.9224C13.7723 13.6724 13.5603 13.4844 13.3083 13.4844H11.6913C11.4393 13.4844 11.2264 13.6724 11.1953 13.9224L11.0574 15.0234C10.7604 15.1473 10.4903 15.3184 10.2384 15.5104L9.20143 15.0734C8.96834 14.9754 8.69935 15.0653 8.57338 15.2843L7.76533 16.6843C7.63936 16.9024 7.69539 17.1804 7.89625 17.3334L8.79732 18.0153C8.77736 18.1704 8.74934 18.3233 8.74934 18.4844C8.74934 18.6454 8.77736 18.7985 8.7964 18.9534L7.89534 19.6354C7.69429 19.7874 7.63826 20.0654 7.76442 20.2844L8.57338 21.6844C8.69935 21.9025 8.96834 21.9933 9.20033 21.8953L10.2373 21.4573C10.4903 21.6503 10.7593 21.8204 11.0563 21.9444L11.1943 23.0454C11.2264 23.2964 11.4384 23.4843 11.6904 23.4843H13.3074C13.5593 23.4843 13.7723 23.2964 13.8034 23.0463L13.9413 21.9453C14.2383 21.8214 14.5084 21.6503 14.7603 21.4584L15.7973 21.8953C16.0294 21.9933 16.2984 21.9034 16.4244 21.6844L17.2334 20.2834C17.3593 20.0654 17.3033 19.7874 17.1024 19.6343L16.2023 18.9534ZM12.4993 20.4843C11.3943 20.4843 10.4993 19.5893 10.4993 18.4844C10.4993 17.3794 11.3943 16.4844 12.4993 16.4844C13.6044 16.4844 14.4994 17.3794 14.4994 18.4844C14.4994 19.5893 13.6044 20.4843 12.4993 20.4843Z" fill="#545454"/>
</g>
<defs>
<clipPath id="clip0_891_2018">
<rect width="24" height="24" fill="white" transform="translate(0.5 0.5)"/>
</clipPath>
</defs>
</svg>
