<svg width="300" height="25" viewBox="0 0 300 25" fill="none" xmlns="http://www.w3.org/2000/svg">
<path d="M111.445 9.21618C105.438 8.57684 99.3961 9.03491 93.3705 9.25574C76.7128 9.86774 60.0507 10.6421 43.401 12.1874C30.781 13.3571 18.1877 14.8287 5.81518 18.6038C4.36516 19.0476 2.89456 19.5298 1.39226 19.2586C0.120552 19.0279 -0.0373996 18.2403 0.881079 17.2195C1.93396 16.0496 3.29871 15.4978 4.63228 14.9419C13.3657 11.3111 22.4137 9.54454 31.4965 8.21248C60.791 3.91516 90.1559 2.25665 119.535 1.19755C154.025 -0.0457379 188.438 0.360878 222.76 2.81418C244.922 4.3994 267.072 6.09561 289.177 8.24183C292.512 8.56616 295.903 8.89234 299.488 10.6544C297.727 11.5306 296.375 11.6434 295.004 11.7226C285.691 12.2556 276.433 11.5806 267.159 11.3113C252.19 10.8762 237.23 10.3572 223.487 9.91356C247.899 12.7753 273.79 13.7074 299.156 19.0258C297.375 20.7862 295.383 20.743 293.487 20.7089C287.269 20.6044 281.05 20.4519 274.848 20.1102C217.157 16.9386 159.372 15.7535 101.464 17.2852C79.5494 17.8659 57.6193 18.398 35.7449 21.6376C31.557 22.2579 27.3832 23.0833 23.2023 23.8061C22.5942 23.9099 21.9763 24.0464 21.3699 24.0298C20.4343 24.0057 19.2004 24.2457 18.9184 22.9394C18.6186 21.5362 19.8749 21.0922 20.7081 20.6767C24.9015 18.5818 29.3489 17.6871 33.7674 16.7522C49.7657 13.371 65.8921 12.0888 82.0214 10.9812C91.8272 10.3075 101.637 9.79647 111.445 9.21318L111.445 9.21618Z" fill="#E3AA10"/>
</svg>
